<svg version="1.1" viewBox="0.0 0.0 960.0 720.0" fill="none" stroke="none" stroke-linecap="square" stroke-miterlimit="10" xmlns:xlink="http://www.w3.org/1999/xlink" xmlns="http://www.w3.org/2000/svg"><clipPath id="p.0"><path d="m0 0l960.0 0l0 720.0l-960.0 0l0 -720.0z" clip-rule="nonzero"/></clipPath><g clip-path="url(#p.0)"><path fill="#000000" fill-opacity="0.0" d="m0 0l960.0 0l0 720.0l-960.0 0z" fill-rule="evenodd"/><path fill="#38761d" d="m157.96588 72.116104l0 0c0 -17.070435 13.838318 -30.908756 30.908752 -30.908756l280.4502 0c8.19751 0 16.059296 3.2564507 21.855804 9.052967c5.796509 5.7965164 9.052948 13.658276 9.052948 21.85579l0 123.6313c0 17.070435 -13.838318 30.908768 -30.908752 30.908768l-280.4502 0c-17.070435 0 -30.908752 -13.838333 -30.908752 -30.908768z" fill-rule="evenodd"/><path stroke="#000000" stroke-width="1.0" stroke-linejoin="round" stroke-linecap="butt" d="m157.96588 72.116104l0 0c0 -17.070435 13.838318 -30.908756 30.908752 -30.908756l280.4502 0c8.19751 0 16.059296 3.2564507 21.855804 9.052967c5.796509 5.7965164 9.052948 13.658276 9.052948 21.85579l0 123.6313c0 17.070435 -13.838318 30.908768 -30.908752 30.908768l-280.4502 0c-17.070435 0 -30.908752 -13.838333 -30.908752 -30.908768z" fill-rule="evenodd"/><path fill="#000000" d="m265.5801 140.79175l0 -35.312492l7.03125 0l8.359375 24.999992q1.15625 3.5 1.6875 5.234375q0.609375 -1.9375 1.875 -5.671875l8.46875 -24.562492l6.28125 0l0 35.312492l-4.5 0l0 -29.546867l-10.265625 29.546867l-4.21875 0l-10.203125 -30.062492l0 30.062492l-4.515625 0zm39.075104 -12.796867q0 -7.09375 3.953125 -10.515625q3.296875 -2.84375 8.03125 -2.84375q5.28125 0 8.625 3.453125q3.359375 3.453125 3.359375 9.546875q0 4.9374924 -1.484375 7.7812424q-1.484375 2.828125 -4.3125 4.390625q-2.828125 1.5625 -6.1875 1.5625q-5.359375 0 -8.671875 -3.4375q-3.3125 -3.453125 -3.3125 -9.937492zm4.453125 0q0 4.9218674 2.140625 7.3749924q2.140625 2.4375 5.390625 2.4375q3.234375 0 5.375 -2.453125q2.140625 -2.46875 2.140625 -7.4999924q0 -4.734375 -2.15625 -7.171875q-2.140625 -2.453125 -5.359375 -2.453125q-3.25 0 -5.390625 2.4375q-2.140625 2.421875 -2.140625 7.328125zm41.18396 12.796867l0 -3.234375q-2.421875 3.8125 -7.15625 3.8125q-3.046875 0 -5.625 -1.6875q-2.5625 -1.6875 -3.96875 -4.703125q-1.40625 -3.03125 -1.40625 -6.953125q0 -3.8281174 1.265625 -6.9374924q1.28125 -3.125 3.828125 -4.78125q2.5625 -1.671875 5.71875 -1.671875q2.3125 0 4.109375 0.984375q1.8125 0.96875 2.953125 2.53125l0 -12.671875l4.3125 0l0 35.312492l-4.03125 0zm-13.703125 -12.765625q0 4.90625 2.0625 7.34375q2.078125 2.4375 4.90625 2.4375q2.828125 0 4.8125 -2.328125q2.0 -2.328125 2.0 -7.09375q0 -5.2499924 -2.03125 -7.7031174q-2.015625 -2.453125 -4.984375 -2.453125q-2.890625 0 -4.828125 2.359375q-1.9375 2.359375 -1.9375 7.4374924zm42.05896 4.53125l4.46875 0.546875q-1.046875 3.9375 -3.921875 6.109375q-2.859375 2.15625 -7.3125 2.15625q-5.625 0 -8.90625 -3.453125q-3.28125 -3.453125 -3.28125 -9.703125q0 -6.4531174 3.3125 -10.015617q3.328125 -3.5625 8.625 -3.5625q5.140625 0 8.390625 3.5q3.25 3.484375 3.25 9.8125q0 0.39061737 -0.03125 1.1562424l-19.078125 0q0.25 4.21875 2.390625 6.46875q2.140625 2.234375 5.34375 2.234375q2.390625 0 4.078125 -1.25q1.6875 -1.25 2.671875 -4.0zm-14.234375 -7.0156174l14.28125 0q-0.296875 -3.21875 -1.640625 -4.84375q-2.078125 -2.5 -5.375 -2.5q-2.984375 0 -5.015625 2.0q-2.03125 2.0 -2.25 5.34375zm24.05896 15.249992l0 -35.312492l4.328125 0l0 35.312492l-4.328125 0z" fill-rule="nonzero"/><path fill="#45818e" d="m608.93964 72.116104l0 0c0 -17.070435 13.838318 -30.908756 30.908752 -30.908756l280.4502 0c8.19751 0 16.059265 3.2564507 21.855774 9.052967c5.79657 5.7965164 9.0529785 13.658276 9.0529785 21.85579l0 123.6313c0 17.070435 -13.838318 30.908768 -30.908752 30.908768l-280.4502 0c-17.070435 0 -30.908752 -13.838333 -30.908752 -30.908768z" fill-rule="evenodd"/><path stroke="#000000" stroke-width="1.0" stroke-linejoin="round" stroke-linecap="butt" d="m608.93964 72.116104l0 0c0 -17.070435 13.838318 -30.908756 30.908752 -30.908756l280.4502 0c8.19751 0 16.059265 3.2564507 21.855774 9.052967c5.79657 5.7965164 9.0529785 13.658276 9.0529785 21.85579l0 123.6313c0 17.070435 -13.838318 30.908768 -30.908752 30.908768l-280.4502 0c-17.070435 0 -30.908752 -13.838333 -30.908752 -30.908768z" fill-rule="evenodd"/><path fill="#000000" d="m740.95087 140.79175l-13.671875 -35.312492l5.0625 0l9.171875 25.656242q1.109375 3.078125 1.859375 5.78125q0.8125 -2.890625 1.890625 -5.78125l9.546875 -25.656242l4.765625 0l-13.828125 35.312492l-4.796875 0zm21.400818 -30.328117l0 -4.984375l4.328125 0l0 4.984375l-4.328125 0zm0 30.328117l0 -25.578117l4.328125 0l0 25.578117l-4.328125 0zm28.443542 -8.234375l4.46875 0.546875q-1.046875 3.9375 -3.921875 6.109375q-2.859375 2.15625 -7.3125 2.15625q-5.625 0 -8.90625 -3.453125q-3.28125 -3.453125 -3.28125 -9.703125q0 -6.4531174 3.3125 -10.015617q3.328125 -3.5625 8.625 -3.5625q5.140625 0 8.390625 3.5q3.25 3.484375 3.25 9.8125q0 0.39061737 -0.03125 1.1562424l-19.078125 0q0.25 4.21875 2.390625 6.46875q2.140625 2.234375 5.34375 2.234375q2.390625 0 4.078125 -1.25q1.6875 -1.25 2.671875 -4.0zm-14.234375 -7.0156174l14.28125 0q-0.296875 -3.21875 -1.640625 -4.84375q-2.078125 -2.5 -5.375 -2.5q-2.984375 0 -5.015625 2.0q-2.03125 2.0 -2.25 5.34375zm28.87146 15.249992l-7.828125 -25.578117l4.484375 0l4.0625 14.765617l1.53125 5.484375q0.09375 -0.40625 1.3125 -5.265625l4.078125 -14.984367l4.453125 0l3.828125 14.828117l1.28125 4.890625l1.46875 -4.9375l4.375 -14.781242l4.21875 0l-8.0 25.578117l-4.5 0l-4.0625 -15.312492l-1.0 -4.359375l-5.171875 19.671867l-4.53125 0z" fill-rule="nonzero"/><path fill="#e06666" d="m438.2152 366.2421l0 0c0 -17.070435 13.838348 -30.908752 30.908783 -30.908752l280.45016 0c8.19751 0 16.059326 3.2564392 21.855835 9.052948c5.796509 5.796509 9.0529175 13.658295 9.0529175 21.855804l0 123.63129c0 17.070435 -13.838318 30.908783 -30.908752 30.908783l-280.45016 0c-17.070435 0 -30.908783 -13.838348 -30.908783 -30.908783z" fill-rule="evenodd"/><path stroke="#000000" stroke-width="1.0" stroke-linejoin="round" stroke-linecap="butt" d="m438.2152 366.2421l0 0c0 -17.070435 13.838348 -30.908752 30.908783 -30.908752l280.45016 0c8.19751 0 16.059326 3.2564392 21.855835 9.052948c5.796509 5.796509 9.0529175 13.658295 9.0529175 21.855804l0 123.63129c0 17.070435 -13.838318 30.908783 -30.908752 30.908783l-280.45016 0c-17.070435 0 -30.908783 -13.838348 -30.908783 -30.908783z" fill-rule="evenodd"/><path fill="#000000" d="m531.4313 433.54272l4.671875 1.171875q-1.46875 5.765625 -5.296875 8.796875q-3.8125 3.015625 -9.328125 3.015625q-5.703125 0 -9.28125 -2.328125q-3.5780945 -2.328125 -5.4530945 -6.734375q-1.859375 -4.40625 -1.859375 -9.46875q0 -5.515625 2.109375 -9.625q2.109375 -4.109375 5.9999695 -6.234375q3.890625 -2.125 8.5625 -2.125q5.296875 0 8.90625 2.703125q3.625 2.6875 5.03125 7.578125l-4.59375 1.078125q-1.234375 -3.84375 -3.578125 -5.59375q-2.328125 -1.765625 -5.859375 -1.765625q-4.078125 0 -6.8125 1.953125q-2.7343445 1.9375 -3.8437195 5.234375q-1.09375 3.28125 -1.09375 6.78125q0 4.5 1.3125 7.859375q1.3124695 3.359375 4.0780945 5.03125q2.765625 1.65625 6.0 1.65625q3.921875 0 6.640625 -2.265625q2.71875 -2.265625 3.6875 -6.71875zm8.263855 -0.421875q0 -7.09375 3.953125 -10.515625q3.296875 -2.84375 8.03125 -2.84375q5.28125 0 8.625 3.453125q3.359375 3.453125 3.359375 9.546875q0 4.9375 -1.484375 7.78125q-1.484375 2.828125 -4.3125 4.390625q-2.828125 1.5625 -6.1875 1.5625q-5.359375 0 -8.671875 -3.4375q-3.3125 -3.453125 -3.3125 -9.9375zm4.453125 0q0 4.921875 2.140625 7.375q2.140625 2.4375 5.390625 2.4375q3.234375 0 5.375 -2.453125q2.140625 -2.46875 2.140625 -7.5q0 -4.734375 -2.15625 -7.171875q-2.140625 -2.453125 -5.359375 -2.453125q-3.25 0 -5.390625 2.4375q-2.140625 2.421875 -2.140625 7.328125zm24.59021 12.796875l0 -25.578125l3.90625 0l0 3.640625q2.8125 -4.21875 8.140625 -4.21875q2.3125 0 4.25 0.828125q1.9375 0.828125 2.890625 2.1875q0.96875 1.34375 1.359375 3.203125q0.234375 1.203125 0.234375 4.203125l0 15.734375l-4.328125 0l0 -15.5625q0 -2.640625 -0.515625 -3.953125q-0.5 -1.3125 -1.796875 -2.09375q-1.28125 -0.796875 -3.015625 -0.796875q-2.765625 0 -4.78125 1.765625q-2.0 1.75 -2.0 6.671875l0 13.96875l-4.34375 0zm36.90271 -3.875l0.625 3.828125q-1.828125 0.390625 -3.28125 0.390625q-2.359375 0 -3.65625 -0.75q-1.296875 -0.75 -1.828125 -1.96875q-0.53125 -1.21875 -0.53125 -5.109375l0 -14.71875l-3.1875 0l0 -3.375l3.1875 0l0 -6.328125l4.3125 -2.609375l0 8.9375l4.359375 0l0 3.375l-4.359375 0l0 14.953125q0 1.859375 0.21875 2.390625q0.234375 0.53125 0.75 0.84375q0.515625 0.3125 1.484375 0.3125q0.71875 0 1.90625 -0.171875zm4.189331 3.875l0 -25.578125l3.90625 0l0 3.875q1.484375 -2.71875 2.75 -3.578125q1.265625 -0.875 2.78125 -0.875q2.203125 0 4.453125 1.390625l-1.484375 4.03125q-1.59375 -0.9375 -3.1875 -0.9375q-1.421875 0 -2.546875 0.859375q-1.125 0.84375 -1.609375 2.359375q-0.734375 2.3125 -0.734375 5.0625l0 13.390625l-4.328125 0zm14.864136 -12.796875q0 -7.09375 3.953125 -10.515625q3.296875 -2.84375 8.03125 -2.84375q5.28125 0 8.625 3.453125q3.359375 3.453125 3.359375 9.546875q0 4.9375 -1.484375 7.78125q-1.484375 2.828125 -4.3125 4.390625q-2.828125 1.5625 -6.1875 1.5625q-5.359375 0 -8.671875 -3.4375q-3.3125 -3.453125 -3.3125 -9.9375zm4.453125 0q0 4.921875 2.140625 7.375q2.140625 2.4375 5.390625 2.4375q3.234375 0 5.375 -2.453125q2.140625 -2.46875 2.140625 -7.5q0 -4.734375 -2.15625 -7.171875q-2.140625 -2.453125 -5.359375 -2.453125q-3.25 0 -5.390625 2.4375q-2.140625 2.421875 -2.140625 7.328125zm24.49646 12.796875l0 -35.3125l4.328125 0l0 35.3125l-4.328125 0zm10.959106 0l0 -35.3125l4.328125 0l0 35.3125l-4.328125 0zm28.568542 -8.234375l4.46875 0.546875q-1.046875 3.9375 -3.921875 6.109375q-2.859375 2.15625 -7.3125 2.15625q-5.625 0 -8.90625 -3.453125q-3.28125 -3.453125 -3.28125 -9.703125q0 -6.453125 3.3125 -10.015625q3.328125 -3.5625 8.625 -3.5625q5.140625 0 8.390625 3.5q3.25 3.484375 3.25 9.8125q0 0.390625 -0.03125 1.15625l-19.078125 0q0.25 4.21875 2.390625 6.46875q2.140625 2.234375 5.34375 2.234375q2.390625 0 4.078125 -1.25q1.6875 -1.25 2.671875 -4.0zm-14.234375 -7.015625l14.28125 0q-0.296875 -3.21875 -1.640625 -4.84375q-2.078125 -2.5 -5.375 -2.5q-2.984375 0 -5.015625 2.0q-2.03125 2.0 -2.25 5.34375zm24.105835 15.25l0 -25.578125l3.90625 0l0 3.875q1.484375 -2.71875 2.75 -3.578125q1.265625 -0.875 2.78125 -0.875q2.203125 0 4.453125 1.390625l-1.484375 4.03125q-1.59375 -0.9375 -3.1875 -0.9375q-1.421875 0 -2.546875 0.859375q-1.125 0.84375 -1.609375 2.359375q-0.734375 2.3125 -0.734375 5.0625l0 13.390625l-4.328125 0z" fill-rule="nonzero"/><path fill="#f6b26b" d="m98.43569 396.01312l90.42782 0l-45.213898 124.76904z" fill-rule="evenodd"/><path fill="#f6b26b" d="m95.57087 474.46457l0 0c0 -27.50116 21.525581 -49.795288 48.078743 -49.795288l0 0c12.7512665 0 24.980286 5.246277 33.996796 14.584717c9.01651 9.338409 14.08194 22.004028 14.08194 35.21057l0 0c0 27.50116 -21.525589 49.795258 -48.078735 49.795258l0 0c-26.553162 0 -48.078743 -22.294098 -48.078743 -49.795258z" fill-rule="evenodd"/><path stroke="#f6b26b" stroke-width="1.0" stroke-linejoin="round" stroke-linecap="butt" d="m95.57087 474.46457l0 0c0 -27.50116 21.525581 -49.795288 48.078743 -49.795288l0 0c12.7512665 0 24.980286 5.246277 33.996796 14.584717c9.01651 9.338409 14.08194 22.004028 14.08194 35.21057l0 0c0 27.50116 -21.525589 49.795258 -48.078735 49.795258l0 0c-26.553162 0 -48.078743 -22.294098 -48.078743 -49.795258z" fill-rule="evenodd"/><path fill="#f6b26b" d="m108.16929 365.83728l0 0c0 -16.846863 15.885078 -30.503937 35.480324 -30.503937c19.59523 0 35.480316 13.657074 35.480316 30.503937c0 16.846863 -15.885086 30.503937 -35.480316 30.503937c-19.595245 0 -35.480324 -13.657074 -35.480324 -30.503937z" fill-rule="evenodd"/><path fill="#c48e55" d="m128.5869 356.71432c0 -1.7548828 1.6546936 -3.1774902 3.6958618 -3.1774902c2.0411682 0 3.695877 1.4226074 3.695877 3.1774902c0 1.7548828 -1.6547089 3.1774902 -3.695877 3.1774902c-2.0411682 0 -3.6958618 -1.4226074 -3.6958618 -3.1774902m22.733688 0c0 -1.7548828 1.6546936 -3.1774902 3.6958618 -3.1774902c2.0411682 0 3.6958618 1.4226074 3.6958618 3.1774902c0 1.7548828 -1.6546936 3.1774902 -3.6958618 3.1774902c-2.0411682 0 -3.6958618 -1.4226074 -3.6958618 -3.1774902" fill-rule="evenodd"/><path fill="#000000" fill-opacity="0.0" d="m124.419044 379.14023q19.230568 11.354797 38.416206 0" fill-rule="evenodd"/><path fill="#000000" fill-opacity="0.0" d="m108.16929 365.83728l0 0c0 -16.846863 15.885078 -30.503937 35.480324 -30.503937c19.59523 0 35.480316 13.657074 35.480316 30.503937c0 16.846863 -15.885086 30.503937 -35.480316 30.503937c-19.595245 0 -35.480324 -13.657074 -35.480324 -30.503937z" fill-rule="evenodd"/><path stroke="#f6b26b" stroke-width="1.0" stroke-linejoin="round" stroke-linecap="butt" d="m128.5869 356.71432c0 -1.7548828 1.6546936 -3.1774902 3.6958618 -3.1774902c2.0411682 0 3.695877 1.4226074 3.695877 3.1774902c0 1.7548828 -1.6547089 3.1774902 -3.695877 3.1774902c-2.0411682 0 -3.6958618 -1.4226074 -3.6958618 -3.1774902m22.733688 0c0 -1.7548828 1.6546936 -3.1774902 3.6958618 -3.1774902c2.0411682 0 3.6958618 1.4226074 3.6958618 3.1774902c0 1.7548828 -1.6546936 3.1774902 -3.6958618 3.1774902c-2.0411682 0 -3.6958618 -1.4226074 -3.6958618 -3.1774902" fill-rule="evenodd"/><path stroke="#f6b26b" stroke-width="1.0" stroke-linejoin="round" stroke-linecap="butt" d="m124.419044 379.14023q19.230568 11.354797 38.416206 0" fill-rule="evenodd"/><path stroke="#f6b26b" stroke-width="1.0" stroke-linejoin="round" stroke-linecap="butt" d="m108.16929 365.83728l0 0c0 -16.846863 15.885078 -30.503937 35.480324 -30.503937c19.59523 0 35.480316 13.657074 35.480316 30.503937c0 16.846863 -15.885086 30.503937 -35.480316 30.503937c-19.595245 0 -35.480324 -13.657074 -35.480324 -30.503937z" fill-rule="evenodd"/><path fill="#000000" fill-opacity="0.0" d="m109.6528 509.67514l-2.0472412 36.346466" fill-rule="evenodd"/><path stroke="#000000" stroke-width="3.0" stroke-linejoin="round" stroke-linecap="butt" d="m109.6528 509.67514l-2.0472412 36.346466" fill-rule="evenodd"/><path fill="#000000" fill-opacity="0.0" d="m177.64641 509.67514l-0.22047424 37.480316" fill-rule="evenodd"/><path stroke="#000000" stroke-width="3.0" stroke-linejoin="round" stroke-linecap="butt" d="m177.64641 509.67514l-0.22047424 37.480316" fill-rule="evenodd"/><path fill="#cfe2f3" d="m86.99475 535.7087l22.645668 0l0 10.299194l-22.645668 0z" fill-rule="evenodd"/><path stroke="#000000" stroke-width="1.0" stroke-linejoin="round" stroke-linecap="butt" d="m86.99475 535.7087l22.645668 0l0 10.299194l-22.645668 0z" fill-rule="evenodd"/><path fill="#cfe2f3" d="m177.4252 537.9974l22.64566 0l0 10.299194l-22.64566 0z" fill-rule="evenodd"/><path stroke="#000000" stroke-width="1.0" stroke-linejoin="round" stroke-linecap="butt" d="m177.4252 537.9974l22.64566 0l0 10.299194l-22.64566 0z" fill-rule="evenodd"/><path fill="#000000" fill-opacity="0.0" d="m99.58793 397.2021l-28.629921 66.39371" fill-rule="evenodd"/><path stroke="#000000" stroke-width="1.0" stroke-linejoin="round" stroke-linecap="butt" d="m99.58793 397.2021l-28.629921 66.39371" fill-rule="evenodd"/><path fill="#000000" fill-opacity="0.0" d="m187.72704 399.4908l27.46457 50.362213" fill-rule="evenodd"/><path stroke="#000000" stroke-width="1.0" stroke-linejoin="round" stroke-linecap="butt" d="m187.72704 399.4908l27.46457 50.362213" fill-rule="evenodd"/><path fill="#000000" fill-opacity="0.0" d="m127.05774 346.83728c0 -5.634033 2.9738922 -12.362274 8.013123 -14.881897" fill-rule="evenodd"/><path stroke="#000000" stroke-width="1.0" stroke-linejoin="round" stroke-linecap="butt" d="m127.05774 346.83728c0 -5.634033 2.9738922 -12.362274 8.013123 -14.881897" fill-rule="evenodd"/><path fill="#000000" fill-opacity="0.0" d="m121.33596 351.4147c0.5445404 -2.7239685 1.0464172 -5.528534 2.2887115 -8.013123" fill-rule="evenodd"/><path stroke="#000000" stroke-width="1.0" stroke-linejoin="round" stroke-linecap="butt" d="m121.33596 351.4147c0.5445404 -2.7239685 1.0464172 -5.528534 2.2887115 -8.013123" fill-rule="evenodd"/><path fill="#000000" fill-opacity="0.0" d="m116.755905 353.7034c0 -5.671814 0.052597046 -16.02362 5.724411 -16.02362" fill-rule="evenodd"/><path stroke="#000000" stroke-width="1.0" stroke-linejoin="round" stroke-linecap="butt" d="m116.755905 353.7034c0 -5.671814 0.052597046 -16.02362 5.724411 -16.02362" fill-rule="evenodd"/><path fill="#000000" fill-opacity="0.0" d="m122.48111 352.55905c0 -4.5941772 -0.9102173 -9.625763 1.1443558 -13.734894" fill-rule="evenodd"/><path stroke="#000000" stroke-width="1.0" stroke-linejoin="round" stroke-linecap="butt" d="m122.48111 352.55905c0 -4.5941772 -0.9102173 -9.625763 1.1443558 -13.734894" fill-rule="evenodd"/><path fill="#000000" fill-opacity="0.0" d="m113.32284 354.84778c0.82767487 -3.3106995 3.0526657 -6.1044617 4.577423 -9.157501" fill-rule="evenodd"/><path stroke="#000000" stroke-width="1.0" stroke-linejoin="round" stroke-linecap="butt" d="m113.32284 354.84778c0.82767487 -3.3106995 3.0526657 -6.1044617 4.577423 -9.157501" fill-rule="evenodd"/><path fill="#000000" fill-opacity="0.0" d="m163.68767 350.27036c-0.7627411 -3.8154602 -2.2887115 -7.555298 -2.2887115 -11.4461975" fill-rule="evenodd"/><path stroke="#000000" stroke-width="1.0" stroke-linejoin="round" stroke-linecap="butt" d="m163.68767 350.27036c-0.7627411 -3.8154602 -2.2887115 -7.555298 -2.2887115 -11.4461975" fill-rule="evenodd"/><path fill="#000000" fill-opacity="0.0" d="m168.26772 349.12598c-0.68955994 -3.4494019 -2.2887115 -6.784149 -2.2887115 -10.301819" fill-rule="evenodd"/><path stroke="#000000" stroke-width="1.0" stroke-linejoin="round" stroke-linecap="butt" d="m168.26772 349.12598c-0.68955994 -3.4494019 -2.2887115 -6.784149 -2.2887115 -10.301819" fill-rule="evenodd"/><path fill="#000000" fill-opacity="0.0" d="m172.84514 353.7034c-2.657074 -2.657074 -4.577423 -6.544159 -4.577423 -10.301819" fill-rule="evenodd"/><path stroke="#000000" stroke-width="1.0" stroke-linejoin="round" stroke-linecap="butt" d="m172.84514 353.7034c-2.657074 -2.657074 -4.577423 -6.544159 -4.577423 -10.301819" fill-rule="evenodd"/><path fill="#000000" fill-opacity="0.0" d="m172.84514 351.4147c-0.8868103 -5.3229065 -2.2887115 -10.629974 -2.2887115 -16.026245" fill-rule="evenodd"/><path stroke="#000000" stroke-width="1.0" stroke-linejoin="round" stroke-linecap="butt" d="m172.84514 351.4147c-0.8868103 -5.3229065 -2.2887115 -10.629974 -2.2887115 -16.026245" fill-rule="evenodd"/><path fill="#000000" fill-opacity="0.0" d="m168.26772 355.99475c0 -5.7237244 -6.2545624 -9.690247 -10.301834 -13.737518" fill-rule="evenodd"/><path stroke="#000000" stroke-width="1.0" stroke-linejoin="round" stroke-linecap="butt" d="m168.26772 355.99475c0 -5.7237244 -6.2545624 -9.690247 -10.301834 -13.737518" fill-rule="evenodd"/><path fill="#000000" fill-opacity="0.0" d="m122.480316 347.98163c1.9072037 -3.815857 1.4584656 -11.4461975 5.724411 -11.4461975" fill-rule="evenodd"/><path stroke="#000000" stroke-width="1.0" stroke-linejoin="round" stroke-linecap="butt" d="m122.480316 347.98163c1.9072037 -3.815857 1.4584656 -11.4461975 5.724411 -11.4461975" fill-rule="evenodd"/><path fill="#999999" d="m126.30617 392.96082l0 0c-0.34145355 -5.3560486 0.7796097 -10.658234 2.887497 -13.656616c2.1078796 -2.998352 4.8328857 -3.1671143 7.0187073 -0.43460083l0 0c0.774292 -3.1142273 2.1914673 -5.264374 3.8228455 -5.80011c1.6313934 -0.53570557 3.2853851 0.60595703 4.461685 3.0796814l0 0c0.6595917 -2.823578 1.9547119 -4.720642 3.4257812 -5.0180664c1.4710846 -0.2973938 2.909912 1.0469666 3.8059235 3.5560303l0 0c1.1916504 -2.992981 3.0876007 -4.2531433 4.867462 -3.235199c1.7798462 1.0179138 3.123932 4.1311035 3.450653 7.9924316l0 0c1.4599762 0.8500061 2.6761017 3.0108643 3.3341827 5.924286c0.6580658 2.913391 0.6935272 6.293518 0.097229004 9.26709l0 0c1.4376373 3.9938354 1.773941 9.315552 0.88339233 13.979187c-0.89053345 4.663666 -2.8741455 7.968567 -5.210556 8.6813965c-0.016464233 4.377014 -1.1410828 8.393311 -2.940384 10.500824c-1.7993164 2.1075134 -3.9923248 1.9771423 -5.7337646 -0.3408203l0 0c-0.74176025 5.242218 -2.8295746 9.099396 -5.3614197 9.90506c-2.531845 0.8056946 -5.0538483 -1.5845337 -6.47641 -6.1380005l0 0c-1.7437592 2.2444153 -3.8361206 2.8909607 -5.8050995 1.7937927c-1.9689789 -1.0971985 -3.6487122 -3.8456726 -4.6602783 -7.625458l0 0c-1.7819061 0.44506836 -3.5047607 -1.5254822 -4.3135223 -4.933716c-0.8087616 -3.4082031 -0.5312576 -7.5285645 0.6947861 -10.316132l0 0c-1.589508 -1.9968872 -2.400566 -5.9593506 -2.0102463 -9.821136c0.39031982 -3.8618164 1.89357 -6.7478027 3.7258606 -7.1531067z" fill-rule="evenodd"/><path fill="#000000" fill-opacity="0.0" d="m124.55533 410.14148l0 0c0.75009155 0.9423523 1.6166229 1.369812 2.4832458 1.2250061m1.1351013 14.0252075c0.37268066 -0.09310913 0.7379761 -0.29022217 1.0864716 -0.5863037m9.378387 6.417694c-0.26213074 -0.8390198 -0.48158264 -1.7355652 -0.6546478 -2.674408m12.49292 -1.092804l0 0c0.13523865 -0.955719 0.22285461 -1.9393616 0.26139832 -2.9345398m8.41243 -7.225067c0.017532349 -4.6600037 -1.2224731 -8.926727 -3.1874084 -10.967529m7.5145264 -11.692566c-0.31822205 1.586792 -0.80400085 2.9944458 -1.419281 4.112549m-2.0118256 -19.304352l0 0c0.054214478 0.6408081 0.079315186 1.2912292 0.07493591 1.9422607m-8.392899 -6.69928l0 0c-0.29727173 0.74658203 -0.54216003 1.5809021 -0.7270813 2.4769592m-6.504715 -1.0152893l0 0c-0.15840149 0.6781311 -0.27670288 1.3957214 -0.35214233 2.1362m-7.932495 0.58432007l0 0c0.4625244 0.57818604 0.8904114 1.2741089 1.2742767 2.0724792m-11.180359 12.018799l0 0c0.047058105 0.7382202 0.121421814 1.4673157 0.22238159 2.180481" fill-rule="evenodd"/><path stroke="#999999" stroke-width="1.0" stroke-linejoin="round" stroke-linecap="butt" d="m126.30617 392.96082l0 0c-0.34145355 -5.3560486 0.7796097 -10.658234 2.887497 -13.656616c2.1078796 -2.998352 4.8328857 -3.1671143 7.0187073 -0.43460083l0 0c0.774292 -3.1142273 2.1914673 -5.264374 3.8228455 -5.80011c1.6313934 -0.53570557 3.2853851 0.60595703 4.461685 3.0796814l0 0c0.6595917 -2.823578 1.9547119 -4.720642 3.4257812 -5.0180664c1.4710846 -0.2973938 2.909912 1.0469666 3.8059235 3.5560303l0 0c1.1916504 -2.992981 3.0876007 -4.2531433 4.867462 -3.235199c1.7798462 1.0179138 3.123932 4.1311035 3.450653 7.9924316l0 0c1.4599762 0.8500061 2.6761017 3.0108643 3.3341827 5.924286c0.6580658 2.913391 0.6935272 6.293518 0.097229004 9.26709l0 0c1.4376373 3.9938354 1.773941 9.315552 0.88339233 13.979187c-0.89053345 4.663666 -2.8741455 7.968567 -5.210556 8.6813965c-0.016464233 4.377014 -1.1410828 8.393311 -2.940384 10.500824c-1.7993164 2.1075134 -3.9923248 1.9771423 -5.7337646 -0.3408203l0 0c-0.74176025 5.242218 -2.8295746 9.099396 -5.3614197 9.90506c-2.531845 0.8056946 -5.0538483 -1.5845337 -6.47641 -6.1380005l0 0c-1.7437592 2.2444153 -3.8361206 2.8909607 -5.8050995 1.7937927c-1.9689789 -1.0971985 -3.6487122 -3.8456726 -4.6602783 -7.625458l0 0c-1.7819061 0.44506836 -3.5047607 -1.5254822 -4.3135223 -4.933716c-0.8087616 -3.4082031 -0.5312576 -7.5285645 0.6947861 -10.316132l0 0c-1.589508 -1.9968872 -2.400566 -5.9593506 -2.0102463 -9.821136c0.39031982 -3.8618164 1.89357 -6.7478027 3.7258606 -7.1531067z" fill-rule="evenodd"/><path stroke="#999999" stroke-width="1.0" stroke-linejoin="round" stroke-linecap="butt" d="m124.55533 410.14148l0 0c0.75009155 0.9423523 1.6166229 1.369812 2.4832458 1.2250061m1.1351013 14.0252075c0.37268066 -0.09310913 0.7379761 -0.29022217 1.0864716 -0.5863037m9.378387 6.417694c-0.26213074 -0.8390198 -0.48158264 -1.7355652 -0.6546478 -2.674408m12.49292 -1.092804l0 0c0.13523865 -0.955719 0.22285461 -1.9393616 0.26139832 -2.9345398m8.41243 -7.225067c0.017532349 -4.6600037 -1.2224731 -8.926727 -3.1874084 -10.967529m7.5145264 -11.692566c-0.31822205 1.586792 -0.80400085 2.9944458 -1.419281 4.112549m-2.0118256 -19.304352l0 0c0.054214478 0.6408081 0.079315186 1.2912292 0.07493591 1.9422607m-8.392899 -6.69928l0 0c-0.29727173 0.74658203 -0.54216003 1.5809021 -0.7270813 2.4769592m-6.504715 -1.0152893l0 0c-0.15840149 0.6781311 -0.27670288 1.3957214 -0.35214233 2.1362m-7.932495 0.58432007l0 0c0.4625244 0.57818604 0.8904114 1.2741089 1.2742767 2.0724792m-11.180359 12.018799l0 0c0.047058105 0.7382202 0.121421814 1.4673157 0.22238159 2.180481" fill-rule="evenodd"/><path fill="#999999" d="m118.93766 380.24152l0 0c-0.4864502 -2.932312 1.1106644 -5.835083 4.1136093 -7.4766235c3.0029526 -1.6415405 6.8851013 -1.7339172 9.9991 -0.23794556l0 0c1.1030731 -1.704956 3.1220093 -2.8821106 5.4461365 -3.1753845c2.3241272 -0.29330444 4.6804657 0.33172607 6.356247 1.6860046l0 0c0.939682 -1.5458069 2.7847595 -2.5844116 4.880493 -2.747223c2.0957336 -0.16281128 4.1455383 0.57318115 5.422043 1.9468079l0 0c1.6976624 -1.6385498 4.3986816 -2.3284607 6.934326 -1.7711792c2.5356293 0.5572815 4.45047 2.2616577 4.915924 4.375641l0 0c2.0799255 0.46536255 3.8124542 1.6483765 4.7499695 3.2433777c0.93751526 1.5950012 0.9880371 3.4455566 0.13851929 5.0734863l0 0c2.048111 2.1865234 2.5272217 5.100006 1.2585144 7.6532288c-1.268692 2.5532227 -4.094589 4.3625793 -7.423111 4.752838c-0.023468018 2.3962708 -1.6256409 4.595093 -4.1889954 5.7489014c-2.5633392 1.1538086 -5.6875763 1.082428 -8.168488 -0.18658447l0 0c-1.0567322 2.8699646 -4.0310974 4.981659 -7.6380463 5.42276c-3.606964 0.44107056 -7.19989 -0.8674927 -9.226501 -3.3604126l0 0c-2.4842224 1.2287598 -5.4650726 1.5827332 -8.270142 0.98205566c-2.8050613 -0.6006775 -5.1980667 -2.1054077 -6.639183 -4.174713l0 0c-2.5385513 0.24365234 -4.9929886 -0.83517456 -6.145172 -2.7010803c-1.1521835 -1.8659058 -0.75684357 -4.121704 0.98981476 -5.6477966l0 0c-2.2644577 -1.0932617 -3.4199219 -3.2626038 -2.863861 -5.376831c0.5560608 -2.1142273 2.6976395 -3.6942139 5.3079834 -3.9161072z" fill-rule="evenodd"/><path fill="#000000" fill-opacity="0.0" d="m116.44336 389.64746l0 0c1.0686035 0.51589966 2.303093 0.74990845 3.537712 0.6706543m1.6170883 7.678406c0.5309372 -0.050964355 1.0513535 -0.15887451 1.5478287 -0.3209839m13.360756 3.5135193c-0.37342834 -0.4593506 -0.68608093 -0.9501953 -0.93263245 -1.4641724m17.797821 -0.5982666l0 0c0.19265747 -0.5232544 0.31748962 -1.0617676 0.37239075 -1.6065979m11.984619 -3.955536c0.024978638 -2.5512085 -1.7415771 -4.8871155 -4.5408936 -6.0043945m10.705429 -6.401367c-0.45333862 0.8687134 -1.145401 1.6393738 -2.0219574 2.2514954m-2.8660889 -10.5686035l0 0c0.07723999 0.35083008 0.11299133 0.7069092 0.10673523 1.063324m-11.956787 -3.6676636l0 0c-0.42349243 0.40875244 -0.77238464 0.86550903 -1.0358276 1.3560791m-9.2668 -0.55584717l0 0c-0.22567749 0.37124634 -0.39421082 0.7640991 -0.5016937 1.1695251m-11.300873 0.31988525l0 0c0.6589203 0.31652832 1.2685089 0.6975403 1.8153839 1.134613m-15.92791 6.5799866l0 0c0.06704712 0.4041443 0.17298126 0.8033142 0.31681824 1.1937561" fill-rule="evenodd"/><path stroke="#999999" stroke-width="1.0" stroke-linejoin="round" stroke-linecap="butt" d="m118.93766 380.24152l0 0c-0.4864502 -2.932312 1.1106644 -5.835083 4.1136093 -7.4766235c3.0029526 -1.6415405 6.8851013 -1.7339172 9.9991 -0.23794556l0 0c1.1030731 -1.704956 3.1220093 -2.8821106 5.4461365 -3.1753845c2.3241272 -0.29330444 4.6804657 0.33172607 6.356247 1.6860046l0 0c0.939682 -1.5458069 2.7847595 -2.5844116 4.880493 -2.747223c2.0957336 -0.16281128 4.1455383 0.57318115 5.422043 1.9468079l0 0c1.6976624 -1.6385498 4.3986816 -2.3284607 6.934326 -1.7711792c2.5356293 0.5572815 4.45047 2.2616577 4.915924 4.375641l0 0c2.0799255 0.46536255 3.8124542 1.6483765 4.7499695 3.2433777c0.93751526 1.5950012 0.9880371 3.4455566 0.13851929 5.0734863l0 0c2.048111 2.1865234 2.5272217 5.100006 1.2585144 7.6532288c-1.268692 2.5532227 -4.094589 4.3625793 -7.423111 4.752838c-0.023468018 2.3962708 -1.6256409 4.595093 -4.1889954 5.7489014c-2.5633392 1.1538086 -5.6875763 1.082428 -8.168488 -0.18658447l0 0c-1.0567322 2.8699646 -4.0310974 4.981659 -7.6380463 5.42276c-3.606964 0.44107056 -7.19989 -0.8674927 -9.226501 -3.3604126l0 0c-2.4842224 1.2287598 -5.4650726 1.5827332 -8.270142 0.98205566c-2.8050613 -0.6006775 -5.1980667 -2.1054077 -6.639183 -4.174713l0 0c-2.5385513 0.24365234 -4.9929886 -0.83517456 -6.145172 -2.7010803c-1.1521835 -1.8659058 -0.75684357 -4.121704 0.98981476 -5.6477966l0 0c-2.2644577 -1.0932617 -3.4199219 -3.2626038 -2.863861 -5.376831c0.5560608 -2.1142273 2.6976395 -3.6942139 5.3079834 -3.9161072z" fill-rule="evenodd"/><path stroke="#999999" stroke-width="1.0" stroke-linejoin="round" stroke-linecap="butt" d="m116.44336 389.64746l0 0c1.0686035 0.51589966 2.303093 0.74990845 3.537712 0.6706543m1.6170883 7.678406c0.5309372 -0.050964355 1.0513535 -0.15887451 1.5478287 -0.3209839m13.360756 3.5135193c-0.37342834 -0.4593506 -0.68608093 -0.9501953 -0.93263245 -1.4641724m17.797821 -0.5982666l0 0c0.19265747 -0.5232544 0.31748962 -1.0617676 0.37239075 -1.6065979m11.984619 -3.955536c0.024978638 -2.5512085 -1.7415771 -4.8871155 -4.5408936 -6.0043945m10.705429 -6.401367c-0.45333862 0.8687134 -1.145401 1.6393738 -2.0219574 2.2514954m-2.8660889 -10.5686035l0 0c0.07723999 0.35083008 0.11299133 0.7069092 0.10673523 1.063324m-11.956787 -3.6676636l0 0c-0.42349243 0.40875244 -0.77238464 0.86550903 -1.0358276 1.3560791m-9.2668 -0.55584717l0 0c-0.22567749 0.37124634 -0.39421082 0.7640991 -0.5016937 1.1695251m-11.300873 0.31988525l0 0c0.6589203 0.31652832 1.2685089 0.6975403 1.8153839 1.134613m-15.92791 6.5799866l0 0c0.06704712 0.4041443 0.17298126 0.8033142 0.31681824 1.1937561" fill-rule="evenodd"/><path fill="#000000" fill-opacity="0.0" d="m130.49344 383.46457c8.402359 0 17.665802 2.6132812 25.181107 -1.1443481" fill-rule="evenodd"/><path stroke="#000000" stroke-width="1.0" stroke-linejoin="round" stroke-linecap="butt" d="m130.49344 383.46457c8.402359 0 17.665802 2.6132812 25.181107 -1.1443481" fill-rule="evenodd"/><path fill="#000000" fill-opacity="0.0" d="m224.35695 405.2152l212.9134 -4.566925" fill-rule="evenodd"/><path stroke="#000000" stroke-width="1.0" stroke-linejoin="round" stroke-linecap="butt" d="m224.35695 405.2152l206.91478 -4.438263" fill-rule="evenodd"/><path fill="#000000" stroke="#000000" stroke-width="1.0" stroke-linecap="butt" d="m431.30713 402.4283l4.501648 -1.7486572l-4.5724792 -1.5540466z" fill-rule="evenodd"/><path fill="#000000" fill-opacity="0.0" d="m454.4357 339.9685l-62.960632 -108.755905" fill-rule="evenodd"/><path stroke="#000000" stroke-width="1.0" stroke-linejoin="round" stroke-linecap="butt" d="m454.4357 339.9685l-59.95453 -103.56328" fill-rule="evenodd"/><path fill="#000000" stroke="#000000" stroke-width="1.0" stroke-linecap="butt" d="m395.91064 235.57768l-3.7031555 -3.0998993l0.84420776 4.7549896z" fill-rule="evenodd"/><path fill="#000000" fill-opacity="0.0" d="m459.01312 226.64568l62.960632 108.755905" fill-rule="evenodd"/><path stroke="#000000" stroke-width="1.0" stroke-linejoin="round" stroke-linecap="butt" d="m459.01312 226.64568l59.95453 103.56328" fill-rule="evenodd"/><path fill="#000000" stroke="#000000" stroke-width="1.0" stroke-linecap="butt" d="m517.5382 331.0365l3.703125 3.099884l-0.84417725 -4.7549744z" fill-rule="evenodd"/><path fill="#000000" fill-opacity="0.0" d="m697.1076 337.67978l37.763794 -107.590546" fill-rule="evenodd"/><path stroke="#000000" stroke-width="1.0" stroke-linejoin="round" stroke-linecap="butt" d="m697.1076 337.67978l35.776672 -101.92914" fill-rule="evenodd"/><path fill="#000000" stroke="#000000" stroke-width="1.0" stroke-linecap="butt" d="m734.4428 236.29767l-0.055603027 -4.8290253l-3.0614624 3.7349548z" fill-rule="evenodd"/><path fill="#000000" fill-opacity="0.0" d="m819.58795 228.93439l-48.06299 111.02362" fill-rule="evenodd"/><path stroke="#000000" stroke-width="1.0" stroke-linejoin="round" stroke-linecap="butt" d="m819.58795 228.93439l-45.67932 105.517426" fill-rule="evenodd"/><path fill="#000000" stroke="#000000" stroke-width="1.0" stroke-linecap="butt" d="m772.3928 333.79562l-0.28710938 4.820801l3.3186646 -3.5084229z" fill-rule="evenodd"/><path fill="#000000" fill-opacity="0.0" d="m438.40945 454.4357l-204.8819 4.566925" fill-rule="evenodd"/><path stroke="#000000" stroke-width="1.0" stroke-linejoin="round" stroke-linecap="butt" d="m438.40945 454.4357l-198.88339 4.4332275" fill-rule="evenodd"/><path fill="#000000" stroke="#000000" stroke-width="1.0" stroke-linecap="butt" d="m239.48926 457.2176l-4.5001526 1.7524414l4.5737762 1.5502014z" fill-rule="evenodd"/></g></svg>