<svg width="4377" height="2376" xmlns="http://www.w3.org/2000/svg" xmlns:xlink="http://www.w3.org/1999/xlink" xml:space="preserve" overflow="hidden"><defs><clipPath id="clip0"><rect x="12" y="50" width="4377" height="2376"/></clipPath><clipPath id="clip1"><rect x="3931" y="1919" width="331" height="331"/></clipPath><clipPath id="clip2"><rect x="3931" y="1919" width="331" height="331"/></clipPath><clipPath id="clip3"><rect x="3931" y="1919" width="331" height="331"/></clipPath></defs><g clip-path="url(#clip0)" transform="translate(-12 -50)"><rect x="15.5" y="53.5001" width="4370" height="2369" stroke="#000000" stroke-width="6.875" stroke-miterlimit="8" fill="#FFFFFF"/><path d="M102.5 857.501C102.5 843.693 113.693 832.5 127.501 832.5L787.499 832.5C801.307 832.5 812.5 843.693 812.5 857.501L812.5 957.5C812.5 971.307 801.307 982.501 787.499 982.501L127.501 982.501C113.693 982.501 102.5 971.307 102.5 957.5Z" stroke="#2F528F" stroke-width="4.58333" stroke-miterlimit="8" fill="#E7E6E6" fill-rule="evenodd"/><text font-family="Arial,Arial_MSFontService,sans-serif" font-weight="400" font-size="73" transform="matrix(1 0 0 1 242.655 932)">API Gateway</text><path d="M771.5 718.5 4117.55 718.5" stroke="#4472C4" stroke-width="4.58333" stroke-miterlimit="8" stroke-dasharray="36.6667 13.75" fill="none" fill-rule="evenodd"/><path d="M762.5 1111.5 4108.55 1111.5" stroke="#4472C4" stroke-width="4.58333" stroke-miterlimit="8" stroke-dasharray="36.6667 13.75" fill="none" fill-rule="evenodd"/><path d="M771.5 1586.5 4117.55 1586.5" stroke="#4472C4" stroke-width="4.58333" stroke-miterlimit="8" stroke-dasharray="36.6667 13.75" fill="none" fill-rule="evenodd"/><path d="M1490.5 407.501C1490.5 393.693 1501.69 382.5 1515.5 382.5L2175.5 382.5C2189.31 382.5 2200.5 393.693 2200.5 407.501L2200.5 507.5C2200.5 521.307 2189.31 532.501 2175.5 532.501L1515.5 532.501C1501.69 532.501 1490.5 521.307 1490.5 507.5Z" stroke="#2F528F" stroke-width="4.58333" stroke-miterlimit="8" fill="#DAE3F3" fill-rule="evenodd"/><rect x="1528" y="391" width="634" height="133" fill="#DAE3F3"/><text font-family="Arial,Arial_MSFontService,sans-serif" font-weight="400" font-size="83" transform="matrix(1 0 0 1 1668.6 488)">Volunteer</text><path d="M2625.5 407.501C2625.5 393.693 2636.69 382.5 2650.5 382.5L3310.5 382.5C3324.31 382.5 3335.5 393.693 3335.5 407.501L3335.5 507.5C3335.5 521.307 3324.31 532.501 3310.5 532.501L2650.5 532.501C2636.69 532.501 2625.5 521.307 2625.5 507.5Z" stroke="#2F528F" stroke-width="4.58333" stroke-miterlimit="8" fill="#DAE3F3" fill-rule="evenodd"/><rect x="2663" y="391" width="634" height="133" fill="#DAE3F3"/><text font-family="Arial,Arial_MSFontService,sans-serif" font-weight="400" font-size="83" transform="matrix(1 0 0 1 2746.27 488)">Organization</text><path d="M934.5 1767.5C934.5 1753.14 946.141 1741.5 960.501 1741.5L1617.5 1741.5C1631.86 1741.5 1643.5 1753.14 1643.5 1767.5L1643.5 1871.5C1643.5 1885.86 1631.86 1897.5 1617.5 1897.5L960.501 1897.5C946.141 1897.5 934.5 1885.86 934.5 1871.5Z" stroke="#2F528F" stroke-width="4.58333" stroke-miterlimit="8" fill="#DAE3F3" fill-rule="evenodd"/><rect x="971" y="1750" width="635" height="139" fill="#DAE3F3"/><text font-family="Arial,Arial_MSFontService,sans-serif" font-weight="400" font-size="83" transform="matrix(1 0 0 1 1011.21 1846)">Business Logic</text><path d="M2389.5 1766.5C2389.5 1752.69 2400.69 1741.5 2414.5 1741.5L2947.5 1741.5C2961.31 1741.5 2972.5 1752.69 2972.5 1766.5L2972.5 1866.5C2972.5 1880.31 2961.31 1891.5 2947.5 1891.5L2414.5 1891.5C2400.69 1891.5 2389.5 1880.31 2389.5 1866.5Z" stroke="#2F528F" stroke-width="4.58333" stroke-miterlimit="8" fill="#DAE3F3" fill-rule="evenodd"/><rect x="2420" y="1750" width="521" height="133" fill="#DAE3F3"/><text font-family="Arial,Arial_MSFontService,sans-serif" font-weight="400" font-size="83" transform="matrix(1 0 0 1 2460.38 1846)">Registration</text><path d="M3014.5 1766.33C3014.5 1752.62 3025.62 1741.5 3039.33 1741.5L3699.67 1741.5C3713.38 1741.5 3724.5 1752.62 3724.5 1766.33L3724.5 1865.67C3724.5 1879.38 3713.38 1890.5 3699.67 1890.5L3039.33 1890.5C3025.62 1890.5 3014.5 1879.38 3014.5 1865.67Z" stroke="#2F528F" stroke-width="4.58333" stroke-miterlimit="8" fill="#DAE3F3" fill-rule="evenodd"/><rect x="3051" y="1749" width="635" height="134" fill="#DAE3F3"/><text font-family="Arial,Arial_MSFontService,sans-serif" font-weight="400" font-size="83" transform="matrix(1 0 0 1 3146.33 1846)">Recruitment</text><path d="M3422.5 1306.5C3422.5 1292.69 3433.69 1281.5 3447.5 1281.5L4107.5 1281.5C4121.31 1281.5 4132.5 1292.69 4132.5 1306.5L4132.5 1406.5C4132.5 1420.31 4121.31 1431.5 4107.5 1431.5L3447.5 1431.5C3433.69 1431.5 3422.5 1420.31 3422.5 1406.5Z" stroke="#2F528F" stroke-width="4.58333" stroke-miterlimit="8" fill="#DAE3F3" fill-rule="evenodd"/><rect x="3460" y="1290" width="634" height="133" fill="#DAE3F3"/><text font-family="Arial,Arial_MSFontService,sans-serif" font-weight="400" font-size="83" transform="matrix(1 0 0 1 3575.19 1386)">Third Party</text><path d="M1083.5 1300.5C1083.5 1286.69 1094.69 1275.5 1108.5 1275.5L1768.5 1275.5C1782.31 1275.5 1793.5 1286.69 1793.5 1300.5L1793.5 1400.5C1793.5 1414.31 1782.31 1425.5 1768.5 1425.5L1108.5 1425.5C1094.69 1425.5 1083.5 1414.31 1083.5 1400.5Z" stroke="#2F528F" stroke-width="4.58333" stroke-miterlimit="8" fill="#DAE3F3" fill-rule="evenodd"/><rect x="1120" y="1284" width="635" height="133" fill="#DAE3F3"/><text font-family="Arial,Arial_MSFontService,sans-serif" font-weight="400" font-size="83" transform="matrix(1 0 0 1 1178.6 1380)">User Interface</text><path d="M2645.5 1311.33C2645.5 1297.62 2656.62 1286.5 2670.33 1286.5L3330.67 1286.5C3344.38 1286.5 3355.5 1297.62 3355.5 1311.33L3355.5 1410.67C3355.5 1424.38 3344.38 1435.5 3330.67 1435.5L2670.33 1435.5C2656.62 1435.5 2645.5 1424.38 2645.5 1410.67Z" stroke="#2F528F" stroke-width="4.58333" stroke-miterlimit="8" fill="#DAE3F3" fill-rule="evenodd"/><rect x="2683" y="1294" width="634" height="134" fill="#DAE3F3"/><text font-family="Arial,Arial_MSFontService,sans-serif" font-weight="400" font-size="83" transform="matrix(1 0 0 1 2800.67 1391)">Embedded</text><path d="M1863.5 1301.5C1863.5 1287.69 1874.69 1276.5 1888.5 1276.5L2547.5 1276.5C2561.31 1276.5 2572.5 1287.69 2572.5 1301.5L2572.5 1401.5C2572.5 1415.31 2561.31 1426.5 2547.5 1426.5L1888.5 1426.5C1874.69 1426.5 1863.5 1415.31 1863.5 1401.5Z" stroke="#2F528F" stroke-width="4.58333" stroke-miterlimit="8" fill="#DAE3F3" fill-rule="evenodd"/><rect x="1900" y="1285" width="635" height="133" fill="#DAE3F3"/><text font-family="Arial,Arial_MSFontService,sans-serif" font-weight="400" font-size="83" transform="matrix(1 0 0 1 2027.29 1381)">Workflows</text><path d="M1689.5 1768.5C1689.5 1754.14 1701.14 1742.5 1715.5 1742.5L2319.5 1742.5C2333.86 1742.5 2345.5 1754.14 2345.5 1768.5L2345.5 1872.5C2345.5 1886.86 2333.86 1898.5 2319.5 1898.5L1715.5 1898.5C1701.14 1898.5 1689.5 1886.86 1689.5 1872.5Z" stroke="#2F528F" stroke-width="4.58333" stroke-miterlimit="8" fill="#DAE3F3" fill-rule="evenodd"/><rect x="1723" y="1751" width="588" height="139" fill="#DAE3F3"/><text font-family="Arial,Arial_MSFontService,sans-serif" font-weight="400" font-size="83" transform="matrix(1 0 0 1 1769.56 1847)">Manage Data</text><g clip-path="url(#clip1)"><g clip-path="url(#clip2)"><g clip-path="url(#clip3)"><path d="M4192.25 1980.88C4192.25 1996.06 4149.16 2008.38 4096 2008.38 4042.84 2008.38 3999.75 1996.06 3999.75 1980.88 3999.75 1965.69 4042.84 1953.38 4096 1953.38 4149.16 1953.38 4192.25 1965.69 4192.25 1980.88Z"/><path d="M4164.75 2049.62C4160.63 2049.62 4157.88 2046.88 4157.88 2042.75 4157.88 2038.63 4160.63 2035.88 4164.75 2035.88 4168.88 2035.88 4171.62 2038.63 4171.62 2042.75 4171.62 2046.88 4168.88 2049.62 4164.75 2049.62ZM4096 2022.13C4043.06 2022.13 3999.75 2009.75 3999.75 1994.63L3999.75 2049.62C3999.75 2064.75 4043.06 2077.12 4096 2077.12 4148.94 2077.12 4192.25 2064.75 4192.25 2049.62L4192.25 1994.63C4192.25 2009.75 4148.94 2022.13 4096 2022.13Z"/><path d="M4164.75 2118.38C4160.63 2118.38 4157.88 2115.62 4157.88 2111.5 4157.88 2107.38 4160.63 2104.62 4164.75 2104.62 4168.88 2104.62 4171.62 2107.38 4171.62 2111.5 4171.62 2115.62 4168.88 2118.38 4164.75 2118.38ZM4096 2090.88C4043.06 2090.88 3999.75 2078.5 3999.75 2063.38L3999.75 2118.38C3999.75 2133.5 4043.06 2145.88 4096 2145.88 4148.94 2145.88 4192.25 2133.5 4192.25 2118.38L4192.25 2063.38C4192.25 2078.5 4148.94 2090.88 4096 2090.88Z"/><path d="M4164.75 2187.12C4160.63 2187.12 4157.88 2184.38 4157.88 2180.25 4157.88 2176.12 4160.63 2173.38 4164.75 2173.38 4168.88 2173.38 4171.62 2176.12 4171.62 2180.25 4171.62 2184.38 4168.88 2187.12 4164.75 2187.12ZM4096 2159.62C4043.06 2159.62 3999.75 2147.25 3999.75 2132.12L3999.75 2187.12C3999.75 2202.25 4043.06 2214.62 4096 2214.62 4148.94 2214.62 4192.25 2202.25 4192.25 2187.12L4192.25 2132.12C4192.25 2147.25 4148.94 2159.62 4096 2159.62Z"/></g></g></g><text font-family="Calibri,Calibri_MSFontService,sans-serif" font-weight="400" font-size="83" transform="matrix(1 0 0 1 3682.9 1686)">Input</text><text font-family="Calibri,Calibri_MSFontService,sans-serif" font-weight="400" font-size="83" transform="matrix(1 0 0 1 4058.52 1677)">Retrieve</text><path d="M4068.05 1885.71 3972.12 1454.62 3978.83 1453.12 4074.76 1884.22ZM3963.05 1461.33 3970.5 1431.5 3989.9 1455.36Z" fill="#4472C4"/><path d="M3875.86 1428.76 3970.21 1858.61 3963.5 1860.08 3869.14 1430.24ZM3979.3 1851.92 3971.77 1881.73 3952.44 1857.82Z" fill="#4472C4"/><path d="M1282.5 855.5C1282.5 841.693 1293.69 830.5 1307.5 830.5L3582.5 830.5C3596.31 830.5 3607.5 841.693 3607.5 855.5L3607.5 955.5C3607.5 969.307 3596.31 980.5 3582.5 980.5L1307.5 980.5C1293.69 980.5 1282.5 969.307 1282.5 955.5Z" stroke="#2F528F" stroke-width="4.58333" stroke-miterlimit="8" fill="#DAE3F3" fill-rule="evenodd"/><rect x="1405" y="839" width="2079" height="133" fill="#DAE3F3"/><text font-family="Arial,Arial_MSFontService,sans-serif" font-weight="400" font-size="83" transform="matrix(1 0 0 1 2203.68 936)">API Gateway</text><path d="M3.4375-4.15981e-06 3.43783 275.31-3.43717 275.31-3.4375 4.15981e-06ZM13.7503 270.727 0.000360892 298.227-13.7497 270.727Z" fill="#4472C4" transform="matrix(-1 0 0 1 2980.5 532.5)"/><path d="M3.4375-4.15981e-06 3.43783 275.31-3.43717 275.31-3.4375 4.15981e-06ZM13.7503 270.727 0.000360892 298.227-13.7497 270.727Z" fill="#4472C4" transform="matrix(-1 0 0 1 1850.5 532.5)"/><text font-family="Calibri,Calibri_MSFontService,sans-serif" font-weight="400" font-size="83" transform="matrix(1 0 0 1 3932.78 2333)">Datastore</text><path d="M2444.5 980.5 2444.5 1156.6" stroke="#4472C4" stroke-width="6.875" stroke-miterlimit="8" fill="none" fill-rule="evenodd"/><path d="M1436.5 1156.5 3777.63 1160.34" stroke="#4472C4" stroke-width="6.875" stroke-miterlimit="8" fill="none" fill-rule="evenodd"/><path d="M1438.5 1156.5 1438.5 1275.47" stroke="#4472C4" stroke-width="6.875" stroke-miterlimit="8" fill="none" fill-rule="evenodd"/><path d="M2217.5 1156.5 2217.5 1275.47" stroke="#4472C4" stroke-width="6.875" stroke-miterlimit="8" fill="none" fill-rule="evenodd"/><path d="M2997.5 1158.5 3000.12 1285.63" stroke="#4472C4" stroke-width="6.875" stroke-miterlimit="8" fill="none" fill-rule="evenodd"/><path d="M3772.5 1161.5 3772.5 1280.47" stroke="#4472C4" stroke-width="6.875" stroke-miterlimit="8" fill="none" fill-rule="evenodd"/><path d="M1316.5 1650.5 3355.95 1656.54" stroke="#4472C4" stroke-width="6.875" stroke-miterlimit="8" fill="none" fill-rule="evenodd"/><path d="M1436.5 1430.5 1436.5 1549.47" stroke="#4472C4" stroke-width="6.875" stroke-miterlimit="8" fill="none" fill-rule="evenodd"/><path d="M2217.5 1426.5 2217.5 1545.47" stroke="#4472C4" stroke-width="6.875" stroke-miterlimit="8" fill="none" fill-rule="evenodd"/><path d="M3002.5 1435.5 3002.5 1554.47" stroke="#4472C4" stroke-width="6.875" stroke-miterlimit="8" fill="none" fill-rule="evenodd"/><path d="M3777.5 1435.5 3777.5 1554.47" stroke="#4472C4" stroke-width="6.875" stroke-miterlimit="8" fill="none" fill-rule="evenodd"/><path d="M1436.5 1548.5 3777.63 1552.34" stroke="#4472C4" stroke-width="6.875" stroke-miterlimit="8" fill="none" fill-rule="evenodd"/><path d="M2617.5 1545.5 2617.5 1657.21" stroke="#4472C4" stroke-width="6.875" stroke-miterlimit="8" fill="none" fill-rule="evenodd"/><path d="M2617.5 1656.5 2618.52 1744.54" stroke="#4472C4" stroke-width="6.875" stroke-miterlimit="8" fill="none" fill-rule="evenodd"/><path d="M1317.5 1653.5 1318.52 1741.54" stroke="#4472C4" stroke-width="6.875" stroke-miterlimit="8" fill="none" fill-rule="evenodd"/><path d="M1964.5 1653.5 1965.52 1741.54" stroke="#4472C4" stroke-width="6.875" stroke-miterlimit="8" fill="none" fill-rule="evenodd"/><path d="M3352.5 1656.5 3353.52 1744.54" stroke="#4472C4" stroke-width="6.875" stroke-miterlimit="8" fill="none" fill-rule="evenodd"/><path d="M102.5 409.501C102.5 395.693 113.693 384.5 127.501 384.5L787.499 384.5C801.307 384.5 812.5 395.693 812.5 409.501L812.5 509.5C812.5 523.308 801.307 534.501 787.499 534.501L127.501 534.501C113.693 534.501 102.5 523.308 102.5 509.5Z" stroke="#2F528F" stroke-width="4.58333" stroke-miterlimit="8" fill="#E7E6E6" fill-rule="evenodd"/><text font-family="Arial,Arial_MSFontService,sans-serif" font-weight="400" font-size="73" transform="matrix(1 0 0 1 269.295 484)">Consumers</text><path d="M102.5 1304.5C102.5 1290.69 113.693 1279.5 127.501 1279.5L787.499 1279.5C801.307 1279.5 812.5 1290.69 812.5 1304.5L812.5 1404.5C812.5 1418.31 801.307 1429.5 787.499 1429.5L127.501 1429.5C113.693 1429.5 102.5 1418.31 102.5 1404.5Z" stroke="#2F528F" stroke-width="4.58333" stroke-miterlimit="8" fill="#E7E6E6" fill-rule="evenodd"/><text font-family="Arial,Arial_MSFontService,sans-serif" font-weight="400" font-size="73" transform="matrix(1 0 0 1 179.633 1379)">Custom Services</text><path d="M102.5 1750.5C102.5 1736.69 113.693 1725.5 127.501 1725.5L787.499 1725.5C801.307 1725.5 812.5 1736.69 812.5 1750.5L812.5 1850.5C812.5 1864.31 801.307 1875.5 787.499 1875.5L127.501 1875.5C113.693 1875.5 102.5 1864.31 102.5 1850.5Z" stroke="#2F528F" stroke-width="4.58333" stroke-miterlimit="8" fill="#E7E6E6" fill-rule="evenodd"/><text font-family="Arial,Arial_MSFontService,sans-serif" font-weight="400" font-size="73" transform="matrix(1 0 0 1 226.613 1825)">Core Services</text></g></svg>