<svg version="1.1" xmlns="http://www.w3.org/2000/svg" xmlns:xlink="http://www.w3.org/1999/xlink" width="1157" height="1247"><defs/><g><g/><g/><g/><g/><g/><g/><g/><g/><g/><g/><g/><g/><g/><g/><g/><g/><g/><g/><g/><g/><g/><g/><g/><g/><g/><g><rect fill="white" stroke="none" x="0" y="0" width="1157" height="1247"/></g><g><text fill="black" stroke="none" font-family="sans-serif" font-size="16.5pt" font-style="normal" font-weight="normal" text-decoration="normal" x="484.2310207431667" y="24.50280495" text-anchor="start" dominant-baseline="alphabetic" xml:space="preserve">Serve Central MVC</text></g><g><g><path fill="none" stroke="black" paint-order="fill stroke markers" d=" M 8.167601650000003 51.29253836200001 L 267.17321154999996 51.29253836200001 L 267.17321154999996 1238.8618182719995 L 8.167601650000003 1238.8618182719995 L 8.167601650000003 51.29253836200001" stroke-miterlimit="10" stroke-width="1.3612669416666667" stroke-dasharray=""/></g><g><text fill="black" stroke="none" font-family="sans-serif" font-size="11pt" font-style="normal" font-weight="normal" text-decoration="normal" x="116.67040659999998" y="74.161822982" text-anchor="start" dominant-baseline="alphabetic" xml:space="preserve">Actors</text></g><g><path fill="none" stroke="black" paint-order="fill stroke markers" d=" M 327.28588096666664 84.20797301150002 L 569.8510698886668 84.20797301150002 L 569.8510698886668 1238.8618182719995 L 327.28588096666664 1238.8618182719995 L 327.28588096666664 84.20797301150002" stroke-miterlimit="10" stroke-width="1.3612669416666667" stroke-dasharray=""/></g><g><text fill="black" stroke="none" font-family="sans-serif" font-size="11pt" font-style="normal" font-weight="normal" text-decoration="normal" x="429.0684754276667" y="107.07725763150002" text-anchor="start" dominant-baseline="alphabetic" xml:space="preserve">Views</text></g><g><path fill="none" stroke="black" paint-order="fill stroke markers" d=" M 586.1862731886666 50.394102180500006 L 891.563491103 50.394102180500006 L 891.563491103 1238.8618182719995 L 586.1862731886666 1238.8618182719995 L 586.1862731886666 50.394102180500006" stroke-miterlimit="10" stroke-width="1.3612669416666667" stroke-dasharray=""/></g><g><text fill="black" stroke="none" font-family="sans-serif" font-size="11pt" font-style="normal" font-weight="normal" text-decoration="normal" x="707.3748821458333" y="73.2633868005" text-anchor="start" dominant-baseline="alphabetic" xml:space="preserve">Controller</text></g></g><g><path fill="none" stroke="black" paint-order="fill stroke markers" d=" M 46.3352033 167.272481792 L 46.3352033 1238.8618182719995" stroke-miterlimit="10" stroke-width="1.3612669416666667" stroke-dasharray="12.565541,5.445067766666667"/><path fill="none" stroke="black" paint-order="fill stroke markers" d=" M 126.17040659999999 167.272481792 L 126.17040659999999 1238.8618182719995" stroke-miterlimit="10" stroke-width="1.3612669416666667" stroke-dasharray="12.565541,5.445067766666667"/><path fill="none" stroke="black" paint-order="fill stroke markers" d=" M 217.50560989999997 167.272481792 L 217.50560989999997 1238.8618182719995" stroke-miterlimit="10" stroke-width="1.3612669416666667" stroke-dasharray="12.565541,5.445067766666667"/><path fill="none" stroke="black" paint-order="fill stroke markers" d=" M 365.67717819716665 167.272481792 L 365.67717819716665 1238.8618182719995" stroke-miterlimit="10" stroke-width="1.3612669416666667" stroke-dasharray="12.565541,5.445067766666667"/><path fill="none" stroke="black" paint-order="fill stroke markers" d=" M 486.9597726581667 167.272481792 L 486.9597726581667 1238.8618182719995" stroke-miterlimit="10" stroke-width="1.3612669416666667" stroke-dasharray="12.565541,5.445067766666667"/><path fill="none" stroke="black" paint-order="fill stroke markers" d=" M 623.8538748386667 167.272481792 L 623.8538748386667 1238.8618182719995" stroke-miterlimit="10" stroke-width="1.3612669416666667" stroke-dasharray="12.565541,5.445067766666667"/><path fill="none" stroke="black" paint-order="fill stroke markers" d=" M 722.414416972 167.272481792 L 722.414416972 1238.8618182719995" stroke-miterlimit="10" stroke-width="1.3612669416666667" stroke-dasharray="12.565541,5.445067766666667"/><path fill="none" stroke="black" paint-order="fill stroke markers" d=" M 823.895889453 167.272481792 L 823.895889453 1238.8618182719995" stroke-miterlimit="10" stroke-width="1.3612669416666667" stroke-dasharray="12.565541,5.445067766666667"/><path fill="none" stroke="black" paint-order="fill stroke markers" d=" M 1117.1240332363334 167.272481792 L 1117.1240332363334 1238.8618182719995" stroke-miterlimit="10" stroke-width="1.3612669416666667" stroke-dasharray="12.565541,5.445067766666667"/></g><g><g><path fill="white" stroke="black" paint-order="fill stroke markers" d=" M 55.646269181 98.17457183300003 A 9.311065881 9.311065881 0 1 1 55.64626452546745 98.16526076867086 M 46.3352033 107.48563771400002 L 46.3352033 127.41458574000002 M 34.573856924000005 114.67312716600003 L 58.096549676 114.67312716600003 M 46.3352033 127.41458574000002 L 34.573856924000005 146.03671750200002 M 46.3352033 127.41458574000002 L 58.096549676 146.03671750200002" stroke-miterlimit="10" stroke-width="2.7769845610000004" stroke-dasharray=""/></g><g><g/><text fill="black" stroke="none" font-family="sans-serif" font-size="11pt" font-style="normal" font-weight="normal" text-decoration="normal" x="16.335203300000003" y="162.371920802" text-anchor="start" dominant-baseline="alphabetic" xml:space="preserve">Volunteer</text></g><g><path fill="white" stroke="black" paint-order="fill stroke markers" d=" M 135.481472481 98.17457183300003 A 9.311065881 9.311065881 0 1 1 135.48146782546743 98.16526076867086 M 126.17040659999999 107.48563771400002 L 126.17040659999999 127.41458574000002 M 114.409060224 114.67312716600003 L 137.93175297599998 114.67312716600003 M 126.17040659999999 127.41458574000002 L 114.409060224 146.03671750200002 M 126.17040659999999 127.41458574000002 L 137.93175297599998 146.03671750200002" stroke-miterlimit="10" stroke-width="2.7769845610000004" stroke-dasharray=""/></g><g><g/><text fill="black" stroke="none" font-family="sans-serif" font-size="11pt" font-style="normal" font-weight="normal" text-decoration="normal" x="92.67040659999999" y="162.371920802" text-anchor="start" dominant-baseline="alphabetic" xml:space="preserve">ThirdParty</text></g><g><path fill="white" stroke="black" paint-order="fill stroke markers" d=" M 226.81667578099996 98.17457183300003 A 9.311065881 9.311065881 0 1 1 226.81667112546742 98.16526076867086 M 217.50560989999997 107.48563771400002 L 217.50560989999997 127.41458574000002 M 205.74426352399996 114.67312716600003 L 229.26695627599997 114.67312716600003 M 217.50560989999997 127.41458574000002 L 205.74426352399996 146.03671750200002 M 217.50560989999997 127.41458574000002 L 229.26695627599997 146.03671750200002" stroke-miterlimit="10" stroke-width="2.7769845610000004" stroke-dasharray=""/></g><g><g/><text fill="black" stroke="none" font-family="sans-serif" font-size="11pt" font-style="normal" font-weight="normal" text-decoration="normal" x="176.00560989999997" y="162.371920802" text-anchor="start" dominant-baseline="alphabetic" xml:space="preserve">Organization</text></g><path fill="none" stroke="none"/><g><path fill="white" stroke="black" paint-order="fill stroke markers" d=" M 335.45348261666663 123.16743288200001 L 395.9008737776666 123.16743288200001 L 395.9008737776666 167.272481792 L 335.45348261666663 167.272481792 L 335.45348261666663 123.16743288200001 Z" stroke-miterlimit="10" stroke-width="2.613632528" stroke-dasharray=""/></g><g><g/><text fill="black" stroke="none" font-family="sans-serif" font-size="11pt" font-style="normal" font-weight="normal" text-decoration="normal" x="353.17717819716665" y="150.937278492" text-anchor="start" dominant-baseline="alphabetic" xml:space="preserve">App</text></g><path fill="none" stroke="none"/><g><path fill="white" stroke="black" paint-order="fill stroke markers" d=" M 412.23607707766666 123.16743288200001 L 561.6834682386667 123.16743288200001 L 561.6834682386667 167.272481792 L 412.23607707766666 167.272481792 L 412.23607707766666 123.16743288200001 Z" stroke-miterlimit="10" stroke-width="2.613632528" stroke-dasharray=""/></g><g><g/><text fill="black" stroke="none" font-family="sans-serif" font-size="11pt" font-style="normal" font-weight="normal" text-decoration="normal" x="429.9597726581667" y="150.937278492" text-anchor="start" dominant-baseline="alphabetic" xml:space="preserve">OrganizationView</text></g><g><path fill="white" stroke="black" paint-order="fill stroke markers" d=" M 648.1116517391666 120.39044832100001 A 24.2577769005 24.2577769005 0 1 1 648.1116396102792 120.36619054814246 M 620.5868341786667 96.1326714205 L 630.3879561586666 87.96506977050001 M 620.5868341786667 96.1326714205 L 630.3879561586666 104.3002730705" stroke-miterlimit="10" stroke-width="2.7769845610000004" stroke-dasharray=""/></g><g><g/><text fill="black" stroke="none" font-family="sans-serif" font-size="11pt" font-style="normal" font-weight="normal" text-decoration="normal" x="594.3538748386667" y="162.371920802" text-anchor="start" dominant-baseline="alphabetic" xml:space="preserve">API_Auth</text></g><g><path fill="white" stroke="black" paint-order="fill stroke markers" d=" M 746.6721938725 120.39044832100001 A 24.2577769005 24.2577769005 0 1 1 746.6721817436126 120.36619054814246 M 719.147376312 96.1326714205 L 728.948498292 87.96506977050001 M 719.147376312 96.1326714205 L 728.948498292 104.3002730705" stroke-miterlimit="10" stroke-width="2.7769845610000004" stroke-dasharray=""/></g><g><g/><text fill="black" stroke="none" font-family="sans-serif" font-size="11pt" font-style="normal" font-weight="normal" text-decoration="normal" x="700.414416972" y="162.371920802" text-anchor="start" dominant-baseline="alphabetic" xml:space="preserve">Router</text></g><g><path fill="white" stroke="black" paint-order="fill stroke markers" d=" M 848.1536663535 120.39044832100001 A 24.2577769005 24.2577769005 0 1 1 848.1536542246125 120.36619054814246 M 820.628848793 96.1326714205 L 830.4299707729999 87.96506977050001 M 820.628848793 96.1326714205 L 830.4299707729999 104.3002730705" stroke-miterlimit="10" stroke-width="2.7769845610000004" stroke-dasharray=""/></g><g><g/><text fill="black" stroke="none" font-family="sans-serif" font-size="11pt" font-style="normal" font-weight="normal" text-decoration="normal" x="764.395889453" y="162.371920802" text-anchor="start" dominant-baseline="alphabetic" xml:space="preserve">ControllerFunction</text></g><g><path fill="white" stroke="black" paint-order="fill stroke markers" d=" M 1093.2746364183333 135.255483324 L 1093.2746364183333 100.95155639400002 L 1140.9734300543334 100.95155639400002 L 1140.9734300543334 135.255483324" stroke-miterlimit="10" stroke-width="2.7769845610000004" stroke-dasharray=""/><path fill="white" stroke="black" paint-order="fill stroke markers" d=" M 1140.9734300543334 99.75908655310002 L 1140.9722375944298 99.86689709801664 L 1140.9686603339637 99.97469686196861 L 1140.9626986306582 100.08247506506937 L 1140.954353080679 100.19022092958842 L 1140.9436245185739 100.2979236810291 L 1140.93051401719 100.40557254920603 L 1140.9150228875667 100.51315676932207 L 1140.897152678804 100.62066558304487 L 1140.8769051779082 100.72808823958268 L 1140.8542824096119 100.83541399675931 L 1140.8292866361735 100.94263212208854 L 1140.8019203571496 101.04973189384714 L 1140.772186309145 101.1567026021472 L 1140.7400874655398 101.26353355000704 L 1140.7056270361916 101.37021405442088 L 1140.6688084671148 101.4767334474272 L 1140.6296354401356 101.58308107717545 L 1140.5881118725238 101.68924630899127 L 1140.5442419166018 101.79521852643998 L 1140.4980299593285 101.90098713238812 L 1140.449480621861 102.00654155006325 L 1140.3985987590931 102.11187122411154 L 1140.345389459168 102.21696562165339 L 1140.289858042972 102.32181423333661 L 1140.2320100636 102.4264065743874 L 1140.1718513058017 102.53073218565882 L 1140.109387785403 102.63478063467669 L 1140.044625748704 102.7385415166828 L 1139.9775716718539 102.84200445567542 L 1139.9082322602048 102.94515910544688 L 1139.8366144476404 103.04799515061815 L 1139.7627253958817 103.15050230767042 L 1139.6865724937725 103.2526703259734 L 1139.6081633565398 103.3544889888104 L 1139.5275058250318 103.4559481144 L 1139.4446079649342 103.55703755691417 L 1139.3594780659644 103.6577472074929 L 1139.272124641041 103.75806699525508 L 1139.1825564254339 103.8579868883055 L 1139.0907823758896 103.95749689473814 L 1138.9968116697373 104.05658706363529 L 1138.9006537039688 104.15524748606262 L 1138.8023180943005 104.25346829606012 L 1138.7018146742118 104.35123967162862 L 1138.5991534939606 104.44855183571204 L 1138.4943448195795 104.54539505717509 L 1138.3873991318487 104.6417596517763 L 1138.2783271252479 104.73763598313651 L 1138.1671397068865 104.83301446370251 L 1138.053847995414 104.92788555570571 L 1137.938463319907 105.02223977211597 L 1137.820997218737 105.11606767759027 L 1137.7014614384161 105.20935988941625 L 1137.5798679324228 105.30210707845049 L 1137.4562288600064 105.39429997005135 L 1137.330556584971 105.48592934500653 L 1137.2028636744394 105.57698604045486 L 1137.0731628975964 105.66746095080268 L 1136.9414672244116 105.75734502863436 L 1136.8077898243423 105.84662928561703 L 1136.6721440650174 105.93530479339938 L 1136.5345435108995 106.02336268450453 L 1136.3950019219296 106.11079415321676 L 1136.2535332521504 106.19759045646204 L 1136.1101516483106 106.28374291468239 L 1135.9648714484513 106.36924291270377 L 1135.8177071804716 106.45408190059764 L 1135.6686735606754 106.5382513945359 L 1135.5177854923006 106.62174297763931 L 1135.3650580640283 106.70454830081913 L 1135.2105065484739 106.78665908361204 L 1135.0541464006603 106.86806711500819 L 1134.8959932564721 106.94876425427228 L 1134.736062931092 107.02874243175762 L 1134.5743714174187 107.10799364971314 L 1134.4109348844693 107.18650998308306 L 1134.2457696757608 107.26428358029946 L 1134.0788923076766 107.34130666406747 L 1133.9103194678141 107.41757153214289 L 1133.7400680133169 107.49307055810243 L 1133.5681549691888 107.56779619210644 L 1133.3945975265908 107.6417409616538 L 1133.2194130411224 107.71489747232916 L 1133.0426190310864 107.7872584085424 L 1132.8642331757362 107.85881653426023 L 1132.684273313509 107.9295646937297 L 1132.5027574402409 107.9994958121938 L 1132.319703707368 108.06860289659899 L 1132.135130420111 108.1368790362944 L 1131.9490560356448 108.20431740372297 L 1131.761499161253 108.27091125510412 L 1131.5724785524662 108.33665393110826 L 1131.3820131111884 108.40153885752254 L 1131.1901218838045 108.46555954590839 L 1130.9968240592777 108.52870959425034 L 1130.8021389672292 108.59098268759617 L 1130.606086076006 108.65237259868843 L 1130.408684990734 108.71287318858718 L 1130.2099554513568 108.77247840728386 L 1130.009917330663 108.83118229430623 L 1129.808590632298 108.88897897931456 L 1129.605995488764 108.94586268268847 L 1129.4021521594063 109.00182771610504 L 1129.1970810283879 109.05686848310758 L 1128.9908026026512 109.11097947966525 L 1128.783337509867 109.16415529472346 L 1128.5747064963712 109.21639061074505 L 1128.3649304250916 109.26768020424194 L 1128.1540302734606 109.31801894629751 L 1127.9420271313177 109.36740180307952 L 1127.7289421988 109.41582383634344 L 1127.5147967842236 109.46328020392627 L 1127.2996123019514 109.50976616023082 L 1127.0834102702522 109.55527705670022 L 1126.866212309149 109.5998083422827 L 1126.6480401382569 109.64335556388684 L 1126.4289155746114 109.68591436682678 L 1126.2088605304862 109.72748049525767 L 1125.987897011202 109.7680497926013 L 1125.766047112927 109.80761820196176 L 1125.543333020466 109.84618176653109 L 1125.3197770050426 109.88373662998495 L 1125.095401422072 109.92027903686831 L 1124.8702287089257 109.95580533297093 L 1124.6442813826873 109.99031196569278 L 1124.4175820379012 110.02379548439939 L 1124.1901533443126 110.05625254076675 L 1123.962018044602 110.08767988911629 L 1123.7331989521085 110.11807438673935 L 1123.5037189485513 110.14743299421153 L 1123.2736009817393 110.17575277569651 L 1123.0428680632772 110.20303089923975 L 1122.8115432662648 110.22926463705164 L 1122.579649722989 110.25445136578027 L 1122.3472106226109 110.27858856677372 L 1122.1142492088468 110.30167382633203 L 1121.8807887776438 110.32370483594849 L 1121.6468526748508 110.34467939254047 L 1121.412464293883 110.3645953986698 L 1121.177647073383 110.38345086275248 L 1120.9424244948773 110.40124389925779 L 1120.7068200804276 110.41797272889693 L 1120.4708573902794 110.43363567880087 L 1120.2345600205047 110.44823118268765 L 1119.9979516006435 110.46175778101907 L 1119.761055791341 110.47421412114657 L 1119.5238962819806 110.4855989574465 L 1119.2864967883154 110.49591115144473 L 1119.048881050097 110.50514967193044 L 1118.8110728287013 110.5133135950593 L 1118.5730959047523 110.5204021044458 L 1118.334974075744 110.52641449124488 L 1118.0967311536606 110.53135015422289 L 1117.8583909625963 110.53520859981765 L 1117.6199773363712 110.53798944218781 L 1117.3815141161497 110.53969240325145 L 1117.1430251480544 110.54031731271388 L 1116.904534280784 110.53986410808467 L 1116.6660653632262 110.53833283468393 L 1116.427642242074 110.5357236456377 L 1116.1892887594408 110.53203680186272 L 1115.9510287504766 110.52727267204028 L 1115.7128860409832 110.52143173257942 L 1115.4748844450335 110.5145145675692 L 1115.2370477625886 110.50652186872036 L 1114.9993997771187 110.4974544352961 L 1114.7619642532243 110.48731317403227 L 1114.5247649342596 110.47609909904648 L 1114.2878255399592 110.46381333173692 L 1114.0511697640648 110.45045710067006 L 1113.814821271957 110.4360317414579 L 1113.578803698288 110.42053869662433 L 1113.3431406446184 110.40397951546092 L 1113.1078556770574 110.38635585387198 L 1112.8729723239053 110.367669474209 L 1112.638514073302 110.34792224509437 L 1112.404504370877 110.32711614123453 L 1112.1709666174058 110.30525324322254 L 1111.9379241664687 110.28233573732997 L 1111.7054003221172 110.25836591528834 L 1111.4734183365413 110.23334617405986 L 1111.2420014077466 110.2072790155978 L 1111.0111726772332 110.18016704659628 L 1110.7809552276815 110.15201297822964 L 1110.551372080645 110.1228196258812 L 1110.3224461942468 110.09258990886192 L 1110.0942004608848 110.06132685011828 L 1109.866657704942 110.0290335759301 L 1109.639840680505 109.99571331559791 L 1109.4137720690862 109.96136940111997 L 1109.1884744773593 109.9260052668591 L 1108.9639704348954 109.88962444919923 L 1108.7402823919115 109.85223058619187 L 1108.5174327170255 109.81382741719212 L 1108.2954436950195 109.77441878248487 L 1108.0743375246102 109.73400862290077 L 1107.854136316231 109.6926009794221 L 1107.6348620898186 109.6501999927787 L 1107.4165367726134 109.60680990303389 L 1107.1991821969652 109.56243504916051 L 1106.9828200981501 109.51707986860694 L 1106.7674721121978 109.47074889685346 L 1106.5531597737274 109.42344676695863 L 1106.3399045137944 109.37517820909602 L 1106.1277276577468 109.3259480500812 L 1105.9166504230936 109.27576121288904 L 1105.7066939173824 109.22462271616142 L 1105.4978791360884 109.17253767370543 L 1105.290226960516 109.1195112939819 L 1105.0837581557098 109.0655488795846 L 1104.8784933683783 109.01065582671 L 1104.6744531248287 108.95483762461768 L 1104.4716578289158 108.89809985508128 L 1104.2701277600002 108.84044819183053 L 1104.0698830709202 108.78188839998367 L 1103.8709437859789 108.7224263354711 L 1103.673329798938 108.66206794444972 L 1103.477060871032 108.60081926270831 L 1103.2821566289904 108.53868641506405 L 1103.0886365630743 108.47567561474989 L 1102.8965200251296 108.41179316279337 L 1102.7058262266498 108.34704544738645 L 1102.5165742368558 108.2814389432467 L 1102.328782980789 108.21498021096988 L 1102.1424712374182 108.14767589637383 L 1101.9576576377628 108.07953272983391 L 1101.7743606630288 108.01055752561001 L 1101.5925986427605 107.94075718116505 L 1101.412389753009 107.87013867647532 L 1101.2337520145127 107.79870907333245 L 1101.0567032908968 107.72647551463722 L 1100.881261286886 107.6534452236853 L 1100.7074435465345 107.57962550344493 L 1100.5352674514716 107.50502373582663 L 1100.3647502191634 107.42964738094497 L 1100.1959089011907 107.35350397637264 L 1100.0287603815448 107.27660113638665 L 1099.8633213749383 107.1989465512069 L 1099.6996084251343 107.12054798622721 L 1099.537637903291 107.04141328123873 L 1099.3774260063255 106.96155034964602 L 1099.2189887552945 106.8809671776757 L 1099.0623419937908 106.7996718235778 L 1098.9075013863599 106.71767241681998 L 1098.7544824169336 106.63497715727459 L 1098.6033003872813 106.55159431439867 L 1098.45397041548 106.46753222640703 L 1098.3065074344024 106.38279929943842 L 1098.160926190224 106.29740400671491 L 1098.0172412409474 106.21135488769461 L 1097.8754669549483 106.12466054721774 L 1097.7356175095367 106.03732965464607 L 1097.597706889541 105.94937094299611 L 1097.461748885908 105.8607932080657 L 1097.327757094325 105.77160530755455 L 1097.1957449138592 105.68181616017836 L 1097.065725545619 105.59143474477705 L 1096.9377119914325 105.50047009941686 L 1096.8117170525486 105.40893132048649 L 1096.6877533283562 105.31682756178758 L 1096.5658332151245 105.22416803361924 L 1096.445968904763 105.13096200185706 L 1096.328172383603 105.03721878702656 L 1096.2124554311986 104.94294776337108 L 1096.0988296191485 104.84815835791446 L 1095.987306309939 104.75286004951823 L 1095.8778966558084 104.65706236793383 L 1095.7706115976307 104.56077489284957 L 1095.6654618638224 104.46400725293273 L 1095.5624579692694 104.36676912486666 L 1095.4616102142752 104.26907023238314 L 1095.362928683531 104.17092034529 L 1095.2664232451082 104.07232927849415 L 1095.1721035494695 103.97330689102013 L 1095.0799790285066 103.87386308502415 L 1094.9900588945943 103.77400780480394 L 1094.9023521396714 103.67375103580433 L 1094.8168675343402 103.57310280361865 L 1094.7336136269898 103.47207317298626 L 1094.652598742942 103.37067224678601 L 1094.5738309836172 103.26891016502606 L 1094.4973182257258 103.16679710382974 L 1094.4230681204801 103.0643432744181 L 1094.3510880928284 102.96155892208871 L 1094.2813853407138 102.85845432519113 L 1094.2139668343532 102.75503979409915 L 1094.1488393155412 102.65132567017969 L 1094.0860092969754 102.5473223247587 L 1094.0254830616052 102.44304015808407 L 1093.9672666620038 102.33848959828556 L 1093.9113659197624 102.23368110033203 L 1093.857786424909 102.12862514498595 L 1093.8065335353483 102.02333223775527 L 1093.7576123763263 101.91781290784299 L 1093.7110278399186 101.81207770709416 L 1093.6667845845395 101.70613720894077 L 1093.6248870344782 101.60000200734433 L 1093.5853393794544 101.49368271573654 L 1093.5481455742008 101.387189965958 L 1093.5133093380668 101.2805344071949 L 1093.4808341546473 101.17372670491429 L 1093.4507232714332 101.06677753979733 L 1093.422979699488 100.95969760667145 L 1093.3976062131455 100.85249761344073 L 1093.3746053497337 100.74518828001514 L 1093.3539794093192 100.63778033723861 L 1093.335730454479 100.5302845258159 L 1093.3198603100936 100.42271159523858 L 1093.3063705631641 100.31507230271008 L 1093.295262562654 100.20737741206993 L 1093.2865374193539 100.09963769271747 L 1093.280196005771 99.99186391853482 L 1093.2762389560412 99.88406686680962 L 1093.2746666658666 99.77625731715719 L 1093.2754792924745 99.66844605044267 L 1093.278676754603 99.56064384770288 L 1093.2842587325088 99.45286148906825 L 1093.2922246679984 99.34510975268485 L 1093.3025737644853 99.23739941363651 L 1093.315304987068 99.12974124286738 L 1093.3304170626352 99.02214600610482 L 1093.3479084799917 98.91462446278284 L 1093.3677774900104 98.80718736496618 L 1093.3900221058072 98.69984545627509 L 1093.4146401029386 98.59260947081098 L 1093.4416290196257 98.48549013208303 L 1093.470986156999 98.37849815193587 L 1093.5027085793695 98.27164422947833 L 1093.5367931145213 98.16493905001363 L 1093.5732363540294 98.05839328397077 L 1093.6120346536002 97.9520175858376 L 1093.6531841334358 97.84582259309526 L 1093.696680678623 97.73981892515455 L 1093.742519939543 97.6340171822939 L 1093.7906973323081 97.52842794459946 L 1093.8412080392193 97.423061770907 L 1093.894047009248 97.31792919774607 L 1093.949208958541 97.21304073828638 L 1094.0066883709496 97.10840688128647 L 1094.0664794985805 97.00403809004486 L 1094.1285763623705 96.89994480135368 L 1094.192972752685 96.79613742445507 L 1094.2596622299386 96.6926263400002 L 1094.3286381252394 96.58942189901128 L 1094.3998935410552 96.48653442184639 L 1094.4734213519039 96.38397419716749 L 1094.5492142050655 96.28175148091161 L 1094.627264521318 96.17987649526519 L 1094.7075644956947 96.07835942764187 L 1094.7901060982651 95.97721042966384 L 1094.874881074938 95.8764396161466 L 1094.9618809482859 95.77605706408754 L 1095.0510970183943 95.67607281165819 L 1095.1425203637302 95.57649685720048 L 1095.2361418420357 95.47733915822688 L 1095.331952091241 95.37860963042466 L 1095.4299415304006 95.28031814666433 L 1095.5301003606523 95.18247453601234 L 1095.6324185661967 95.08508858274823 L 1095.7368859152987 94.98817002538617 L 1095.84349196131 94.89172855570112 L 1095.9522260437154 94.79577381775971 L 1096.0630772891968 94.70031540695574 L 1096.176034612722 94.60536286905077 L 1096.291086718653 94.51092569921943 L 1096.4082221018753 94.41701334110004 L 1096.5274290489479 94.32363518585014 L 1096.6486956392753 94.23080057120742 L 1096.7720097462995 94.13851878055601 L 1096.8973590387131 94.04679904199807 L 1097.0247309816907 93.955650527431 L 1097.1541128381446 93.86508235163033 L 1097.2854916699966 93.77510357133815 L 1097.4188543394732 93.68572318435751 L 1097.5541875104186 93.59695012865262 L 1097.6914776496285 93.5087932814551 L 1097.8307110282033 93.42126145837616 L 1097.9718737229211 93.33436341252519 L 1098.1149516176304 93.24810783363438 L 1098.2599304046605 93.1625033471897 L 1098.4067955862538 93.07755851356848 L 1098.5555324760144 92.9932818271833 L 1098.7061262003774 92.90968171563254 L 1098.8585617000956 92.82676653885773 L 1099.0128237317465 92.74454458830742 L 1099.1688968692551 92.66302408610815 L 1099.326765505438 92.58221318424222 L 1099.486413853563 92.50211996373247 L 1099.6478259489281 92.4227524338342 L 1099.8109856504584 92.34411853123427 L 1099.9758766423201 92.26622611925741 L 1100.142482435551 92.1890829870799 L 1100.3107863697107 92.11269684895069 L 1100.480771614546 92.0370753434199 L 1100.6524211716744 91.9622260325751 L 1100.8257178762826 91.888156401285 L 1101.0006443988452 91.81487385645099 L 1101.1771832468553 91.74238572626649 L 1101.3553167665755 91.67069925948411 L 1101.535027144802 91.59982162469079 L 1101.716296410647 91.52975990959094 L 1101.8991064373347 91.4605211202977 L 1102.083438944015 91.3921121806323 L 1102.2692754975906 91.32453993143167 L 1102.456597514561 91.25781112986445 L 1102.6453862628812 91.1919324487552 L 1102.835622863833 91.12691047591709 L 1103.027288293915 91.06275171349324 L 1103.220363386744 90.99946257730645 L 1103.4148288349718 90.93704939621756 L 1103.6106651922153 90.87551841149269 L 1103.8078528750023 90.81487577617904 L 1104.0063721647284 90.75512755448958 L 1104.2062032096303 90.69627972119672 L 1104.4073260267703 90.63833816103474 L 1104.609720504034 90.58130866811136 L 1104.813366402142 90.52519694532836 L 1105.018243356675 90.47000860381125 L 1105.2243308801076 90.41574916234819 L 1105.4316083638596 90.36242404683813 L 1105.640055080355 90.31003858974816 L 1105.8496501850962 90.25859802958036 L 1106.0603727187472 90.20810751034786 L 1106.2722016092303 90.1585720810605 L 1106.4851156738328 90.10999669521995 L 1106.6990936213258 90.0623862103243 L 1106.914114054093 90.01574538738238 L 1107.1301554702702 89.9700788904376 L 1107.347196265896 89.92539128610161 L 1107.565214737071 89.88168704309761 L 1107.7841890821308 89.83897053181346 L 1108.0040974038225 89.79724602386472 L 1108.2249177114977 89.75651769166738 L 1108.4466279233093 89.71678960802075 L 1108.6692058684212 89.67806574570005 L 1108.8926292892243 89.64034997705929 L 1109.1168758435624 89.60364607364387 L 1109.3419231069674 89.56795770581357 L 1109.5677485749002 89.53328844237541 L 1109.7943296650021 89.49964175022686 L 1110.0216437193533 89.46702099400908 L 1110.2496680067375 89.43542943577052 L 1110.4783797249158 89.40487023464067 L 1110.7077560029074 89.37534644651419 L 1110.9377739032755 89.34686102374526 L 1111.1684104244216 89.31941681485246 L 1111.399642502886 89.29301656423378 L 1111.6314470156535 89.2676629118923 L 1111.863800782466 89.2433583931721 L 1112.09668056814 89.22010543850483 L 1112.3300630848917 89.19790637316656 L 1112.5639249946632 89.17676341704532 L 1112.798242911459 89.15667868441913 L 1113.0329934036827 89.13765418374449 L 1113.2681529964802 89.11969181745562 L 1113.5036981740886 89.10279338177418 L 1113.7396053821863 89.08696056652965 L 1113.975851030249 89.0721949549904 L 1114.2124114939088 89.05849802370521 L 1114.4492631173166 89.04587114235585 L 1114.6863822155071 89.03431557361992 L 1114.9237450767687 89.02383247304465 L 1115.1613279650123 89.01442288893136 L 1115.3991071221478 89.00608776223065 L 1115.637058770457 88.99882792644821 L 1115.875159114974 88.9926441075616 L 1116.113384345862 88.98753692394752 L 1116.351710640797 88.9835068863201 L 1116.590114167348 88.98055439767974 L 1116.8285710853609 88.97867975327284 L 1117.0670575493427 88.97788314056228 L 1117.3055497108458 88.97816463920867 L 1117.5440237208527 88.97952422106238 L 1117.782455732161 88.98196175016635 L 1118.0208219017684 88.98547698276971 L 1118.2590983932569 88.99006956735212 L 1118.4972613791751 88.99573904465896 L 1118.7352870434238 89.00248484774721 L 1118.9731515836343 89.0103063020422 L 1119.210831213551 89.019202625405 L 1119.448302165409 89.0291729282107 L 1119.685540692311 89.04021621343732 L 1119.922523070602 89.05233137676555 L 1120.1592256022416 89.06551720668914 L 1120.3956246171738 89.0797723846361 L 1120.6316964756943 89.0950954851005 L 1120.867417570814 89.11148497578507 L 1121.1027643306197 89.12893921775441 L 1121.3377132206315 89.14745646559885 L 1121.5722407461565 89.16703486760905 L 1121.806323454637 89.18767246596111 L 1122.0399379379978 89.20936719691241 L 1122.273060834985 89.23211689100792 L 1122.505668833503 89.2559192732972 L 1122.737738672946 89.28077196356185 L 1122.9692471465237 89.30667247655354 L 1123.200171103581 89.33361822224259 L 1123.4304874519153 89.36160650607685 L 1123.660173160083 89.39063452925127 L 1123.8892052597055 89.42069938898774 L 1124.1175608477631 89.45179807882532 L 1124.3452170888877 89.48392748892095 L 1124.5721512176444 89.5170844063604 L 1124.79834054081 89.55126551547954 L 1125.02376243964 89.58646739819596 L 1125.2483943721331 89.62268653435072 L 1125.4722138752827 89.65991930206037 L 1125.6951985673252 89.69816197807918 L 1125.9173261499773 89.73741073817143 L 1126.1385744106658 89.7776616574938 L 1126.3589212247489 89.8189107109879 L 1126.5783445577288 89.86115377378276 L 1126.7968224674553 89.9043866216073 L 1127.014333106319 89.94860493121277 L 1127.230854723438 89.99380428080505 L 1127.4463656668304 90.03998015048685 L 1127.6608443855816 90.0871279227097 L 1127.8742694319985 90.13524288273562 L 1128.0866194637545 90.18432021910876 L 1128.297873246023 90.23435502413635 L 1128.5080096536024 90.28534229437957 L 1128.7170076730265 90.33727693115392 L 1128.9248464046675 90.39015374103897 L 1129.131505064826 90.44396743639781 L 1129.3369629878075 90.49871263590576 L 1129.5411996279915 90.55438386508847 L 1129.744194561884 90.6109755568694 L 1129.9459274901606 90.66848205212658 L 1130.1463782396966 90.72689760025837 L 1130.3455267655843 90.78621635975864 L 1130.5433531531369 90.84643239880089 L 1130.7398376198805 90.90753969583137 L 1130.934960517532 90.96953214017132 L 1131.1287023339648 91.03240353262795 L 1131.3210436951583 91.09614758611443 L 1131.5119653671368 91.1607579262785 L 1131.701448257892 91.22622809214002 L 1131.889473419293 91.29255153673692 L 1132.07602204898 91.35972162778006 L 1132.2610754922457 91.42773164831627 L 1132.4446152439 91.49657479740019 L 1132.6266229501207 91.56624419077427 L 1132.8070804102886 91.63673286155725 L 1132.9859695788084 91.70803376094076 L 1133.1632725669124 91.78013975889431 L 1133.338971644449 91.85304364487818 L 1133.5130492416574 91.92673812856452 L 1133.6854879509226 92.00121584056639 L 1133.8562705285176 92.07646933317463 L 1134.025379896327 92.15249108110271 L 1134.1927991435546 92.22927348223918 L 1134.3585115284154 92.3068088584079 L 1134.5225004798092 92.3850894561359 L 1134.684749598977 92.4641074474286 L 1134.8452426611427 92.54385493055275 L 1135.0039636171334 92.62432393082648 L 1135.160896594986 92.70550640141681 L 1135.3160259015335 92.78739422414436 L 1135.4693360239742 92.86997921029509 L 1135.620811631424 92.95325310143917 L 1135.770437576448 93.03720757025692 L 1135.918198896577 93.12183422137142 L 1136.0640808158014 93.20712459218805 L 1136.2080687460514 93.29307015374081 L 1136.3501482886536 93.3796623115452 L 1136.4903052357722 93.46689240645757 L 1136.6285255718294 93.55475171554113 L 1136.7647954749068 93.64323145293818 L 1136.8991013181276 93.73232277074871 L 1137.0314296710194 93.8220167599152 L 1137.161767300857 93.91230445111346 L 1137.2901011739864 94.00317681564962 L 1137.416418457127 94.09462476636294 L 1137.5407065186557 94.18663915853458 L 1137.6629529298702 94.27921079080198 L 1137.783145466231 94.37233040607906 L 1137.9012721085844 94.46598869248189 L 1138.0173210443652 94.56017628425988 L 1138.131280668776 94.65488376273235 L 1138.2431395859496 94.75010165723037 L 1138.3528866100876 94.84582044604385 L 1138.4605107665786 94.94203055737364 L 1138.566001293097 95.03872237028881 L 1138.6693476406783 95.13588621568863 L 1138.7705394747732 95.23351237726953 L 1138.869566676283 95.33159109249674 L 1138.9664193425701 95.43011255358043 L 1139.0610877884485 95.5290669084566 L 1139.1535625471524 95.62844426177223 L 1139.2438343712831 95.72823467587482 L 1139.3318942337335 95.82842817180608 L 1139.4177333285907 95.92901473029994 L 1139.5013430720164 96.02998429278436 L 1139.5827151031065 96.13132676238725 L 1139.6618412847254 96.23303200494607 L 1139.7387137043208 96.33508985002135 L 1139.813324674715 96.4374900919136 L 1139.885666734873 96.54022249068399 L 1139.9557326506492 96.64327677317824 L 1140.0235154155102 96.746642634054 L 1140.0890082512362 96.85030973681128 L 1140.1522046085981 96.95426771482623 L 1140.2130981680127 97.05850617238767 L 1140.2716828401753 97.1630146857367 L 1140.3279527666668 97.26778280410907 L 1140.3819023205422 97.37280005078027 L 1140.4335261068902 97.47805592411314 L 1140.482818963376 97.58353989860805 L 1140.5297759607545 97.68924142595546 L 1140.5743924033654 97.79514993609072 L 1140.6166638296015 97.90125483825108 L 1140.6565860123553 98.00754552203473 L 1140.694154959442 98.11401135846187 L 1140.729366913998 98.22064170103758 L 1140.7622183548574 98.32742588681647 L 1140.7927059969031 98.43435323746894 L 1140.820826791397 98.54141306034904 L 1140.8465779262824 98.64859464956368 L 1140.8699568264674 98.75588728704328 L 1140.8909611540819 98.86328024361347 L 1140.90958880871 98.97076278006811 L 1140.9258379276023 99.07832414824313 L 1140.9397068858602 99.18595359209134 L 1140.9511942965994 99.29364034875802 L 1140.9602990110886 99.40137364965727 L 1140.9670201188637 99.50914272154878 L 1140.97135694782 99.61693678761516 L 1140.9733090642774 99.72474506853963 M 1140.9734300543334 134.0630134831 L 1140.9722375944298 134.17082402801663 L 1140.9686603339637 134.2786237919686 L 1140.9626986306582 134.38640199506935 L 1140.954353080679 134.49414785958842 L 1140.9436245185739 134.60185061102908 L 1140.93051401719 134.70949947920602 L 1140.9150228875667 134.81708369932204 L 1140.897152678804 134.92459251304487 L 1140.8769051779082 135.03201516958265 L 1140.8542824096119 135.1393409267593 L 1140.8292866361735 135.24655905208851 L 1140.8019203571496 135.35365882384713 L 1140.772186309145 135.46062953214718 L 1140.7400874655398 135.56746048000701 L 1140.7056270361916 135.67414098442086 L 1140.6688084671148 135.78066037742718 L 1140.6296354401356 135.88700800717544 L 1140.5881118725238 135.99317323899126 L 1140.5442419166018 136.09914545643997 L 1140.4980299593285 136.2049140623881 L 1140.449480621861 136.31046848006324 L 1140.3985987590931 136.41579815411154 L 1140.345389459168 136.5208925516534 L 1140.289858042972 136.62574116333658 L 1140.2320100636 136.7303335043874 L 1140.1718513058017 136.8346591156588 L 1140.109387785403 136.9387075646767 L 1140.044625748704 137.0424684466828 L 1139.9775716718539 137.14593138567542 L 1139.9082322602048 137.24908603544688 L 1139.8366144476404 137.35192208061815 L 1139.7627253958817 137.4544292376704 L 1139.6865724937725 137.5565972559734 L 1139.6081633565398 137.6584159188104 L 1139.5275058250318 137.7598750444 L 1139.4446079649342 137.86096448691416 L 1139.3594780659644 137.96167413749288 L 1139.272124641041 138.06199392525505 L 1139.1825564254339 138.1619138183055 L 1139.0907823758896 138.26142382473813 L 1138.9968116697373 138.3605139936353 L 1138.9006537039688 138.4591744160626 L 1138.8023180943005 138.5573952260601 L 1138.7018146742118 138.6551666016286 L 1138.5991534939606 138.75247876571203 L 1138.4943448195795 138.84932198717507 L 1138.3873991318487 138.94568658177627 L 1138.2783271252479 139.04156291313652 L 1138.1671397068865 139.1369413937025 L 1138.053847995414 139.2318124857057 L 1137.938463319907 139.32616670211596 L 1137.820997218737 139.41999460759027 L 1137.7014614384161 139.51328681941624 L 1137.5798679324228 139.60603400845048 L 1137.4562288600064 139.69822690005134 L 1137.330556584971 139.7898562750065 L 1137.2028636744394 139.88091297045483 L 1137.0731628975964 139.97138788080267 L 1136.9414672244116 140.06127195863436 L 1136.8077898243423 140.15055621561703 L 1136.6721440650174 140.23923172339937 L 1136.5345435108995 140.3272896145045 L 1136.3950019219296 140.41472108321673 L 1136.2535332521504 140.501517386462 L 1136.1101516483106 140.58766984468238 L 1135.9648714484513 140.67316984270377 L 1135.8177071804716 140.75800883059765 L 1135.6686735606754 140.8421783245359 L 1135.5177854923006 140.9256699076393 L 1135.3650580640283 141.00847523081913 L 1135.2105065484739 141.09058601361204 L 1135.0541464006603 141.17199404500818 L 1134.8959932564721 141.25269118427227 L 1134.736062931092 141.3326693617576 L 1134.5743714174187 141.41192057971313 L 1134.4109348844693 141.49043691308304 L 1134.2457696757608 141.56821051029945 L 1134.0788923076766 141.64523359406746 L 1133.9103194678141 141.72149846214288 L 1133.7400680133169 141.79699748810242 L 1133.5681549691888 141.87172312210643 L 1133.3945975265908 141.94566789165378 L 1133.2194130411224 142.01882440232913 L 1133.0426190310864 142.0911853385424 L 1132.8642331757362 142.16274346426022 L 1132.684273313509 142.2334916237297 L 1132.5027574402409 142.3034227421938 L 1132.319703707368 142.372529826599 L 1132.135130420111 142.4408059662944 L 1131.9490560356448 142.50824433372296 L 1131.761499161253 142.5748381851041 L 1131.5724785524662 142.64058086110825 L 1131.3820131111884 142.70546578752254 L 1131.1901218838045 142.7694864759084 L 1130.9968240592777 142.83263652425032 L 1130.8021389672292 142.89490961759617 L 1130.606086076006 142.95629952868842 L 1130.408684990734 143.01680011858718 L 1130.2099554513568 143.07640533728383 L 1130.009917330663 143.13510922430623 L 1129.808590632298 143.19290590931453 L 1129.605995488764 143.24978961268846 L 1129.4021521594063 143.30575464610504 L 1129.1970810283879 143.36079541310758 L 1128.9908026026512 143.41490640966524 L 1128.783337509867 143.46808222472345 L 1128.5747064963712 143.52031754074505 L 1128.3649304250916 143.57160713424193 L 1128.1540302734606 143.6219458762975 L 1127.9420271313177 143.67132873307952 L 1127.7289421988 143.71975076634342 L 1127.5147967842236 143.76720713392626 L 1127.2996123019514 143.81369309023083 L 1127.0834102702522 143.8592039867002 L 1126.866212309149 143.9037352722827 L 1126.6480401382569 143.94728249388683 L 1126.4289155746114 143.98984129682677 L 1126.2088605304862 144.03140742525764 L 1125.987897011202 144.07197672260128 L 1125.766047112927 144.11154513196175 L 1125.543333020466 144.15010869653108 L 1125.3197770050426 144.18766355998494 L 1125.095401422072 144.2242059668683 L 1124.8702287089257 144.2597322629709 L 1124.6442813826873 144.29423889569279 L 1124.4175820379012 144.32772241439937 L 1124.1901533443126 144.36017947076672 L 1123.962018044602 144.39160681911628 L 1123.7331989521085 144.42200131673934 L 1123.5037189485513 144.45135992421152 L 1123.2736009817393 144.4796797056965 L 1123.0428680632772 144.50695782923975 L 1122.8115432662648 144.53319156705163 L 1122.579649722989 144.55837829578024 L 1122.3472106226109 144.5825154967737 L 1122.1142492088468 144.60560075633202 L 1121.8807887776438 144.62763176594848 L 1121.6468526748508 144.64860632254045 L 1121.412464293883 144.66852232866978 L 1121.177647073383 144.68737779275247 L 1120.9424244948773 144.70517082925778 L 1120.7068200804276 144.72189965889692 L 1120.4708573902794 144.73756260880086 L 1120.2345600205047 144.75215811268765 L 1119.9979516006435 144.76568471101908 L 1119.761055791341 144.77814105114655 L 1119.5238962819806 144.7895258874465 L 1119.2864967883154 144.7998380814447 L 1119.048881050097 144.80907660193043 L 1118.8110728287013 144.8172405250593 L 1118.5730959047523 144.82432903444578 L 1118.334974075744 144.83034142124487 L 1118.0967311536606 144.83527708422287 L 1117.8583909625963 144.83913552981764 L 1117.6199773363712 144.8419163721878 L 1117.3815141161497 144.84361933325144 L 1117.1430251480544 144.84424424271387 L 1116.904534280784 144.84379103808467 L 1116.6660653632262 144.84225976468392 L 1116.427642242074 144.83965057563768 L 1116.1892887594408 144.8359637318627 L 1115.9510287504766 144.83119960204027 L 1115.7128860409832 144.82535866257942 L 1115.4748844450335 144.81844149756918 L 1115.2370477625886 144.81044879872033 L 1114.9993997771187 144.8013813652961 L 1114.7619642532243 144.79124010403225 L 1114.5247649342596 144.78002602904647 L 1114.2878255399592 144.7677402617369 L 1114.0511697640648 144.75438403067005 L 1113.814821271957 144.73995867145788 L 1113.578803698288 144.72446562662432 L 1113.3431406446184 144.7079064454609 L 1113.1078556770574 144.69028278387196 L 1112.8729723239053 144.671596404209 L 1112.638514073302 144.65184917509436 L 1112.404504370877 144.6310430712345 L 1112.1709666174058 144.6091801732225 L 1111.9379241664687 144.58626266732998 L 1111.7054003221172 144.56229284528834 L 1111.4734183365413 144.53727310405984 L 1111.2420014077466 144.5112059455978 L 1111.0111726772332 144.48409397659628 L 1110.7809552276815 144.45593990822962 L 1110.551372080645 144.4267465558812 L 1110.3224461942468 144.3965168388619 L 1110.0942004608848 144.36525378011828 L 1109.866657704942 144.3329605059301 L 1109.639840680505 144.2996402455979 L 1109.4137720690862 144.26529633111994 L 1109.1884744773593 144.22993219685907 L 1108.9639704348954 144.19355137919922 L 1108.7402823919115 144.15615751619185 L 1108.5174327170255 144.1177543471921 L 1108.2954436950195 144.07834571248486 L 1108.0743375246102 144.03793555290076 L 1107.854136316231 143.9965279094221 L 1107.6348620898186 143.9541269227787 L 1107.4165367726134 143.9107368330339 L 1107.1991821969652 143.8663619791605 L 1106.9828200981501 143.82100679860693 L 1106.7674721121978 143.77467582685347 L 1106.5531597737274 143.72737369695864 L 1106.3399045137944 143.679105139096 L 1106.1277276577468 143.62987498008118 L 1105.9166504230936 143.579688142889 L 1105.7066939173824 143.52854964616142 L 1105.4978791360884 143.4764646037054 L 1105.290226960516 143.4234382239819 L 1105.0837581557098 143.36947580958457 L 1104.8784933683783 143.31458275671 L 1104.6744531248287 143.25876455461767 L 1104.4716578289158 143.20202678508127 L 1104.2701277600002 143.1443751218305 L 1104.0698830709202 143.08581532998366 L 1103.8709437859789 143.02635326547107 L 1103.673329798938 142.9659948744497 L 1103.477060871032 142.9047461927083 L 1103.2821566289904 142.84261334506402 L 1103.0886365630743 142.77960254474988 L 1102.8965200251296 142.71572009279336 L 1102.7058262266498 142.65097237738644 L 1102.5165742368558 142.5853658732467 L 1102.328782980789 142.51890714096987 L 1102.1424712374182 142.4516028263738 L 1101.9576576377628 142.3834596598339 L 1101.7743606630288 142.31448445561 L 1101.5925986427605 142.24468411116504 L 1101.412389753009 142.17406560647532 L 1101.2337520145127 142.10263600333244 L 1101.0567032908968 142.03040244463722 L 1100.881261286886 141.9573721536853 L 1100.7074435465345 141.88355243344492 L 1100.5352674514716 141.80895066582661 L 1100.3647502191634 141.73357431094496 L 1100.1959089011907 141.65743090637264 L 1100.0287603815448 141.58052806638665 L 1099.8633213749383 141.5028734812069 L 1099.6996084251343 141.42447491622718 L 1099.537637903291 141.34534021123872 L 1099.3774260063255 141.265477279646 L 1099.2189887552945 141.1848941076757 L 1099.0623419937908 141.10359875357778 L 1098.9075013863599 141.02159934681995 L 1098.7544824169336 140.93890408727458 L 1098.6033003872813 140.85552124439866 L 1098.45397041548 140.77145915640702 L 1098.3065074344024 140.68672622943842 L 1098.160926190224 140.6013309367149 L 1098.0172412409474 140.5152818176946 L 1097.8754669549483 140.42858747721772 L 1097.7356175095367 140.34125658464606 L 1097.597706889541 140.2532978729961 L 1097.461748885908 140.1647201380657 L 1097.327757094325 140.07553223755454 L 1097.1957449138592 139.98574309017835 L 1097.065725545619 139.89536167477704 L 1096.9377119914325 139.80439702941683 L 1096.8117170525486 139.71285825048648 L 1096.6877533283562 139.62075449178758 L 1096.5658332151245 139.52809496361922 L 1096.445968904763 139.43488893185705 L 1096.328172383603 139.34114571702654 L 1096.2124554311986 139.24687469337107 L 1096.0988296191485 139.15208528791445 L 1095.987306309939 139.05678697951822 L 1095.8778966558084 138.96098929793382 L 1095.7706115976307 138.86470182284955 L 1095.6654618638224 138.76793418293272 L 1095.5624579692694 138.67069605486665 L 1095.4616102142752 138.57299716238313 L 1095.362928683531 138.47484727529 L 1095.2664232451082 138.37625620849414 L 1095.1721035494695 138.27723382102013 L 1095.0799790285066 138.17779001502413 L 1094.9900588945943 138.07793473480393 L 1094.9023521396714 137.9776779658043 L 1094.8168675343402 137.87702973361863 L 1094.7336136269898 137.77600010298625 L 1094.652598742942 137.67459917678602 L 1094.5738309836172 137.57283709502605 L 1094.4973182257258 137.47072403382973 L 1094.4230681204801 137.3682702044181 L 1094.3510880928284 137.26548585208872 L 1094.2813853407138 137.16238125519112 L 1094.2139668343532 137.05896672409915 L 1094.1488393155412 136.95525260017968 L 1094.0860092969754 136.8512492547587 L 1094.0254830616052 136.74696708808406 L 1093.9672666620038 136.64241652828557 L 1093.9113659197624 136.53760803033202 L 1093.857786424909 136.43255207498592 L 1093.8065335353483 136.32725916775524 L 1093.7576123763263 136.22173983784296 L 1093.7110278399186 136.11600463709416 L 1093.6667845845395 136.01006413894075 L 1093.6248870344782 135.90392893734432 L 1093.5853393794544 135.79760964573654 L 1093.5481455742008 135.69111689595798 L 1093.5133093380668 135.5844613371949 L 1093.4808341546473 135.47765363491428 L 1093.4507232714332 135.37070446979732 L 1093.422979699488 135.26362453667144 L 1093.3976062131455 135.15642454344072 L 1093.3746053497337 135.04911521001512 L 1093.3539794093192 134.9417072672386 L 1093.335730454479 134.83421145581588 L 1093.3198603100936 134.72663852523857 L 1093.3063705631641 134.61899923271008 L 1093.295262562654 134.5113043420699 L 1093.2865374193539 134.40356462271745 L 1093.280196005771 134.2957908485348 L 1093.2762389560412 134.1879937968096 L 1093.2746666658666 134.08018424715718" stroke-miterlimit="10" stroke-width="2.7769845610000004" stroke-dasharray=""/></g><g><g/><text fill="black" stroke="none" font-family="sans-serif" font-size="11pt" font-style="normal" font-weight="normal" text-decoration="normal" x="1098.1240332363334" y="162.371920802" text-anchor="start" dominant-baseline="alphabetic" xml:space="preserve">Model</text></g></g><g><g><text fill="black" stroke="none" font-family="sans-serif" font-size="11pt" font-style="normal" font-weight="normal" text-decoration="normal" x="150.50619074858332" y="214.644571362" text-anchor="start" dominant-baseline="alphabetic" xml:space="preserve">Interact with view</text></g><g><path fill="none" stroke="black" paint-order="fill stroke markers" d=" M 46.3352033 221.178652682 L 352.2278608135 221.178652682" stroke-miterlimit="10" stroke-width="1.3612669416666667" stroke-dasharray=""/><g transform="translate(365.67717819716665,221.178652682) translate(-365.67717819716665,-221.178652682)"><path fill="black" stroke="none" paint-order="stroke fill markers" d=" M 352.0645087805 214.37231797366667 L 365.67717819716665 221.178652682 L 352.0645087805 227.98498739033334 Z"/></g></g><g><text fill="black" stroke="none" font-family="sans-serif" font-size="11pt" font-style="normal" font-weight="normal" text-decoration="normal" x="500.5457975845834" y="260.383140602" text-anchor="start" dominant-baseline="alphabetic" xml:space="preserve">Make request</text></g><g><path fill="none" stroke="black" paint-order="fill stroke markers" d=" M 365.67717819716665 266.917221922 L 708.9650995883334 266.917221922" stroke-miterlimit="10" stroke-width="1.3612669416666667" stroke-dasharray=""/><g transform="translate(722.414416972,266.917221922) translate(-722.414416972,-266.917221922)"><path fill="black" stroke="none" paint-order="stroke fill markers" d=" M 708.8017475553333 260.1108872136667 L 722.414416972 266.917221922 L 708.8017475553333 273.72355663033335 Z"/></g></g><g><text fill="black" stroke="none" font-family="sans-serif" font-size="11pt" font-style="normal" font-weight="normal" text-decoration="normal" x="745.6551532125" y="306.121709842" text-anchor="start" dominant-baseline="alphabetic" xml:space="preserve">Redirect</text></g><g><path fill="none" stroke="black" paint-order="fill stroke markers" d=" M 722.414416972 312.655791162 L 810.4465720693333 312.655791162" stroke-miterlimit="10" stroke-width="1.3612669416666667" stroke-dasharray=""/><g transform="translate(823.895889453,312.655791162) translate(-823.895889453,-312.655791162)"><path fill="black" stroke="none" paint-order="stroke fill markers" d=" M 810.2832200363333 305.8494564536667 L 823.895889453 312.655791162 L 810.2832200363333 319.46212587033335 Z"/></g></g><g><text fill="black" stroke="none" font-family="sans-serif" font-size="11pt" font-style="normal" font-weight="normal" text-decoration="normal" x="902.0099613446666" y="351.860279082" text-anchor="start" dominant-baseline="alphabetic" xml:space="preserve">Request/Update data</text></g><g><path fill="none" stroke="black" paint-order="fill stroke markers" d=" M 823.895889453 358.394360402 L 1103.6747158526666 358.394360402" stroke-miterlimit="10" stroke-width="1.3612669416666667" stroke-dasharray=""/><g transform="translate(1117.1240332363334,358.394360402) translate(-1117.1240332363334,-358.394360402)"><path fill="black" stroke="none" paint-order="stroke fill markers" d=" M 1103.5113638196667 351.5880256936667 L 1117.1240332363334 358.394360402 L 1103.5113638196667 365.20069511033336 Z"/></g></g><g><text fill="black" stroke="none" font-family="sans-serif" font-size="11pt" font-style="normal" font-weight="normal" text-decoration="normal" x="879.5099613446666" y="397.598848322" text-anchor="start" dominant-baseline="alphabetic" xml:space="preserve">Return data or conformation</text></g><g><path fill="none" stroke="black" paint-order="fill stroke markers" d=" M 1117.1240332363334 404.132929642 L 837.3452068366666 404.132929642" stroke-miterlimit="10" stroke-width="1.3612669416666667" stroke-dasharray=""/><g transform="translate(823.895889453,404.132929642) translate(-823.895889453,-404.132929642)"><path fill="black" stroke="none" paint-order="stroke fill markers" d=" M 837.5085588696667 397.3265949336667 L 823.895889453 404.132929642 L 837.5085588696667 410.93926435033336 Z"/></g></g><g><text fill="black" stroke="none" font-family="sans-serif" font-size="11pt" font-style="normal" font-weight="normal" text-decoration="normal" x="555.2865338250833" y="443.337417562" text-anchor="start" dominant-baseline="alphabetic" xml:space="preserve">Update view</text></g><g><path fill="none" stroke="black" paint-order="fill stroke markers" d=" M 823.895889453 449.871498882 L 379.1264955808333 449.871498882" stroke-miterlimit="10" stroke-width="1.3612669416666667" stroke-dasharray=""/><g transform="translate(365.67717819716665,449.871498882) translate(-365.67717819716665,-449.871498882)"><path fill="black" stroke="none" paint-order="stroke fill markers" d=" M 379.28984761383333 443.0651641736667 L 365.67717819716665 449.871498882 L 379.28984761383333 456.67783359033336 Z"/></g></g><g><text fill="black" stroke="none" font-family="sans-serif" font-size="11pt" font-style="normal" font-weight="normal" text-decoration="normal" x="164.00619074858332" y="489.075986802" text-anchor="start" dominant-baseline="alphabetic" xml:space="preserve">Present view</text></g><g><path fill="none" stroke="black" paint-order="fill stroke markers" d=" M 365.67717819716665 495.61006812200003 L 59.78452068366667 495.61006812200003" stroke-miterlimit="10" stroke-width="1.3612669416666667" stroke-dasharray=""/><g transform="translate(46.3352033,495.61006812200003) translate(-46.3352033,-495.61006812200003)"><path fill="black" stroke="none" paint-order="stroke fill markers" d=" M 59.94787271666667 488.8037334136667 L 46.3352033 495.61006812200003 L 59.94787271666667 502.41640283033337 Z"/></g></g><g><text fill="black" stroke="none" font-family="sans-serif" font-size="11pt" font-style="normal" font-weight="normal" text-decoration="normal" x="312.51214071933333" y="534.8145560419999" text-anchor="start" dominant-baseline="alphabetic" xml:space="preserve">Post request to API</text></g><g><path fill="none" stroke="black" paint-order="fill stroke markers" d=" M 126.17040659999999 541.348637362 L 610.404557455 541.348637362" stroke-miterlimit="10" stroke-width="1.3612669416666667" stroke-dasharray=""/><g transform="translate(623.8538748386667,541.348637362) translate(-623.8538748386667,-541.348637362)"><path fill="black" stroke="none" paint-order="stroke fill markers" d=" M 610.241205422 534.5423026536666 L 623.8538748386667 541.348637362 L 610.241205422 548.1549720703333 Z"/></g></g><g><text fill="black" stroke="none" font-family="sans-serif" font-size="11pt" font-style="normal" font-weight="normal" text-decoration="normal" x="819.4889540375" y="580.5531252819999" text-anchor="start" dominant-baseline="alphabetic" xml:space="preserve">Validate API key</text></g><g><path fill="none" stroke="black" paint-order="fill stroke markers" d=" M 623.8538748386667 587.0872066019999 L 1103.6747158526666 587.0872066019999" stroke-miterlimit="10" stroke-width="1.3612669416666667" stroke-dasharray=""/><g transform="translate(1117.1240332363334,587.0872066019999) translate(-1117.1240332363334,-587.0872066019999)"><path fill="black" stroke="none" paint-order="stroke fill markers" d=" M 1103.5113638196667 580.2808718936666 L 1117.1240332363334 587.0872066019999 L 1103.5113638196667 593.8935413103333 Z"/></g></g><g><text fill="black" stroke="none" font-family="sans-serif" font-size="11pt" font-style="normal" font-weight="normal" text-decoration="normal" x="826.4889540375" y="626.2916945219998" text-anchor="start" dominant-baseline="alphabetic" xml:space="preserve">Conformation</text></g><g><path fill="none" stroke="black" paint-order="fill stroke markers" d=" M 1117.1240332363334 632.8257758419999 L 637.3031922223333 632.8257758419999" stroke-miterlimit="10" stroke-width="1.3612669416666667" stroke-dasharray=""/><g transform="translate(623.8538748386667,632.8257758419999) translate(-623.8538748386667,-632.8257758419999)"><path fill="black" stroke="none" paint-order="stroke fill markers" d=" M 637.4665442553334 626.0194411336665 L 623.8538748386667 632.8257758419999 L 637.4665442553334 639.6321105503332 Z"/></g></g><g><text fill="black" stroke="none" font-family="sans-serif" font-size="11pt" font-style="normal" font-weight="normal" text-decoration="normal" x="645.6341459053333" y="672.0302637619998" text-anchor="start" dominant-baseline="alphabetic" xml:space="preserve">Redirect</text></g><g><path fill="none" stroke="black" paint-order="fill stroke markers" d=" M 623.8538748386667 678.5643450819998 L 708.9650995883334 678.5643450819998" stroke-miterlimit="10" stroke-width="1.3612669416666667" stroke-dasharray=""/><g transform="translate(722.414416972,678.5643450819998) translate(-722.414416972,-678.5643450819998)"><path fill="black" stroke="none" paint-order="stroke fill markers" d=" M 708.8017475553333 671.7580103736665 L 722.414416972 678.5643450819998 L 708.8017475553333 685.3706797903332 Z"/></g></g><g><text fill="black" stroke="none" font-family="sans-serif" font-size="11pt" font-style="normal" font-weight="normal" text-decoration="normal" x="745.6551532125" y="717.7688330019997" text-anchor="start" dominant-baseline="alphabetic" xml:space="preserve">Redirect</text></g><g><path fill="none" stroke="black" paint-order="fill stroke markers" d=" M 722.414416972 724.3029143219998 L 810.4465720693333 724.3029143219998" stroke-miterlimit="10" stroke-width="1.3612669416666667" stroke-dasharray=""/><g transform="translate(823.895889453,724.3029143219998) translate(-823.895889453,-724.3029143219998)"><path fill="black" stroke="none" paint-order="stroke fill markers" d=" M 810.2832200363333 717.4965796136664 L 823.895889453 724.3029143219998 L 810.2832200363333 731.1092490303331 Z"/></g></g><g><text fill="black" stroke="none" font-family="sans-serif" font-size="11pt" font-style="normal" font-weight="normal" text-decoration="normal" x="902.0099613446666" y="763.5074022419997" text-anchor="start" dominant-baseline="alphabetic" xml:space="preserve">Request/Update data</text></g><g><path fill="none" stroke="black" paint-order="fill stroke markers" d=" M 823.895889453 770.0414835619997 L 1103.6747158526666 770.0414835619997" stroke-miterlimit="10" stroke-width="1.3612669416666667" stroke-dasharray=""/><g transform="translate(1117.1240332363334,770.0414835619997) translate(-1117.1240332363334,-770.0414835619997)"><path fill="black" stroke="none" paint-order="stroke fill markers" d=" M 1103.5113638196667 763.2351488536664 L 1117.1240332363334 770.0414835619997 L 1103.5113638196667 776.847818270333 Z"/></g></g><g><text fill="black" stroke="none" font-family="sans-serif" font-size="11pt" font-style="normal" font-weight="normal" text-decoration="normal" x="879.5099613446666" y="809.2459714819996" text-anchor="start" dominant-baseline="alphabetic" xml:space="preserve">Return data or conformation</text></g><g><path fill="none" stroke="black" paint-order="fill stroke markers" d=" M 1117.1240332363334 815.7800528019997 L 837.3452068366666 815.7800528019997" stroke-miterlimit="10" stroke-width="1.3612669416666667" stroke-dasharray=""/><g transform="translate(823.895889453,815.7800528019997) translate(-823.895889453,-815.7800528019997)"><path fill="black" stroke="none" paint-order="stroke fill markers" d=" M 837.5085588696667 808.9737180936663 L 823.895889453 815.7800528019997 L 837.5085588696667 822.586387510333 Z"/></g></g><g><text fill="black" stroke="none" font-family="sans-serif" font-size="11pt" font-style="normal" font-weight="normal" text-decoration="normal" x="386.5331480265" y="854.9845407219996" text-anchor="start" dominant-baseline="alphabetic" xml:space="preserve">Return data or confirmation</text></g><g><path fill="none" stroke="black" paint-order="fill stroke markers" d=" M 823.895889453 861.5186220419996 L 139.61972398366666 861.5186220419996" stroke-miterlimit="10" stroke-width="1.3612669416666667" stroke-dasharray=""/><g transform="translate(126.17040659999999,861.5186220419996) translate(-126.17040659999999,-861.5186220419996)"><path fill="black" stroke="none" paint-order="stroke fill markers" d=" M 139.78307601666666 854.7122873336663 L 126.17040659999999 861.5186220419996 L 139.78307601666666 868.324956750333 Z"/></g></g><g><text fill="black" stroke="none" font-family="sans-serif" font-size="11pt" font-style="normal" font-weight="normal" text-decoration="normal" x="264.2326912790833" y="900.7231099619995" text-anchor="start" dominant-baseline="alphabetic" xml:space="preserve">Interact with view in iFrame</text></g><g><path fill="none" stroke="black" paint-order="fill stroke markers" d=" M 217.50560989999997 907.2571912819996 L 473.51045527450003 907.2571912819996" stroke-miterlimit="10" stroke-width="1.3612669416666667" stroke-dasharray=""/><g transform="translate(486.9597726581667,907.2571912819996) translate(-486.9597726581667,-907.2571912819996)"><path fill="black" stroke="none" paint-order="stroke fill markers" d=" M 473.3471032415 900.4508565736662 L 486.9597726581667 907.2571912819996 L 473.3471032415 914.0635259903329 Z"/></g></g><g><text fill="black" stroke="none" font-family="sans-serif" font-size="11pt" font-style="normal" font-weight="normal" text-decoration="normal" x="561.1870948150834" y="946.4616792019995" text-anchor="start" dominant-baseline="alphabetic" xml:space="preserve">Make request</text></g><g><path fill="none" stroke="black" paint-order="fill stroke markers" d=" M 486.9597726581667 952.9957605219995 L 708.9650995883334 952.9957605219995" stroke-miterlimit="10" stroke-width="1.3612669416666667" stroke-dasharray=""/><g transform="translate(722.414416972,952.9957605219995) translate(-722.414416972,-952.9957605219995)"><path fill="black" stroke="none" paint-order="stroke fill markers" d=" M 708.8017475553333 946.1894258136662 L 722.414416972 952.9957605219995 L 708.8017475553333 959.8020952303328 Z"/></g></g><g><text fill="black" stroke="none" font-family="sans-serif" font-size="11pt" font-style="normal" font-weight="normal" text-decoration="normal" x="745.6551532125" y="992.2002484419994" text-anchor="start" dominant-baseline="alphabetic" xml:space="preserve">Redirect</text></g><g><path fill="none" stroke="black" paint-order="fill stroke markers" d=" M 722.414416972 998.7343297619994 L 810.4465720693333 998.7343297619994" stroke-miterlimit="10" stroke-width="1.3612669416666667" stroke-dasharray=""/><g transform="translate(823.895889453,998.7343297619994) translate(-823.895889453,-998.7343297619994)"><path fill="black" stroke="none" paint-order="stroke fill markers" d=" M 810.2832200363333 991.9279950536661 L 823.895889453 998.7343297619994 L 810.2832200363333 1005.5406644703328 Z"/></g></g><g><text fill="black" stroke="none" font-family="sans-serif" font-size="11pt" font-style="normal" font-weight="normal" text-decoration="normal" x="902.0099613446666" y="1037.9388176819994" text-anchor="start" dominant-baseline="alphabetic" xml:space="preserve">Request/Update data</text></g><g><path fill="none" stroke="black" paint-order="fill stroke markers" d=" M 823.895889453 1044.4728990019994 L 1103.6747158526666 1044.4728990019994" stroke-miterlimit="10" stroke-width="1.3612669416666667" stroke-dasharray=""/><g transform="translate(1117.1240332363334,1044.4728990019994) translate(-1117.1240332363334,-1044.4728990019994)"><path fill="black" stroke="none" paint-order="stroke fill markers" d=" M 1103.5113638196667 1037.6665642936662 L 1117.1240332363334 1044.4728990019994 L 1103.5113638196667 1051.2792337103326 Z"/></g></g><g><text fill="black" stroke="none" font-family="sans-serif" font-size="11pt" font-style="normal" font-weight="normal" text-decoration="normal" x="879.5099613446666" y="1083.6773869219996" text-anchor="start" dominant-baseline="alphabetic" xml:space="preserve">Return data or conformation</text></g><g><path fill="none" stroke="black" paint-order="fill stroke markers" d=" M 1117.1240332363334 1090.2114682419995 L 837.3452068366666 1090.2114682419995" stroke-miterlimit="10" stroke-width="1.3612669416666667" stroke-dasharray=""/><g transform="translate(823.895889453,1090.2114682419995) translate(-823.895889453,-1090.2114682419995)"><path fill="black" stroke="none" paint-order="stroke fill markers" d=" M 837.5085588696667 1083.4051335336662 L 823.895889453 1090.2114682419995 L 837.5085588696667 1097.0178029503327 Z"/></g></g><g><text fill="black" stroke="none" font-family="sans-serif" font-size="11pt" font-style="normal" font-weight="normal" text-decoration="normal" x="611.9278310555833" y="1129.4159561619997" text-anchor="start" dominant-baseline="alphabetic" xml:space="preserve">: Update view</text></g><g><path fill="none" stroke="black" paint-order="fill stroke markers" d=" M 823.895889453 1135.9500374819995 L 500.40909004183334 1135.9500374819995" stroke-miterlimit="10" stroke-width="1.3612669416666667" stroke-dasharray=""/><g transform="translate(486.9597726581667,1135.9500374819995) translate(-486.9597726581667,-1135.9500374819995)"><path fill="black" stroke="none" paint-order="stroke fill markers" d=" M 500.57244207483336 1129.1437027736663 L 486.9597726581667 1135.9500374819995 L 500.57244207483336 1142.7563721903327 Z"/></g></g><g><text fill="black" stroke="none" font-family="sans-serif" font-size="11pt" font-style="normal" font-weight="normal" text-decoration="normal" x="310.2326912790833" y="1175.1545254019998" text-anchor="start" dominant-baseline="alphabetic" xml:space="preserve">Present view</text></g><g><path fill="none" stroke="black" paint-order="fill stroke markers" d=" M 486.9597726581667 1181.6886067219996 L 230.95492728366662 1181.6886067219996" stroke-miterlimit="10" stroke-width="1.3612669416666667" stroke-dasharray=""/><g transform="translate(217.50560989999997,1181.6886067219996) translate(-217.50560989999997,-1181.6886067219996)"><path fill="black" stroke="none" paint-order="stroke fill markers" d=" M 231.11827931666664 1174.8822720136664 L 217.50560989999997 1181.6886067219996 L 231.11827931666664 1188.4949414303328 Z"/></g></g></g><g/><g/><g/><g/><g/><g/><g/><g/><g/></g></svg>