<svg version="1.1" viewBox="0.0 0.0 912.0 800.8005249343832" fill="none" stroke="none" stroke-linecap="square" stroke-miterlimit="10" xmlns:xlink="http://www.w3.org/1999/xlink" xmlns="http://www.w3.org/2000/svg"><clipPath id="p.0"><path d="m0 0l912.0 0l0 800.80054l-912.0 0l0 -800.80054z" clip-rule="nonzero"/></clipPath><g clip-path="url(#p.0)"><path fill="#000000" fill-opacity="0.0" d="m0 0l912.0 0l0 800.80054l-912.0 0z" fill-rule="evenodd"/><path fill="#38761d" d="m57.238846 44.80377l0 0c0 -17.070435 13.838318 -30.908756 30.908752 -30.908756l280.4502 0c8.19751 0 16.059265 3.2564497 21.855774 9.052964c5.7965393 5.7965164 9.0529785 13.6582775 9.0529785 21.855791l0 123.6313c0 17.070435 -13.838318 30.908752 -30.908752 30.908752l-280.4502 0c-17.070435 0 -30.908752 -13.838318 -30.908752 -30.908752z" fill-rule="evenodd"/><path stroke="#000000" stroke-width="1.0" stroke-linejoin="round" stroke-linecap="butt" d="m57.238846 44.80377l0 0c0 -17.070435 13.838318 -30.908756 30.908752 -30.908756l280.4502 0c8.19751 0 16.059265 3.2564497 21.855774 9.052964c5.7965393 5.7965164 9.0529785 13.6582775 9.0529785 21.855791l0 123.6313c0 17.070435 -13.838318 30.908752 -30.908752 30.908752l-280.4502 0c-17.070435 0 -30.908752 -13.838318 -30.908752 -30.908752z" fill-rule="evenodd"/><path fill="#000000" d="m164.85309 113.479416l0 -35.3125l7.03125 0l8.359375 25.0q1.15625 3.5 1.6875 5.234375q0.609375 -1.9375 1.875 -5.671875l8.46875 -24.5625l6.28125 0l0 35.3125l-4.5 0l0 -29.546875l-10.265625 29.546875l-4.21875 0l-10.203125 -30.0625l0 30.0625l-4.515625 0zm39.075104 -12.796875q0 -7.09375 3.953125 -10.515625q3.296875 -2.84375 8.03125 -2.84375q5.28125 0 8.625 3.453125q3.359375 3.453125 3.359375 9.546875q0 4.9375 -1.484375 7.78125q-1.484375 2.828125 -4.3125 4.390625q-2.828125 1.5625 -6.1875 1.5625q-5.359375 0 -8.671875 -3.4375q-3.3125 -3.453125 -3.3125 -9.9375zm4.453125 0q0 4.921875 2.140625 7.375q2.140625 2.4375 5.390625 2.4375q3.234375 0 5.375 -2.453125q2.140625 -2.46875 2.140625 -7.5q0 -4.734375 -2.15625 -7.171875q-2.140625 -2.453125 -5.359375 -2.453125q-3.25 0 -5.390625 2.4375q-2.140625 2.421875 -2.140625 7.328125zm41.18396 12.796875l0 -3.234375q-2.421875 3.8125 -7.15625 3.8125q-3.046875 0 -5.625 -1.6875q-2.5625 -1.6875 -3.96875 -4.703125q-1.40625 -3.03125 -1.40625 -6.953125q0 -3.828125 1.265625 -6.9375q1.28125 -3.125 3.828125 -4.78125q2.5625 -1.671875 5.71875 -1.671875q2.3125 0 4.109375 0.984375q1.8125 0.96875 2.953125 2.53125l0 -12.671875l4.3125 0l0 35.3125l-4.03125 0zm-13.703125 -12.765625q0 4.90625 2.0625 7.34375q2.078125 2.4375 4.90625 2.4375q2.828125 0 4.8125 -2.328125q2.0 -2.328125 2.0 -7.09375q0 -5.25 -2.03125 -7.703125q-2.015625 -2.453125 -4.984375 -2.453125q-2.890625 0 -4.828125 2.359375q-1.9375 2.359375 -1.9375 7.4375zm42.05896 4.53125l4.46875 0.546875q-1.046875 3.9375 -3.921875 6.109375q-2.859375 2.15625 -7.3125 2.15625q-5.625 0 -8.90625 -3.453125q-3.28125 -3.453125 -3.28125 -9.703125q0 -6.453125 3.3125 -10.015625q3.328125 -3.5625 8.625 -3.5625q5.140625 0 8.390625 3.5q3.25 3.484375 3.25 9.8125q0 0.390625 -0.03125 1.15625l-19.078125 0q0.25 4.21875 2.390625 6.46875q2.140625 2.234375 5.34375 2.234375q2.390625 0 4.078125 -1.25q1.6875 -1.25 2.671875 -4.0zm-14.234375 -7.015625l14.28125 0q-0.296875 -3.21875 -1.640625 -4.84375q-2.078125 -2.5 -5.375 -2.5q-2.984375 0 -5.015625 2.0q-2.03125 2.0 -2.25 5.34375zm24.05896 15.25l0 -35.3125l4.328125 0l0 35.3125l-4.328125 0z" fill-rule="nonzero"/><path fill="#45818e" d="m521.979 569.99536l0 0c0 -17.070435 13.838318 -30.908752 30.908752 -30.908752l280.4502 0c8.19751 0 16.059265 3.2564697 21.855774 9.0529785c5.79657 5.796509 9.0529785 13.658264 9.0529785 21.855774l0 123.63129c0 17.070435 -13.838318 30.908813 -30.908752 30.908813l-280.4502 0c-17.070435 0 -30.908752 -13.838379 -30.908752 -30.908813z" fill-rule="evenodd"/><path stroke="#000000" stroke-width="1.0" stroke-linejoin="round" stroke-linecap="butt" d="m521.979 569.99536l0 0c0 -17.070435 13.838318 -30.908752 30.908752 -30.908752l280.4502 0c8.19751 0 16.059265 3.2564697 21.855774 9.0529785c5.79657 5.796509 9.0529785 13.658264 9.0529785 21.855774l0 123.63129c0 17.070435 -13.838318 30.908813 -30.908752 30.908813l-280.4502 0c-17.070435 0 -30.908752 -13.838379 -30.908752 -30.908813z" fill-rule="evenodd"/><path fill="#000000" d="m653.99023 638.671l-13.671875 -35.3125l5.0625 0l9.171875 25.65625q1.109375 3.078125 1.859375 5.78125q0.8125 -2.890625 1.890625 -5.78125l9.546875 -25.65625l4.765625 0l-13.828125 35.3125l-4.796875 0zm21.400818 -30.328125l0 -4.984375l4.328125 0l0 4.984375l-4.328125 0zm0 30.328125l0 -25.578125l4.328125 0l0 25.578125l-4.328125 0zm28.443542 -8.234375l4.46875 0.546875q-1.046875 3.9375 -3.921875 6.109375q-2.859375 2.15625 -7.3125 2.15625q-5.625 0 -8.90625 -3.453125q-3.28125 -3.453125 -3.28125 -9.703125q0 -6.453125 3.3125 -10.015625q3.328125 -3.5625 8.625 -3.5625q5.140625 0 8.390625 3.5q3.25 3.484375 3.25 9.8125q0 0.390625 -0.03125 1.15625l-19.078125 0q0.25 4.21875 2.390625 6.46875q2.140625 2.234375 5.34375 2.234375q2.390625 0 4.078125 -1.25q1.6875 -1.25 2.671875 -4.0zm-14.234375 -7.015625l14.28125 0q-0.296875 -3.21875 -1.640625 -4.84375q-2.078125 -2.5 -5.375 -2.5q-2.984375 0 -5.015625 2.0q-2.03125 2.0 -2.25 5.34375zm28.87146 15.25l-7.828125 -25.578125l4.484375 0l4.0625 14.765625l1.53125 5.484375q0.09375 -0.40625 1.3125 -5.265625l4.078125 -14.984375l4.453125 0l3.828125 14.828125l1.28125 4.890625l1.46875 -4.9375l4.375 -14.78125l4.21875 0l-8.0 25.578125l-4.5 0l-4.0625 -15.3125l-1.0 -4.359375l-5.171875 19.671875l-4.53125 0z" fill-rule="nonzero"/><path fill="#e06666" d="m497.0866 283.82083l0 0c0 -17.070435 13.838318 -30.908752 30.908752 -30.908752l280.4502 0c8.19751 0 16.059265 3.2564392 21.855835 9.052948c5.796509 5.7965393 9.0529175 13.658295 9.0529175 21.855804l0 123.63132c0 17.070435 -13.838318 30.908752 -30.908752 30.908752l-280.4502 0c-17.070435 0 -30.908752 -13.838318 -30.908752 -30.908752z" fill-rule="evenodd"/><path stroke="#000000" stroke-width="1.0" stroke-linejoin="round" stroke-linecap="butt" d="m497.0866 283.82083l0 0c0 -17.070435 13.838318 -30.908752 30.908752 -30.908752l280.4502 0c8.19751 0 16.059265 3.2564392 21.855835 9.052948c5.796509 5.7965393 9.0529175 13.658295 9.0529175 21.855804l0 123.63132c0 17.070435 -13.838318 30.908752 -30.908752 30.908752l-280.4502 0c-17.070435 0 -30.908752 -13.838318 -30.908752 -30.908752z" fill-rule="evenodd"/><path fill="#000000" d="m590.3027 351.1215l4.671875 1.171875q-1.46875 5.765625 -5.296875 8.796875q-3.8125 3.015625 -9.328125 3.015625q-5.703125 0 -9.28125 -2.328125q-3.578125 -2.328125 -5.453125 -6.734375q-1.859375 -4.40625 -1.859375 -9.46875q0 -5.515625 2.109375 -9.625q2.109375 -4.109375 6.0 -6.234375q3.890625 -2.125 8.5625 -2.125q5.296875 0 8.90625 2.703125q3.625 2.6875 5.03125 7.578125l-4.59375 1.078125q-1.234375 -3.84375 -3.578125 -5.59375q-2.328125 -1.765625 -5.859375 -1.765625q-4.078125 0 -6.8125 1.953125q-2.734375 1.9375 -3.84375 5.234375q-1.09375 3.28125 -1.09375 6.78125q0 4.5 1.3125 7.859375q1.3125 3.359375 4.078125 5.03125q2.765625 1.65625 6.0 1.65625q3.921875 0 6.640625 -2.265625q2.71875 -2.265625 3.6875 -6.71875zm8.263855 -0.421875q0 -7.09375 3.953125 -10.515625q3.296875 -2.84375 8.03125 -2.84375q5.28125 0 8.625 3.453125q3.359375 3.453125 3.359375 9.546875q0 4.9375 -1.484375 7.78125q-1.484375 2.828125 -4.3125 4.390625q-2.828125 1.5625 -6.1875 1.5625q-5.359375 0 -8.671875 -3.4375q-3.3125 -3.453125 -3.3125 -9.9375zm4.453125 0q0 4.921875 2.140625 7.375q2.140625 2.4375 5.390625 2.4375q3.234375 0 5.375 -2.453125q2.140625 -2.46875 2.140625 -7.5q0 -4.734375 -2.15625 -7.171875q-2.140625 -2.453125 -5.359375 -2.453125q-3.25 0 -5.390625 2.4375q-2.140625 2.421875 -2.140625 7.328125zm24.59021 12.796875l0 -25.578125l3.90625 0l0 3.640625q2.8125 -4.21875 8.140625 -4.21875q2.3125 0 4.25 0.828125q1.9375 0.828125 2.890625 2.1875q0.96875 1.34375 1.359375 3.203125q0.234375 1.203125 0.234375 4.203125l0 15.734375l-4.328125 0l0 -15.5625q0 -2.640625 -0.515625 -3.953125q-0.5 -1.3125 -1.796875 -2.09375q-1.28125 -0.796875 -3.015625 -0.796875q-2.765625 0 -4.78125 1.765625q-2.0 1.75 -2.0 6.671875l0 13.96875l-4.34375 0zm36.90271 -3.875l0.625 3.828125q-1.828125 0.390625 -3.28125 0.390625q-2.359375 0 -3.65625 -0.75q-1.296875 -0.75 -1.828125 -1.96875q-0.53125 -1.21875 -0.53125 -5.109375l0 -14.71875l-3.1875 0l0 -3.375l3.1875 0l0 -6.328125l4.3125 -2.609375l0 8.9375l4.359375 0l0 3.375l-4.359375 0l0 14.953125q0 1.859375 0.21875 2.390625q0.234375 0.53125 0.75 0.84375q0.515625 0.3125 1.484375 0.3125q0.71875 0 1.90625 -0.171875zm4.189331 3.875l0 -25.578125l3.90625 0l0 3.875q1.484375 -2.71875 2.75 -3.578125q1.265625 -0.875 2.78125 -0.875q2.203125 0 4.453125 1.390625l-1.484375 4.03125q-1.59375 -0.9375 -3.1875 -0.9375q-1.421875 0 -2.546875 0.859375q-1.125 0.84375 -1.609375 2.359375q-0.734375 2.3125 -0.734375 5.0625l0 13.390625l-4.328125 0zm14.864136 -12.796875q0 -7.09375 3.953125 -10.515625q3.296875 -2.84375 8.03125 -2.84375q5.28125 0 8.625 3.453125q3.359375 3.453125 3.359375 9.546875q0 4.9375 -1.484375 7.78125q-1.484375 2.828125 -4.3125 4.390625q-2.828125 1.5625 -6.1875 1.5625q-5.359375 0 -8.671875 -3.4375q-3.3125 -3.453125 -3.3125 -9.9375zm4.453125 0q0 4.921875 2.140625 7.375q2.140625 2.4375 5.390625 2.4375q3.234375 0 5.375 -2.453125q2.140625 -2.46875 2.140625 -7.5q0 -4.734375 -2.15625 -7.171875q-2.140625 -2.453125 -5.359375 -2.453125q-3.25 0 -5.390625 2.4375q-2.140625 2.421875 -2.140625 7.328125zm24.49646 12.796875l0 -35.3125l4.328125 0l0 35.3125l-4.328125 0zm10.959106 0l0 -35.3125l4.328125 0l0 35.3125l-4.328125 0zm28.568542 -8.234375l4.46875 0.546875q-1.046875 3.9375 -3.921875 6.109375q-2.859375 2.15625 -7.3125 2.15625q-5.625 0 -8.90625 -3.453125q-3.28125 -3.453125 -3.28125 -9.703125q0 -6.453125 3.3125 -10.015625q3.328125 -3.5625 8.625 -3.5625q5.140625 0 8.390625 3.5q3.25 3.484375 3.25 9.8125q0 0.390625 -0.03125 1.15625l-19.078125 0q0.25 4.21875 2.390625 6.46875q2.140625 2.234375 5.34375 2.234375q2.390625 0 4.078125 -1.25q1.6875 -1.25 2.671875 -4.0zm-14.234375 -7.015625l14.28125 0q-0.296875 -3.21875 -1.640625 -4.84375q-2.078125 -2.5 -5.375 -2.5q-2.984375 0 -5.015625 2.0q-2.03125 2.0 -2.25 5.34375zm24.105835 15.25l0 -25.578125l3.90625 0l0 3.875q1.484375 -2.71875 2.75 -3.578125q1.265625 -0.875 2.78125 -0.875q2.203125 0 4.453125 1.390625l-1.484375 4.03125q-1.59375 -0.9375 -3.1875 -0.9375q-1.421875 0 -2.546875 0.859375q-1.125 0.84375 -1.609375 2.359375q-0.734375 2.3125 -0.734375 5.0625l0 13.390625l-4.328125 0z" fill-rule="nonzero"/><path fill="#f6b26b" d="m50.367455 329.56955l90.42782 0l-45.213905 124.76904z" fill-rule="evenodd"/><path fill="#f6b26b" d="m47.502625 408.021l0 0c0 -27.50116 21.525589 -49.795288 48.078743 -49.795288l0 0c12.751274 0 24.980286 5.246277 33.996803 14.584717c9.01651 9.338409 14.08194 22.004059 14.08194 35.21057l0 0c0 27.50116 -21.525589 49.795288 -48.078743 49.795288l0 0c-26.553154 0 -48.078743 -22.294128 -48.078743 -49.795288z" fill-rule="evenodd"/><path stroke="#f6b26b" stroke-width="1.0" stroke-linejoin="round" stroke-linecap="butt" d="m47.502625 408.021l0 0c0 -27.50116 21.525589 -49.795288 48.078743 -49.795288l0 0c12.751274 0 24.980286 5.246277 33.996803 14.584717c9.01651 9.338409 14.08194 22.004059 14.08194 35.21057l0 0c0 27.50116 -21.525589 49.795288 -48.078743 49.795288l0 0c-26.553154 0 -48.078743 -22.294128 -48.078743 -49.795288z" fill-rule="evenodd"/><path fill="#f6b26b" d="m60.10105 299.3937l0 0c0 -16.846863 15.885078 -30.503937 35.480316 -30.503937c19.595238 0 35.48031 13.657074 35.48031 30.503937c0 16.846863 -15.885071 30.503937 -35.48031 30.503937c-19.595238 0 -35.480316 -13.657074 -35.480316 -30.503937z" fill-rule="evenodd"/><path fill="#c48e55" d="m80.518654 290.27075c0 -1.7548828 1.6547012 -3.1774902 3.6958694 -3.1774902c2.0411682 0 3.6958694 1.4226074 3.6958694 3.1774902c0 1.7548828 -1.6547012 3.1775208 -3.6958694 3.1775208c-2.0411682 0 -3.6958694 -1.4226379 -3.6958694 -3.1775208m22.733688 0c0 -1.7548828 1.6546936 -3.1774902 3.6958618 -3.1774902c2.0411758 0 3.6958694 1.4226074 3.6958694 3.1774902c0 1.7548828 -1.6546936 3.1775208 -3.6958694 3.1775208c-2.0411682 0 -3.6958618 -1.4226379 -3.6958618 -3.1775208" fill-rule="evenodd"/><path fill="#000000" fill-opacity="0.0" d="m76.3508 312.6967q19.230568 11.354767 38.416214 0" fill-rule="evenodd"/><path fill="#000000" fill-opacity="0.0" d="m60.10105 299.3937l0 0c0 -16.846863 15.885078 -30.503937 35.480316 -30.503937c19.595238 0 35.48031 13.657074 35.48031 30.503937c0 16.846863 -15.885071 30.503937 -35.48031 30.503937c-19.595238 0 -35.480316 -13.657074 -35.480316 -30.503937z" fill-rule="evenodd"/><path stroke="#f6b26b" stroke-width="1.0" stroke-linejoin="round" stroke-linecap="butt" d="m80.518654 290.27075c0 -1.7548828 1.6547012 -3.1774902 3.6958694 -3.1774902c2.0411682 0 3.6958694 1.4226074 3.6958694 3.1774902c0 1.7548828 -1.6547012 3.1775208 -3.6958694 3.1775208c-2.0411682 0 -3.6958694 -1.4226379 -3.6958694 -3.1775208m22.733688 0c0 -1.7548828 1.6546936 -3.1774902 3.6958618 -3.1774902c2.0411758 0 3.6958694 1.4226074 3.6958694 3.1774902c0 1.7548828 -1.6546936 3.1775208 -3.6958694 3.1775208c-2.0411682 0 -3.6958618 -1.4226379 -3.6958618 -3.1775208" fill-rule="evenodd"/><path stroke="#f6b26b" stroke-width="1.0" stroke-linejoin="round" stroke-linecap="butt" d="m76.3508 312.6967q19.230568 11.354767 38.416214 0" fill-rule="evenodd"/><path stroke="#f6b26b" stroke-width="1.0" stroke-linejoin="round" stroke-linecap="butt" d="m60.10105 299.3937l0 0c0 -16.846863 15.885078 -30.503937 35.480316 -30.503937c19.595238 0 35.48031 13.657074 35.48031 30.503937c0 16.846863 -15.885071 30.503937 -35.48031 30.503937c-19.595238 0 -35.480316 -13.657074 -35.480316 -30.503937z" fill-rule="evenodd"/><path fill="#000000" fill-opacity="0.0" d="m61.58456 443.23157l-2.0472412 36.346466" fill-rule="evenodd"/><path stroke="#000000" stroke-width="3.0" stroke-linejoin="round" stroke-linecap="butt" d="m61.58456 443.23157l-2.0472412 36.346466" fill-rule="evenodd"/><path fill="#000000" fill-opacity="0.0" d="m129.57817 443.23157l-0.22047424 37.480316" fill-rule="evenodd"/><path stroke="#000000" stroke-width="3.0" stroke-linejoin="round" stroke-linecap="butt" d="m129.57817 443.23157l-0.22047424 37.480316" fill-rule="evenodd"/><path fill="#cfe2f3" d="m38.92651 469.2651l22.645668 0l0 10.299194l-22.645668 0z" fill-rule="evenodd"/><path stroke="#000000" stroke-width="1.0" stroke-linejoin="round" stroke-linecap="butt" d="m38.92651 469.2651l22.645668 0l0 10.299194l-22.645668 0z" fill-rule="evenodd"/><path fill="#cfe2f3" d="m129.35695 471.5538l22.645676 0l0 10.299225l-22.645676 0z" fill-rule="evenodd"/><path stroke="#000000" stroke-width="1.0" stroke-linejoin="round" stroke-linecap="butt" d="m129.35695 471.5538l22.645676 0l0 10.299225l-22.645676 0z" fill-rule="evenodd"/><path fill="#000000" fill-opacity="0.0" d="m51.519684 330.75854l-28.629921 66.39368" fill-rule="evenodd"/><path stroke="#000000" stroke-width="1.0" stroke-linejoin="round" stroke-linecap="butt" d="m51.519684 330.75854l-28.629921 66.39368" fill-rule="evenodd"/><path fill="#000000" fill-opacity="0.0" d="m139.6588 333.04724l27.464554 50.362213" fill-rule="evenodd"/><path stroke="#000000" stroke-width="1.0" stroke-linejoin="round" stroke-linecap="butt" d="m139.6588 333.04724l27.464554 50.362213" fill-rule="evenodd"/><path fill="#000000" fill-opacity="0.0" d="m78.9895 280.3937c0 -5.634033 2.9738922 -12.362274 8.013123 -14.881897" fill-rule="evenodd"/><path stroke="#000000" stroke-width="1.0" stroke-linejoin="round" stroke-linecap="butt" d="m78.9895 280.3937c0 -5.634033 2.9738922 -12.362274 8.013123 -14.881897" fill-rule="evenodd"/><path fill="#000000" fill-opacity="0.0" d="m73.267715 284.97113c0.5445404 -2.7239685 1.0464172 -5.528534 2.2887115 -8.013123" fill-rule="evenodd"/><path stroke="#000000" stroke-width="1.0" stroke-linejoin="round" stroke-linecap="butt" d="m73.267715 284.97113c0.5445404 -2.7239685 1.0464172 -5.528534 2.2887115 -8.013123" fill-rule="evenodd"/><path fill="#000000" fill-opacity="0.0" d="m68.68767 287.25986c0 -5.6718445 0.052589417 -16.023651 5.7244034 -16.023651" fill-rule="evenodd"/><path stroke="#000000" stroke-width="1.0" stroke-linejoin="round" stroke-linecap="butt" d="m68.68767 287.25986c0 -5.6718445 0.052589417 -16.023651 5.7244034 -16.023651" fill-rule="evenodd"/><path fill="#000000" fill-opacity="0.0" d="m74.412865 286.11548c0 -4.5941467 -0.9102173 -9.625763 1.1443558 -13.734894" fill-rule="evenodd"/><path stroke="#000000" stroke-width="1.0" stroke-linejoin="round" stroke-linecap="butt" d="m74.412865 286.11548c0 -4.5941467 -0.9102173 -9.625763 1.1443558 -13.734894" fill-rule="evenodd"/><path fill="#000000" fill-opacity="0.0" d="m65.25459 288.4042c0.82767487 -3.3106995 3.0526657 -6.1044617 4.5774307 -9.157501" fill-rule="evenodd"/><path stroke="#000000" stroke-width="1.0" stroke-linejoin="round" stroke-linecap="butt" d="m65.25459 288.4042c0.82767487 -3.3106995 3.0526657 -6.1044617 4.5774307 -9.157501" fill-rule="evenodd"/><path fill="#000000" fill-opacity="0.0" d="m115.61942 283.82678c-0.76273346 -3.8154297 -2.2887115 -7.5552673 -2.2887115 -11.4461975" fill-rule="evenodd"/><path stroke="#000000" stroke-width="1.0" stroke-linejoin="round" stroke-linecap="butt" d="m115.61942 283.82678c-0.76273346 -3.8154297 -2.2887115 -7.5552673 -2.2887115 -11.4461975" fill-rule="evenodd"/><path fill="#000000" fill-opacity="0.0" d="m120.19948 282.6824c-0.68956757 -3.4494019 -2.2887192 -6.784149 -2.2887192 -10.301819" fill-rule="evenodd"/><path stroke="#000000" stroke-width="1.0" stroke-linejoin="round" stroke-linecap="butt" d="m120.19948 282.6824c-0.68956757 -3.4494019 -2.2887192 -6.784149 -2.2887192 -10.301819" fill-rule="evenodd"/><path fill="#000000" fill-opacity="0.0" d="m124.7769 287.25986c-2.657074 -2.657074 -4.577423 -6.5441895 -4.577423 -10.301849" fill-rule="evenodd"/><path stroke="#000000" stroke-width="1.0" stroke-linejoin="round" stroke-linecap="butt" d="m124.7769 287.25986c-2.657074 -2.657074 -4.577423 -6.5441895 -4.577423 -10.301849" fill-rule="evenodd"/><path fill="#000000" fill-opacity="0.0" d="m124.7769 284.97113c-0.8868103 -5.3229065 -2.2887115 -10.629974 -2.2887115 -16.026245" fill-rule="evenodd"/><path stroke="#000000" stroke-width="1.0" stroke-linejoin="round" stroke-linecap="butt" d="m124.7769 284.97113c-0.8868103 -5.3229065 -2.2887115 -10.629974 -2.2887115 -16.026245" fill-rule="evenodd"/><path fill="#000000" fill-opacity="0.0" d="m120.19948 289.55118c0 -5.723694 -6.25457 -9.690247 -10.301842 -13.737518" fill-rule="evenodd"/><path stroke="#000000" stroke-width="1.0" stroke-linejoin="round" stroke-linecap="butt" d="m120.19948 289.55118c0 -5.723694 -6.25457 -9.690247 -10.301842 -13.737518" fill-rule="evenodd"/><path fill="#000000" fill-opacity="0.0" d="m74.41207 281.53806c1.9072037 -3.815857 1.4584732 -11.4461975 5.724411 -11.4461975" fill-rule="evenodd"/><path stroke="#000000" stroke-width="1.0" stroke-linejoin="round" stroke-linecap="butt" d="m74.41207 281.53806c1.9072037 -3.815857 1.4584732 -11.4461975 5.724411 -11.4461975" fill-rule="evenodd"/><path fill="#999999" d="m78.23793 326.51724l0 0c-0.34146118 -5.3560486 0.7796097 -10.658234 2.8874893 -13.656586c2.1078796 -2.9983826 4.8328934 -3.1671143 7.018715 -0.43463135l0 0c0.774292 -3.1142273 2.1914597 -5.264374 3.8228455 -5.80011c1.6313858 -0.53570557 3.2853851 0.60595703 4.4616776 3.0796814l0 0c0.6595917 -2.823578 1.9547119 -4.720642 3.4257889 -5.018036c1.4710693 -0.29742432 2.9099045 1.046936 3.8059235 3.5559998l0 0c1.1916504 -2.9929504 3.0876007 -4.253113 4.8674545 -3.235199c1.7798538 1.0179138 3.1239395 4.1311035 3.4506607 7.9924316l0 0c1.4599762 0.8500366 2.6761017 3.0108643 3.334175 5.924286c0.6580734 2.913391 0.69353485 6.293518 0.097229004 9.26709l0 0c1.437645 3.9938354 1.7739487 9.315552 0.88339996 13.979187c-0.8905411 4.663666 -2.8741455 7.968567 -5.210556 8.681427c-0.016464233 4.3769836 -1.1410904 8.39328 -2.9403915 10.500793c-1.7993088 2.1075134 -3.9923172 1.9771423 -5.733757 -0.3408203l0 0c-0.7417679 5.242218 -2.8295746 9.099396 -5.3614273 9.90509c-2.531845 0.80566406 -5.0538483 -1.5845642 -6.47641 -6.138031l0 0c-1.7437592 2.2444153 -3.8361206 2.8909607 -5.8050995 1.7937927c-1.9689789 -1.097168 -3.6487122 -3.8456726 -4.6602783 -7.625458l0 0c-1.7819061 0.44509888 -3.5047607 -1.5254822 -4.3135147 -4.933716c-0.8087616 -3.4082031 -0.5312576 -7.5285645 0.69477844 -10.316132l0 0c-1.5895004 -1.9968872 -2.400566 -5.9593506 -2.0102463 -9.821136c0.39031982 -3.861786 1.89357 -6.7478027 3.7258682 -7.1531067z" fill-rule="evenodd"/><path fill="#000000" fill-opacity="0.0" d="m76.48708 343.69794l0 0c0.75009155 0.9423218 1.6166229 1.3697815 2.4832458 1.2249756m1.1350937 14.0252075c0.37268066 -0.09307861 0.7379837 -0.29022217 1.0864792 -0.5863037m9.378387 6.417694c-0.2621231 -0.8390198 -0.48158264 -1.7355652 -0.6546402 -2.674408m12.49292 -1.0927734l0 0c0.13523865 -0.9557495 0.22285461 -1.9393921 0.26139832 -2.9345703m8.41243 -7.225067c0.017532349 -4.6600037 -1.2224808 -8.926727 -3.187416 -10.967529m7.5145264 -11.692566c-0.31821442 1.586792 -0.80400085 2.9944458 -1.419281 4.112549m-2.011818 -19.304352l0 0c0.054214478 0.6408081 0.079307556 1.2912292 0.07492828 1.9422607m-8.392906 -6.69928l0 0c-0.29725647 0.74658203 -0.5421524 1.5809021 -0.72707367 2.4769592m-6.5047073 -1.0152893l0 0c-0.15840912 0.6781311 -0.27670288 1.3957214 -0.35214996 2.1362m-7.9324875 0.58432007l0 0c0.46251678 0.57818604 0.8904114 1.2741089 1.2742767 2.0724792m-11.180359 12.018799l0 0c0.047058105 0.7382202 0.121414185 1.4673157 0.22238159 2.180481" fill-rule="evenodd"/><path stroke="#999999" stroke-width="1.0" stroke-linejoin="round" stroke-linecap="butt" d="m78.23793 326.51724l0 0c-0.34146118 -5.3560486 0.7796097 -10.658234 2.8874893 -13.656586c2.1078796 -2.9983826 4.8328934 -3.1671143 7.018715 -0.43463135l0 0c0.774292 -3.1142273 2.1914597 -5.264374 3.8228455 -5.80011c1.6313858 -0.53570557 3.2853851 0.60595703 4.4616776 3.0796814l0 0c0.6595917 -2.823578 1.9547119 -4.720642 3.4257889 -5.018036c1.4710693 -0.29742432 2.9099045 1.046936 3.8059235 3.5559998l0 0c1.1916504 -2.9929504 3.0876007 -4.253113 4.8674545 -3.235199c1.7798538 1.0179138 3.1239395 4.1311035 3.4506607 7.9924316l0 0c1.4599762 0.8500366 2.6761017 3.0108643 3.334175 5.924286c0.6580734 2.913391 0.69353485 6.293518 0.097229004 9.26709l0 0c1.437645 3.9938354 1.7739487 9.315552 0.88339996 13.979187c-0.8905411 4.663666 -2.8741455 7.968567 -5.210556 8.681427c-0.016464233 4.3769836 -1.1410904 8.39328 -2.9403915 10.500793c-1.7993088 2.1075134 -3.9923172 1.9771423 -5.733757 -0.3408203l0 0c-0.7417679 5.242218 -2.8295746 9.099396 -5.3614273 9.90509c-2.531845 0.80566406 -5.0538483 -1.5845642 -6.47641 -6.138031l0 0c-1.7437592 2.2444153 -3.8361206 2.8909607 -5.8050995 1.7937927c-1.9689789 -1.097168 -3.6487122 -3.8456726 -4.6602783 -7.625458l0 0c-1.7819061 0.44509888 -3.5047607 -1.5254822 -4.3135147 -4.933716c-0.8087616 -3.4082031 -0.5312576 -7.5285645 0.69477844 -10.316132l0 0c-1.5895004 -1.9968872 -2.400566 -5.9593506 -2.0102463 -9.821136c0.39031982 -3.861786 1.89357 -6.7478027 3.7258682 -7.1531067z" fill-rule="evenodd"/><path stroke="#999999" stroke-width="1.0" stroke-linejoin="round" stroke-linecap="butt" d="m76.48708 343.69794l0 0c0.75009155 0.9423218 1.6166229 1.3697815 2.4832458 1.2249756m1.1350937 14.0252075c0.37268066 -0.09307861 0.7379837 -0.29022217 1.0864792 -0.5863037m9.378387 6.417694c-0.2621231 -0.8390198 -0.48158264 -1.7355652 -0.6546402 -2.674408m12.49292 -1.0927734l0 0c0.13523865 -0.9557495 0.22285461 -1.9393921 0.26139832 -2.9345703m8.41243 -7.225067c0.017532349 -4.6600037 -1.2224808 -8.926727 -3.187416 -10.967529m7.5145264 -11.692566c-0.31821442 1.586792 -0.80400085 2.9944458 -1.419281 4.112549m-2.011818 -19.304352l0 0c0.054214478 0.6408081 0.079307556 1.2912292 0.07492828 1.9422607m-8.392906 -6.69928l0 0c-0.29725647 0.74658203 -0.5421524 1.5809021 -0.72707367 2.4769592m-6.5047073 -1.0152893l0 0c-0.15840912 0.6781311 -0.27670288 1.3957214 -0.35214996 2.1362m-7.9324875 0.58432007l0 0c0.46251678 0.57818604 0.8904114 1.2741089 1.2742767 2.0724792m-11.180359 12.018799l0 0c0.047058105 0.7382202 0.121414185 1.4673157 0.22238159 2.180481" fill-rule="evenodd"/><path fill="#999999" d="m70.86942 313.79794l0 0c-0.4864502 -2.932312 1.1106567 -5.835083 4.1136093 -7.4766235c3.0029526 -1.6415405 6.8850937 -1.7339172 9.999092 -0.23794556l0 0c1.1030731 -1.704956 3.122017 -2.8821106 5.446144 -3.1753845c2.3241272 -0.29330444 4.680458 0.33172607 6.356247 1.6860352l0 0c0.9396744 -1.5458374 2.784752 -2.5844421 4.8804855 -2.7472534c2.0957413 -0.16281128 4.145546 0.57318115 5.4220505 1.9468384l0 0c1.6976624 -1.6385803 4.3986816 -2.3284912 6.9343185 -1.7712097c2.535637 0.5572815 4.45047 2.2616577 4.9159317 4.375641l0 0c2.079918 0.46536255 3.8124542 1.6483765 4.7499695 3.2433777c0.9375076 1.5950012 0.9880295 3.4455566 0.13851166 5.0734863l0 0c2.0481186 2.1865234 2.5272217 5.100006 1.258522 7.6532288c-1.2686996 2.5532227 -4.094597 4.3625793 -7.4231186 4.752838c-0.023468018 2.3962708 -1.6256409 4.595093 -4.1889877 5.7489014c-2.5633469 1.1538086 -5.687584 1.082428 -8.168495 -0.18658447l0 0c-1.0567322 2.8699646 -4.0310974 4.981659 -7.6380463 5.42276c-3.6069565 0.44110107 -7.1998825 -0.8674927 -9.226501 -3.3604126l0 0c-2.4842148 1.2287598 -5.465065 1.5827332 -8.270134 0.98205566c-2.805069 -0.6006775 -5.1980667 -2.1053772 -6.639183 -4.174713l0 0c-2.538559 0.24365234 -4.9929886 -0.83517456 -6.145172 -2.7010803c-1.1521835 -1.8659058 -0.7568512 -4.1216736 0.9898071 -5.6477966l0 0c-2.2644577 -1.0932312 -3.4199219 -3.2626038 -2.863861 -5.3768005c0.5560608 -2.1142273 2.6976395 -3.6942444 5.307991 -3.9161377z" fill-rule="evenodd"/><path fill="#000000" fill-opacity="0.0" d="m68.375114 323.2039l0 0c1.0686035 0.51589966 2.303093 0.74993896 3.537712 0.6706543m1.617096 7.678406c0.53092957 -0.050964355 1.0513458 -0.15887451 1.547821 -0.3209839m13.360756 3.5135193c-0.37342834 -0.4593506 -0.6860733 -0.9501953 -0.9326248 -1.4641724m17.797821 -0.5982666l0 0c0.19265747 -0.5232239 0.317482 -1.0617676 0.37239075 -1.6065979m11.984619 -3.9555054c0.024971008 -2.551239 -1.7415848 -4.887146 -4.5408936 -6.004425m10.705429 -6.401367c-0.45333862 0.8687134 -1.1454086 1.6393738 -2.0219574 2.2514954m-2.8660965 -10.5686035l0 0c0.07723999 0.35083008 0.11299133 0.7069092 0.10674286 1.0633545m-11.956795 -3.667694l0 0c-0.4234848 0.40875244 -0.772377 0.86550903 -1.03582 1.3560791m-9.266808 -0.55584717l0 0c-0.22568512 0.37127686 -0.3942032 0.76412964 -0.5016861 1.1695251m-11.30088 0.31988525l0 0c0.6589203 0.31655884 1.2685089 0.6975403 1.8153839 1.134613m-15.927902 6.5799866l0 0c0.06703949 0.4041443 0.17298126 0.8033142 0.3168106 1.1937561" fill-rule="evenodd"/><path stroke="#999999" stroke-width="1.0" stroke-linejoin="round" stroke-linecap="butt" d="m70.86942 313.79794l0 0c-0.4864502 -2.932312 1.1106567 -5.835083 4.1136093 -7.4766235c3.0029526 -1.6415405 6.8850937 -1.7339172 9.999092 -0.23794556l0 0c1.1030731 -1.704956 3.122017 -2.8821106 5.446144 -3.1753845c2.3241272 -0.29330444 4.680458 0.33172607 6.356247 1.6860352l0 0c0.9396744 -1.5458374 2.784752 -2.5844421 4.8804855 -2.7472534c2.0957413 -0.16281128 4.145546 0.57318115 5.4220505 1.9468384l0 0c1.6976624 -1.6385803 4.3986816 -2.3284912 6.9343185 -1.7712097c2.535637 0.5572815 4.45047 2.2616577 4.9159317 4.375641l0 0c2.079918 0.46536255 3.8124542 1.6483765 4.7499695 3.2433777c0.9375076 1.5950012 0.9880295 3.4455566 0.13851166 5.0734863l0 0c2.0481186 2.1865234 2.5272217 5.100006 1.258522 7.6532288c-1.2686996 2.5532227 -4.094597 4.3625793 -7.4231186 4.752838c-0.023468018 2.3962708 -1.6256409 4.595093 -4.1889877 5.7489014c-2.5633469 1.1538086 -5.687584 1.082428 -8.168495 -0.18658447l0 0c-1.0567322 2.8699646 -4.0310974 4.981659 -7.6380463 5.42276c-3.6069565 0.44110107 -7.1998825 -0.8674927 -9.226501 -3.3604126l0 0c-2.4842148 1.2287598 -5.465065 1.5827332 -8.270134 0.98205566c-2.805069 -0.6006775 -5.1980667 -2.1053772 -6.639183 -4.174713l0 0c-2.538559 0.24365234 -4.9929886 -0.83517456 -6.145172 -2.7010803c-1.1521835 -1.8659058 -0.7568512 -4.1216736 0.9898071 -5.6477966l0 0c-2.2644577 -1.0932312 -3.4199219 -3.2626038 -2.863861 -5.3768005c0.5560608 -2.1142273 2.6976395 -3.6942444 5.307991 -3.9161377z" fill-rule="evenodd"/><path stroke="#999999" stroke-width="1.0" stroke-linejoin="round" stroke-linecap="butt" d="m68.375114 323.2039l0 0c1.0686035 0.51589966 2.303093 0.74993896 3.537712 0.6706543m1.617096 7.678406c0.53092957 -0.050964355 1.0513458 -0.15887451 1.547821 -0.3209839m13.360756 3.5135193c-0.37342834 -0.4593506 -0.6860733 -0.9501953 -0.9326248 -1.4641724m17.797821 -0.5982666l0 0c0.19265747 -0.5232239 0.317482 -1.0617676 0.37239075 -1.6065979m11.984619 -3.9555054c0.024971008 -2.551239 -1.7415848 -4.887146 -4.5408936 -6.004425m10.705429 -6.401367c-0.45333862 0.8687134 -1.1454086 1.6393738 -2.0219574 2.2514954m-2.8660965 -10.5686035l0 0c0.07723999 0.35083008 0.11299133 0.7069092 0.10674286 1.0633545m-11.956795 -3.667694l0 0c-0.4234848 0.40875244 -0.772377 0.86550903 -1.03582 1.3560791m-9.266808 -0.55584717l0 0c-0.22568512 0.37127686 -0.3942032 0.76412964 -0.5016861 1.1695251m-11.30088 0.31988525l0 0c0.6589203 0.31655884 1.2685089 0.6975403 1.8153839 1.134613m-15.927902 6.5799866l0 0c0.06703949 0.4041443 0.17298126 0.8033142 0.3168106 1.1937561" fill-rule="evenodd"/><path fill="#000000" fill-opacity="0.0" d="m82.42519 317.021c8.402367 0 17.665802 2.6132812 25.181107 -1.1443481" fill-rule="evenodd"/><path stroke="#000000" stroke-width="1.0" stroke-linejoin="round" stroke-linecap="butt" d="m82.42519 317.021c8.402367 0 17.665802 2.6132812 25.181107 -1.1443481" fill-rule="evenodd"/><path fill="#000000" fill-opacity="0.0" d="m167.27559 370.8294l329.51184 -1.1023865" fill-rule="evenodd"/><path stroke="#000000" stroke-width="1.0" stroke-linejoin="round" stroke-linecap="butt" d="m167.27559 370.8294l323.51184 -1.0823059" fill-rule="evenodd"/><path fill="#000000" stroke="#000000" stroke-width="1.0" stroke-linecap="butt" d="m490.79297 371.39883l4.5325317 -1.6669006l-4.543579 -1.6365356z" fill-rule="evenodd"/><path fill="#000000" fill-opacity="0.0" d="m497.0866 345.63647l-146.80313 -136.15747" fill-rule="evenodd"/><path stroke="#000000" stroke-width="1.0" stroke-linejoin="round" stroke-linecap="butt" d="m497.0866 345.63647l-142.40399 -132.07733" fill-rule="evenodd"/><path fill="#000000" stroke="#000000" stroke-width="1.0" stroke-linecap="butt" d="m355.80582 212.3481l-4.4505005 -1.8749695l2.204071 4.297043z" fill-rule="evenodd"/><path fill="#000000" fill-opacity="0.0" d="m399.4908 159.11023l98.456696 112.188995" fill-rule="evenodd"/><path stroke="#000000" stroke-width="1.0" stroke-linejoin="round" stroke-linecap="butt" d="m399.4908 159.11023l94.499054 107.67932" fill-rule="evenodd"/><path fill="#000000" stroke="#000000" stroke-width="1.0" stroke-linecap="butt" d="m492.74838 267.87906l4.234833 2.3213806l-1.7519226 -4.500366z" fill-rule="evenodd"/><path fill="#000000" fill-opacity="0.0" d="m185.44357 436.12598l336.53543 195.68506" fill-rule="evenodd"/><path stroke="#000000" stroke-width="1.0" stroke-linejoin="round" stroke-linecap="butt" d="m185.44357 436.12598l331.34854 192.66907" fill-rule="evenodd"/><path fill="#000000" stroke="#000000" stroke-width="1.0" stroke-linecap="butt" d="m515.96185 630.2229l4.753357 0.8532715l-3.0928345 -3.7090454z" fill-rule="evenodd"/><path fill="#000000" fill-opacity="0.0" d="m152.00262 321.77167l363.30707 0l0 50.078735l-363.30707 0z" fill-rule="evenodd"/><path fill="#000000" d="m160.97137 355.09164l6.953125 -18.125l2.59375 0l7.421875 18.125l-2.734375 0l-2.125 -5.484375l-7.578125 0l-1.984375 5.484375l-2.546875 0zm5.21875 -7.4375l6.15625 0l-1.890625 -5.03125q-0.875 -2.28125 -1.296875 -3.75q-0.34375 1.734375 -0.96875 3.453125l-2.0 5.328125zm21.940536 2.625l2.1875 0.28125q-0.34375 2.265625 -1.828125 3.546875q-1.484375 1.28125 -3.625 1.28125q-2.703125 0 -4.34375 -1.765625q-1.640625 -1.765625 -1.640625 -5.046875q0 -2.125 0.703125 -3.71875q0.71875 -1.59375 2.15625 -2.390625q1.4375 -0.8125 3.125 -0.8125q2.140625 0 3.5 1.09375q1.359375 1.078125 1.75 3.0625l-2.171875 0.34375q-0.296875 -1.328125 -1.09375 -1.984375q-0.78125 -0.671875 -1.890625 -0.671875q-1.6875 0 -2.734375 1.203125q-1.046875 1.203125 -1.046875 3.8125q0 2.640625 1.015625 3.84375q1.015625 1.203125 2.640625 1.203125q1.3125 0 2.1875 -0.796875q0.875 -0.8125 1.109375 -2.484375zm12.6640625 0l2.1875 0.28125q-0.34375 2.265625 -1.828125 3.546875q-1.484375 1.28125 -3.625 1.28125q-2.703125 0 -4.34375 -1.765625q-1.640625 -1.765625 -1.640625 -5.046875q0 -2.125 0.703125 -3.71875q0.71875 -1.59375 2.15625 -2.390625q1.4375 -0.8125 3.125 -0.8125q2.140625 0 3.5 1.09375q1.359375 1.078125 1.75 3.0625l-2.171875 0.34375q-0.296875 -1.328125 -1.09375 -1.984375q-0.78125 -0.671875 -1.890625 -0.671875q-1.6875 0 -2.734375 1.203125q-1.046875 1.203125 -1.046875 3.8125q0 2.640625 1.015625 3.84375q1.015625 1.203125 2.640625 1.203125q1.3125 0 2.1875 -0.796875q0.875 -0.8125 1.109375 -2.484375zm3.2734375 -1.75q0 -3.65625 2.03125 -5.40625q1.6875 -1.46875 4.125 -1.46875q2.703125 0 4.421875 1.78125q1.71875 1.78125 1.71875 4.90625q0 2.53125 -0.765625 3.984375q-0.75 1.453125 -2.203125 2.265625q-1.453125 0.796875 -3.171875 0.796875q-2.765625 0 -4.46875 -1.765625q-1.6875 -1.765625 -1.6875 -5.09375zm2.28125 0q0 2.515625 1.09375 3.78125q1.109375 1.25 2.78125 1.25q1.65625 0 2.75 -1.265625q1.109375 -1.265625 1.109375 -3.84375q0 -2.4375 -1.109375 -3.6875q-1.109375 -1.265625 -2.75 -1.265625q-1.671875 0 -2.78125 1.25q-1.09375 1.25 -1.09375 3.78125zm21.242554 6.5625l0 -1.921875q-1.53125 2.21875 -4.171875 2.21875q-1.15625 0 -2.171875 -0.4375q-1.0 -0.453125 -1.5 -1.125q-0.484375 -0.671875 -0.6875 -1.65625q-0.125 -0.65625 -0.125 -2.078125l0 -8.140625l2.21875 0l0 7.296875q0 1.734375 0.140625 2.34375q0.203125 0.875 0.875 1.375q0.6875 0.5 1.6875 0.5q1.015625 0 1.890625 -0.5q0.875 -0.515625 1.234375 -1.40625q0.375 -0.890625 0.375 -2.5625l0 -7.046875l2.21875 0l0 13.140625l-1.984375 0zm5.4769287 0l0 -13.140625l2.0 0l0 1.875q1.453125 -2.171875 4.1875 -2.171875q1.1875 0 2.171875 0.4375q1.0 0.421875 1.484375 1.125q0.5 0.6875 0.703125 1.640625q0.125 0.609375 0.125 2.15625l0 8.078125l-2.234375 0l0 -7.984375q0 -1.359375 -0.265625 -2.03125q-0.25 -0.6875 -0.90625 -1.078125q-0.65625 -0.40625 -1.546875 -0.40625q-1.421875 0 -2.46875 0.90625q-1.03125 0.890625 -1.03125 3.421875l0 7.171875l-2.21875 0zm18.945679 -1.984375l0.3125 1.953125q-0.9375 0.203125 -1.671875 0.203125q-1.21875 0 -1.890625 -0.375q-0.65625 -0.390625 -0.9375 -1.015625q-0.265625 -0.625 -0.265625 -2.625l0 -7.5625l-1.640625 0l0 -1.734375l1.640625 0l0 -3.25l2.21875 -1.328125l0 4.578125l2.234375 0l0 1.734375l-2.234375 0l0 7.6875q0 0.953125 0.109375 1.234375q0.125 0.265625 0.390625 0.421875q0.265625 0.15625 0.75 0.15625q0.375 0 0.984375 -0.078125zm8.683334 -3.84375l2.265625 -0.1875q0.15625 1.359375 0.734375 2.234375q0.59375 0.859375 1.828125 1.40625q1.234375 0.53125 2.78125 0.53125q1.375 0 2.421875 -0.40625q1.0625 -0.40625 1.5625 -1.109375q0.515625 -0.71875 0.515625 -1.5625q0 -0.859375 -0.5 -1.484375q-0.484375 -0.640625 -1.625 -1.078125q-0.71875 -0.28125 -3.21875 -0.875q-2.5 -0.609375 -3.5 -1.140625q-1.296875 -0.671875 -1.9375 -1.671875q-0.640625 -1.015625 -0.640625 -2.265625q0 -1.375 0.78125 -2.5625q0.78125 -1.203125 2.265625 -1.8125q1.5 -0.625 3.34375 -0.625q2.015625 0 3.546875 0.65625q1.546875 0.640625 2.375 1.90625q0.828125 1.25 0.890625 2.859375l-2.3125 0.171875q-0.171875 -1.71875 -1.25 -2.59375q-1.0625 -0.890625 -3.15625 -0.890625q-2.171875 0 -3.171875 0.796875q-1.0 0.796875 -1.0 1.921875q0 0.984375 0.703125 1.609375q0.703125 0.640625 3.625 1.296875q2.921875 0.65625 4.015625 1.15625q1.578125 0.734375 2.328125 1.859375q0.765625 1.109375 0.765625 2.5625q0 1.453125 -0.84375 2.734375q-0.828125 1.28125 -2.375 2.0q-1.546875 0.703125 -3.484375 0.703125q-2.46875 0 -4.140625 -0.71875q-1.65625 -0.71875 -2.609375 -2.15625q-0.9375 -1.4375 -0.984375 -3.265625zm17.440521 -9.75l0 -2.546875l2.21875 0l0 2.546875l-2.21875 0zm0 15.578125l0 -13.140625l2.21875 0l0 13.140625l-2.21875 0zm5.2052307 1.09375l2.15625 0.3125q0.140625 1.0 0.765625 1.46875q0.828125 0.609375 2.25 0.609375q1.546875 0 2.390625 -0.625q0.84375 -0.609375 1.140625 -1.71875q0.171875 -0.6875 0.15625 -2.859375q-1.453125 1.71875 -3.625 1.71875q-2.71875 0 -4.203125 -1.953125q-1.484375 -1.953125 -1.484375 -4.6875q0 -1.875 0.671875 -3.46875q0.6875 -1.59375 1.984375 -2.453125q1.296875 -0.875 3.03125 -0.875q2.328125 0 3.84375 1.890625l0 -1.59375l2.046875 0l0 11.359375q0 3.0625 -0.625 4.34375q-0.625 1.28125 -1.984375 2.015625q-1.34375 0.75 -3.328125 0.75q-2.34375 0 -3.796875 -1.0625q-1.4375 -1.046875 -1.390625 -3.171875zm1.84375 -7.890625q0 2.578125 1.015625 3.765625q1.03125 1.1875 2.578125 1.1875q1.53125 0 2.5625 -1.171875q1.046875 -1.1875 1.046875 -3.71875q0 -2.40625 -1.078125 -3.625q-1.0625 -1.234375 -2.5625 -1.234375q-1.484375 0 -2.53125 1.21875q-1.03125 1.203125 -1.03125 3.578125zm12.648804 6.796875l0 -13.140625l2.0 0l0 1.875q1.453125 -2.171875 4.1875 -2.171875q1.1875 0 2.171875 0.4375q1.0 0.421875 1.484375 1.125q0.5 0.6875 0.703125 1.640625q0.125 0.609375 0.125 2.15625l0 8.078125l-2.234375 0l0 -7.984375q0 -1.359375 -0.265625 -2.03125q-0.25 -0.6875 -0.90625 -1.078125q-0.65625 -0.40625 -1.546875 -0.40625q-1.421875 0 -2.46875 0.90625q-1.03125 0.890625 -1.03125 3.421875l0 7.171875l-2.21875 0zm29.732666 0l0 -1.921875q-1.53125 2.21875 -4.171875 2.21875q-1.15625 0 -2.171875 -0.4375q-1.0 -0.453125 -1.5 -1.125q-0.484375 -0.671875 -0.6875 -1.65625q-0.125 -0.65625 -0.125 -2.078125l0 -8.140625l2.21875 0l0 7.296875q0 1.734375 0.140625 2.34375q0.203125 0.875 0.875 1.375q0.6875 0.5 1.6875 0.5q1.015625 0 1.890625 -0.5q0.875 -0.515625 1.234375 -1.40625q0.375 -0.890625 0.375 -2.5625l0 -7.046875l2.21875 0l0 13.140625l-1.984375 0zm5.4769287 5.03125l0 -18.171875l2.03125 0l0 1.71875q0.71875 -1.0 1.609375 -1.5q0.90625 -0.515625 2.1875 -0.515625q1.6875 0 2.96875 0.875q1.296875 0.859375 1.953125 2.4375q0.65625 1.578125 0.65625 3.453125q0 2.015625 -0.734375 3.640625q-0.71875 1.609375 -2.09375 2.46875q-1.375 0.859375 -2.90625 0.859375q-1.109375 0 -2.0 -0.46875q-0.875 -0.46875 -1.453125 -1.1875l0 6.390625l-2.21875 0zm2.015625 -11.53125q0 2.546875 1.015625 3.765625q1.03125 1.203125 2.5 1.203125q1.484375 0 2.53125 -1.25q1.0625 -1.265625 1.0625 -3.890625q0 -2.515625 -1.03125 -3.765625q-1.03125 -1.25 -2.46875 -1.25q-1.421875 0 -2.515625 1.328125q-1.09375 1.328125 -1.09375 3.859375zm19.076385 6.5l0 -13.140625l2.0 0l0 2.0q0.78125 -1.40625 1.421875 -1.84375q0.65625 -0.453125 1.4375 -0.453125q1.125 0 2.28125 0.71875l-0.765625 2.078125q-0.8125 -0.484375 -1.640625 -0.484375q-0.71875 0 -1.3125 0.4375q-0.578125 0.4375 -0.828125 1.21875q-0.359375 1.1875 -0.359375 2.59375l0 6.875l-2.234375 0zm17.450104 -4.234375l2.296875 0.296875q-0.53125 2.015625 -2.015625 3.125q-1.46875 1.109375 -3.75 1.109375q-2.890625 0 -4.578125 -1.765625q-1.6875 -1.78125 -1.6875 -4.984375q0 -3.3125 1.703125 -5.140625q1.71875 -1.84375 4.4375 -1.84375q2.640625 0 4.296875 1.796875q1.671875 1.796875 1.671875 5.046875q0 0.203125 -0.015625 0.59375l-9.78125 0q0.109375 2.171875 1.203125 3.328125q1.109375 1.140625 2.765625 1.140625q1.21875 0 2.078125 -0.640625q0.875 -0.640625 1.375 -2.0625zm-7.3125 -3.59375l7.34375 0q-0.15625 -1.65625 -0.84375 -2.484375q-1.0625 -1.28125 -2.75 -1.28125q-1.546875 0 -2.59375 1.03125q-1.03125 1.015625 -1.15625 2.734375zm20.789429 12.859375l0 -6.421875q-0.53125 0.71875 -1.46875 1.203125q-0.921875 0.484375 -1.96875 0.484375q-2.34375 0 -4.03125 -1.859375q-1.6875 -1.875 -1.6875 -5.125q0 -1.984375 0.6875 -3.546875q0.6875 -1.578125 1.984375 -2.390625q1.3125 -0.8125 2.875 -0.8125q2.4375 0 3.828125 2.0625l0 -1.765625l2.0 0l0 18.171875l-2.21875 0zm-6.875 -11.640625q0 2.546875 1.0625 3.8125q1.078125 1.265625 2.5625 1.265625q1.421875 0 2.4375 -1.203125q1.03125 -1.203125 1.03125 -3.671875q0 -2.625 -1.09375 -3.9375q-1.078125 -1.328125 -2.53125 -1.328125q-1.453125 0 -2.46875 1.234375q-1.0 1.21875 -1.0 3.828125zm21.195679 6.609375l0 -1.921875q-1.53125 2.21875 -4.171875 2.21875q-1.15625 0 -2.171875 -0.4375q-1.0 -0.453125 -1.5 -1.125q-0.484375 -0.671875 -0.6875 -1.65625q-0.125 -0.65625 -0.125 -2.078125l0 -8.140625l2.21875 0l0 7.296875q0 1.734375 0.140625 2.34375q0.203125 0.875 0.875 1.375q0.6875 0.5 1.6875 0.5q1.015625 0 1.890625 -0.5q0.875 -0.515625 1.234375 -1.40625q0.375 -0.890625 0.375 -2.5625l0 -7.046875l2.21875 0l0 13.140625l-1.984375 0zm14.461273 -4.234375l2.296875 0.296875q-0.53125 2.015625 -2.015625 3.125q-1.46875 1.109375 -3.75 1.109375q-2.8905945 0 -4.5780945 -1.765625q-1.6875 -1.78125 -1.6875 -4.984375q0 -3.3125 1.703125 -5.140625q1.71875 -1.84375 4.4374695 -1.84375q2.640625 0 4.296875 1.796875q1.671875 1.796875 1.671875 5.046875q0 0.203125 -0.015625 0.59375l-9.7812195 0q0.109375 2.171875 1.203125 3.328125q1.1093445 1.140625 2.7655945 1.140625q1.21875 0 2.078125 -0.640625q0.875 -0.640625 1.375 -2.0625zm-7.3124695 -3.59375l7.3437195 0q-0.15625 -1.65625 -0.84375 -2.484375q-1.0625 -1.28125 -2.75 -1.28125q-1.546875 0 -2.5937195 1.03125q-1.03125 1.015625 -1.15625 2.734375zm11.523773 3.90625l2.203125 -0.34375q0.1875 1.328125 1.03125 2.03125q0.84375 0.703125 2.359375 0.703125q1.546875 0 2.28125 -0.625q0.75 -0.625 0.75 -1.46875q0 -0.75 -0.65625 -1.1875q-0.46875 -0.296875 -2.28125 -0.75q-2.453125 -0.625 -3.40625 -1.078125q-0.9375 -0.453125 -1.421875 -1.25q-0.484375 -0.796875 -0.484375 -1.75q0 -0.890625 0.390625 -1.625q0.40625 -0.75 1.09375 -1.25q0.53125 -0.390625 1.421875 -0.65625q0.890625 -0.265625 1.921875 -0.265625q1.546875 0 2.71875 0.453125q1.171875 0.4375 1.71875 1.203125q0.5625 0.765625 0.765625 2.03125l-2.171875 0.296875q-0.140625 -1.015625 -0.859375 -1.578125q-0.71875 -0.5625 -2.015625 -0.5625q-1.53125 0 -2.1875 0.5q-0.65625 0.5 -0.65625 1.1875q0 0.4375 0.28125 0.78125q0.265625 0.359375 0.84375 0.59375q0.34375 0.125 1.96875 0.5625q2.359375 0.640625 3.296875 1.046875q0.9375 0.390625 1.46875 1.15625q0.53125 0.765625 0.53125 1.90625q0 1.109375 -0.65625 2.09375q-0.640625 0.984375 -1.875 1.53125q-1.21875 0.53125 -2.765625 0.53125q-2.5625 0 -3.90625 -1.0625q-1.328125 -1.0625 -1.703125 -3.15625zm18.414062 1.9375l0.3125 1.953125q-0.9375 0.203125 -1.671875 0.203125q-1.21875 0 -1.890625 -0.375q-0.65625 -0.390625 -0.9375 -1.015625q-0.265625 -0.625 -0.265625 -2.625l0 -7.5625l-1.640625 0l0 -1.734375l1.640625 0l0 -3.25l2.21875 -1.328125l0 4.578125l2.234375 0l0 1.734375l-2.234375 0l0 7.6875q0 0.953125 0.109375 1.234375q0.125 0.265625 0.390625 0.421875q0.265625 0.15625 0.75 0.15625q0.375 0 0.984375 -0.078125z" fill-rule="nonzero"/><path fill="#ffffff" d="m185.43832 235.51706l277.03937 0l0 50.078735l-277.03937 0z" fill-rule="evenodd"/><path fill="#000000" d="m220.21388 250.71207l2.40625 0l0 10.46875q0 2.734375 -0.625 4.34375q-0.609375 1.609375 -2.234375 2.625q-1.609375 1.0 -4.21875 1.0q-2.5625 0 -4.1875 -0.875q-1.609375 -0.890625 -2.3125 -2.546875q-0.6875 -1.671875 -0.6875 -4.546875l0 -10.46875l2.40625 0l0 10.453125q0 2.359375 0.4375 3.484375q0.4375 1.125 1.5 1.734375q1.078125 0.59375 2.625 0.59375q2.640625 0 3.765625 -1.1875q1.125 -1.203125 1.125 -4.625l0 -10.453125zm6.119293 23.15625l0 -18.171875l2.03125 0l0 1.71875q0.71875 -1.0 1.609375 -1.5q0.90625 -0.515625 2.1875 -0.515625q1.6875 0 2.96875 0.875q1.296875 0.859375 1.953125 2.4375q0.65625 1.578125 0.65625 3.453125q0 2.015625 -0.734375 3.640625q-0.71875 1.609375 -2.09375 2.46875q-1.375 0.859375 -2.90625 0.859375q-1.109375 0 -2.0 -0.46875q-0.875 -0.46875 -1.453125 -1.1875l0 6.390625l-2.21875 0zm2.015625 -11.53125q0 2.546875 1.015625 3.765625q1.03125 1.203125 2.5 1.203125q1.484375 0 2.53125 -1.25q1.0625 -1.265625 1.0625 -3.890625q0 -2.515625 -1.03125 -3.765625q-1.03125 -1.25 -2.46875 -1.25q-1.421875 0 -2.515625 1.328125q-1.09375 1.328125 -1.09375 3.859375zm20.586304 6.5l0 -1.65625q-1.25 1.953125 -3.671875 1.953125q-1.5625 0 -2.890625 -0.859375q-1.3125 -0.875 -2.046875 -2.421875q-0.71875 -1.546875 -0.71875 -3.5625q0 -1.96875 0.65625 -3.5625q0.65625 -1.609375 1.96875 -2.46875q1.3125 -0.859375 2.9375 -0.859375q1.1875 0 2.109375 0.515625q0.9375 0.5 1.515625 1.296875l0 -6.5l2.203125 0l0 18.125l-2.0625 0zm-7.03125 -6.546875q0 2.515625 1.0625 3.765625q1.0625 1.25 2.515625 1.25q1.453125 0 2.46875 -1.1875q1.03125 -1.203125 1.03125 -3.65625q0 -2.6875 -1.046875 -3.953125q-1.03125 -1.265625 -2.5625 -1.265625q-1.484375 0 -2.484375 1.21875q-0.984375 1.203125 -0.984375 3.828125zm21.164444 4.921875q-1.234375 1.0625 -2.375 1.5q-1.140625 0.421875 -2.453125 0.421875q-2.171875 0 -3.3281403 -1.046875q-1.15625 -1.0625 -1.15625 -2.71875q0 -0.953125 0.4375 -1.75q0.4375 -0.796875 1.140625 -1.28125q0.71876526 -0.484375 1.6093903 -0.734375q0.65625 -0.171875 1.96875 -0.328125q2.703125 -0.328125 3.96875 -0.765625q0.015625 -0.46875 0.015625 -0.59375q0 -1.359375 -0.625 -1.90625q-0.859375 -0.765625 -2.53125 -0.765625q-1.578125 0 -2.328125 0.5625q-0.75 0.546875 -1.109375 1.9375l-2.1718903 -0.296875q0.296875 -1.390625 0.96875 -2.25q0.6875 -0.859375 1.9687653 -1.328125q1.296875 -0.46875 2.984375 -0.46875q1.6875 0 2.734375 0.40625q1.046875 0.390625 1.546875 1.0q0.5 0.59375 0.6875 1.5q0.125 0.578125 0.125 2.0625l0 2.96875q0 3.09375 0.140625 3.921875q0.140625 0.828125 0.5625 1.578125l-2.328125 0q-0.34375 -0.6875 -0.453125 -1.625zm-0.1875 -4.96875q-1.203125 0.5 -3.625 0.84375q-1.375 0.203125 -1.953125 0.453125q-0.5625 0.234375 -0.875 0.71875q-0.296875 0.46875 -0.296875 1.046875q0 0.890625 0.671875 1.484375q0.671875 0.59375 1.96875 0.59375q1.28125 0 2.28125 -0.5625q1.0 -0.5625 1.484375 -1.53125q0.34375 -0.75 0.34375 -2.234375l0 -0.8125zm10.570679 4.609375l0.3125 1.953125q-0.9375 0.203125 -1.671875 0.203125q-1.21875 0 -1.890625 -0.375q-0.65625 -0.390625 -0.9375 -1.015625q-0.265625 -0.625 -0.265625 -2.625l0 -7.5625l-1.640625 0l0 -1.734375l1.640625 0l0 -3.25l2.21875 -1.328125l0 4.578125l2.234375 0l0 1.734375l-2.234375 0l0 7.6875q0 0.953125 0.109375 1.234375q0.125 0.265625 0.390625 0.421875q0.265625 0.15625 0.75 0.15625q0.375 0 0.984375 -0.078125zm11.161957 -2.25l2.296875 0.296875q-0.53125 2.015625 -2.015625 3.125q-1.46875 1.109375 -3.75 1.109375q-2.890625 0 -4.578125 -1.765625q-1.6875 -1.78125 -1.6875 -4.984375q0 -3.3125 1.703125 -5.140625q1.71875 -1.84375 4.4375 -1.84375q2.640625 0 4.296875 1.796875q1.671875 1.796875 1.671875 5.046875q0 0.203125 -0.015625 0.59375l-9.78125 0q0.109375 2.171875 1.203125 3.328125q1.109375 1.140625 2.765625 1.140625q1.21875 0 2.078125 -0.640625q0.875 -0.640625 1.375 -2.0625zm-7.3125 -3.59375l7.34375 0q-0.15625 -1.65625 -0.84375 -2.484375q-1.0625 -1.28125 -2.75 -1.28125q-1.546875 0 -2.59375 1.03125q-1.03125 1.015625 -1.15625 2.734375zm24.310791 5.84375l0.3125 1.953125q-0.9375 0.203125 -1.671875 0.203125q-1.21875 0 -1.890625 -0.375q-0.65625 -0.390625 -0.9375 -1.015625q-0.265625 -0.625 -0.265625 -2.625l0 -7.5625l-1.640625 0l0 -1.734375l1.640625 0l0 -3.25l2.21875 -1.328125l0 4.578125l2.234375 0l0 1.734375l-2.234375 0l0 7.6875q0 0.953125 0.109375 1.234375q0.125 0.265625 0.390625 0.421875q0.265625 0.15625 0.75 0.15625q0.375 0 0.984375 -0.078125zm2.1775818 1.984375l0 -18.125l2.21875 0l0 6.5q1.5625 -1.8125 3.9375 -1.8125q1.453125 0 2.53125 0.578125q1.078125 0.578125 1.546875 1.59375q0.46875 1.015625 0.46875 2.9375l0 8.328125l-2.234375 0l0 -8.328125q0 -1.671875 -0.734375 -2.421875q-0.71875 -0.765625 -2.03125 -0.765625q-1.0 0 -1.875 0.515625q-0.859375 0.515625 -1.234375 1.390625q-0.375 0.875 -0.375 2.421875l0 7.1875l-2.21875 0zm23.070679 -4.234375l2.296875 0.296875q-0.53125 2.015625 -2.015625 3.125q-1.46875 1.109375 -3.75 1.109375q-2.890625 0 -4.578125 -1.765625q-1.6875 -1.78125 -1.6875 -4.984375q0 -3.3125 1.703125 -5.140625q1.71875 -1.84375 4.4375 -1.84375q2.640625 0 4.296875 1.796875q1.671875 1.796875 1.671875 5.046875q0 0.203125 -0.015625 0.59375l-9.78125 0q0.109375 2.171875 1.203125 3.328125q1.109375 1.140625 2.765625 1.140625q1.21875 0 2.078125 -0.640625q0.875 -0.640625 1.375 -2.0625zm-7.3125 -3.59375l7.34375 0q-0.15625 -1.65625 -0.84375 -2.484375q-1.0625 -1.28125 -2.75 -1.28125q-1.546875 0 -2.59375 1.03125q-1.03125 1.015625 -1.15625 2.734375zm27.967041 7.828125l0 -1.65625q-1.25 1.953125 -3.671875 1.953125q-1.5625 0 -2.890625 -0.859375q-1.3125 -0.875 -2.046875 -2.421875q-0.71875 -1.546875 -0.71875 -3.5625q0 -1.96875 0.65625 -3.5625q0.65625 -1.609375 1.96875 -2.46875q1.3125 -0.859375 2.9375 -0.859375q1.1875 0 2.109375 0.515625q0.9375 0.5 1.515625 1.296875l0 -6.5l2.203125 0l0 18.125l-2.0625 0zm-7.03125 -6.546875q0 2.515625 1.0625 3.765625q1.0625 1.25 2.515625 1.25q1.453125 0 2.46875 -1.1875q1.03125 -1.203125 1.03125 -3.65625q0 -2.6875 -1.046875 -3.953125q-1.03125 -1.265625 -2.5625 -1.265625q-1.484375 0 -2.484375 1.21875q-0.984375 1.203125 -0.984375 3.828125zm21.164429 4.921875q-1.234375 1.0625 -2.375 1.5q-1.140625 0.421875 -2.453125 0.421875q-2.171875 0 -3.328125 -1.046875q-1.15625 -1.0625 -1.15625 -2.71875q0 -0.953125 0.4375 -1.75q0.4375 -0.796875 1.140625 -1.28125q0.71875 -0.484375 1.609375 -0.734375q0.65625 -0.171875 1.96875 -0.328125q2.703125 -0.328125 3.96875 -0.765625q0.015625 -0.46875 0.015625 -0.59375q0 -1.359375 -0.625 -1.90625q-0.859375 -0.765625 -2.53125 -0.765625q-1.578125 0 -2.328125 0.5625q-0.75 0.546875 -1.109375 1.9375l-2.171875 -0.296875q0.296875 -1.390625 0.96875 -2.25q0.6875 -0.859375 1.96875 -1.328125q1.296875 -0.46875 2.984375 -0.46875q1.6875 0 2.734375 0.40625q1.046875 0.390625 1.546875 1.0q0.5 0.59375 0.6875 1.5q0.125 0.578125 0.125 2.0625l0 2.96875q0 3.09375 0.140625 3.921875q0.140625 0.828125 0.5625 1.578125l-2.328125 0q-0.34375 -0.6875 -0.453125 -1.625zm-0.1875 -4.96875q-1.203125 0.5 -3.625 0.84375q-1.375 0.203125 -1.953125 0.453125q-0.5625 0.234375 -0.875 0.71875q-0.296875 0.46875 -0.296875 1.046875q0 0.890625 0.671875 1.484375q0.671875 0.59375 1.96875 0.59375q1.28125 0 2.28125 -0.5625q1.0 -0.5625 1.484375 -1.53125q0.34375 -0.75 0.34375 -2.234375l0 -0.8125zm10.570679 4.609375l0.3125 1.953125q-0.9375 0.203125 -1.671875 0.203125q-1.21875 0 -1.890625 -0.375q-0.65625 -0.390625 -0.9375 -1.015625q-0.265625 -0.625 -0.265625 -2.625l0 -7.5625l-1.640625 0l0 -1.734375l1.640625 0l0 -3.25l2.21875 -1.328125l0 4.578125l2.234375 0l0 1.734375l-2.234375 0l0 7.6875q0 0.953125 0.109375 1.234375q0.125 0.265625 0.390625 0.421875q0.265625 0.15625 0.75 0.15625q0.375 0 0.984375 -0.078125zm10.740082 0.359375q-1.234375 1.0625 -2.375 1.5q-1.140625 0.421875 -2.453125 0.421875q-2.171875 0 -3.328125 -1.046875q-1.15625 -1.0625 -1.15625 -2.71875q0 -0.953125 0.4375 -1.75q0.4375 -0.796875 1.140625 -1.28125q0.71875 -0.484375 1.609375 -0.734375q0.65625 -0.171875 1.96875 -0.328125q2.703125 -0.328125 3.96875 -0.765625q0.015625 -0.46875 0.015625 -0.59375q0 -1.359375 -0.625 -1.90625q-0.859375 -0.765625 -2.53125 -0.765625q-1.578125 0 -2.328125 0.5625q-0.75 0.546875 -1.109375 1.9375l-2.171875 -0.296875q0.296875 -1.390625 0.96875 -2.25q0.6875 -0.859375 1.96875 -1.328125q1.296875 -0.46875 2.984375 -0.46875q1.6875 0 2.734375 0.40625q1.046875 0.390625 1.546875 1.0q0.5 0.59375 0.6875 1.5q0.125 0.578125 0.125 2.0625l0 2.96875q0 3.09375 0.140625 3.921875q0.140625 0.828125 0.5625 1.578125l-2.328125 0q-0.34375 -0.6875 -0.453125 -1.625zm-0.1875 -4.96875q-1.203125 0.5 -3.625 0.84375q-1.375 0.203125 -1.953125 0.453125q-0.5625 0.234375 -0.875 0.71875q-0.296875 0.46875 -0.296875 1.046875q0 0.890625 0.671875 1.484375q0.671875 0.59375 1.96875 0.59375q1.28125 0 2.28125 -0.5625q1.0 -0.5625 1.484375 -1.53125q0.34375 -0.75 0.34375 -2.234375l0 -0.8125zm7.7581787 6.59375l-2.0625 0l0 -18.125l2.234375 0l0 6.46875q1.40625 -1.78125 3.59375 -1.78125q1.203125 0 2.28125 0.5q1.09375 0.484375 1.78125 1.375q0.703125 0.875 1.09375 2.125q0.40625 1.25 0.40625 2.671875q0 3.375 -1.671875 5.21875q-1.671875 1.84375 -4.0 1.84375q-2.328125 0 -3.65625 -1.9375l0 1.640625zm-0.015625 -6.671875q0 2.375 0.640625 3.421875q1.046875 1.71875 2.84375 1.71875q1.453125 0 2.515625 -1.265625q1.0625 -1.265625 1.0625 -3.78125q0 -2.578125 -1.015625 -3.796875q-1.015625 -1.21875 -2.46875 -1.21875q-1.453125 0 -2.515625 1.265625q-1.0625 1.265625 -1.0625 3.65625zm20.617554 5.046875q-1.234375 1.0625 -2.375 1.5q-1.140625 0.421875 -2.453125 0.421875q-2.171875 0 -3.328125 -1.046875q-1.15625 -1.0625 -1.15625 -2.71875q0 -0.953125 0.4375 -1.75q0.4375 -0.796875 1.140625 -1.28125q0.71875 -0.484375 1.609375 -0.734375q0.65625 -0.171875 1.96875 -0.328125q2.703125 -0.328125 3.96875 -0.765625q0.015625 -0.46875 0.015625 -0.59375q0 -1.359375 -0.625 -1.90625q-0.859375 -0.765625 -2.53125 -0.765625q-1.578125 0 -2.328125 0.5625q-0.75 0.546875 -1.109375 1.9375l-2.171875 -0.296875q0.296875 -1.390625 0.96875 -2.25q0.6875 -0.859375 1.96875 -1.328125q1.296875 -0.46875 2.984375 -0.46875q1.6875 0 2.734375 0.40625q1.046875 0.390625 1.546875 1.0q0.5 0.59375 0.6875 1.5q0.125 0.578125 0.125 2.0625l0 2.96875q0 3.09375 0.140625 3.921875q0.140625 0.828125 0.5625 1.578125l-2.328125 0q-0.34375 -0.6875 -0.453125 -1.625zm-0.1875 -4.96875q-1.203125 0.5 -3.625 0.84375q-1.375 0.203125 -1.953125 0.453125q-0.5625 0.234375 -0.875 0.71875q-0.296875 0.46875 -0.296875 1.046875q0 0.890625 0.671875 1.484375q0.671875 0.59375 1.96875 0.59375q1.28125 0 2.28125 -0.5625q1.0 -0.5625 1.484375 -1.53125q0.34375 -0.75 0.34375 -2.234375l0 -0.8125zm4.8206787 2.671875l2.203125 -0.34375q0.1875 1.328125 1.03125 2.03125q0.84375 0.703125 2.359375 0.703125q1.546875 0 2.28125 -0.625q0.75 -0.625 0.75 -1.46875q0 -0.75 -0.65625 -1.1875q-0.46875 -0.296875 -2.28125 -0.75q-2.453125 -0.625 -3.40625 -1.078125q-0.9375 -0.453125 -1.421875 -1.25q-0.484375 -0.796875 -0.484375 -1.75q0 -0.890625 0.390625 -1.625q0.40625 -0.75 1.09375 -1.25q0.53125 -0.390625 1.421875 -0.65625q0.890625 -0.265625 1.921875 -0.265625q1.546875 0 2.71875 0.453125q1.171875 0.4375 1.71875 1.203125q0.5625 0.765625 0.765625 2.03125l-2.171875 0.296875q-0.140625 -1.015625 -0.859375 -1.578125q-0.71875 -0.5625 -2.015625 -0.5625q-1.53125 0 -2.1875 0.5q-0.65625 0.5 -0.65625 1.1875q0 0.4375 0.28125 0.78125q0.265625 0.359375 0.84375 0.59375q0.34375 0.125 1.96875 0.5625q2.359375 0.640625 3.296875 1.046875q0.9375 0.390625 1.46875 1.15625q0.53125 0.765625 0.53125 1.90625q0 1.109375 -0.65625 2.09375q-0.640625 0.984375 -1.875 1.53125q-1.21875 0.53125 -2.765625 0.53125q-2.5625 0 -3.90625 -1.0625q-1.328125 -1.0625 -1.703125 -3.15625zm22.539062 -0.3125l2.296875 0.296875q-0.53125 2.015625 -2.015625 3.125q-1.46875 1.109375 -3.75 1.109375q-2.890625 0 -4.578125 -1.765625q-1.6875 -1.78125 -1.6875 -4.984375q0 -3.3125 1.703125 -5.140625q1.71875 -1.84375 4.4375 -1.84375q2.640625 0 4.296875 1.796875q1.671875 1.796875 1.671875 5.046875q0 0.203125 -0.015625 0.59375l-9.78125 0q0.109375 2.171875 1.203125 3.328125q1.109375 1.140625 2.765625 1.140625q1.21875 0 2.078125 -0.640625q0.875 -0.640625 1.375 -2.0625zm-7.3125 -3.59375l7.34375 0q-0.15625 -1.65625 -0.84375 -2.484375q-1.0625 -1.28125 -2.75 -1.28125q-1.546875 0 -2.59375 1.03125q-1.03125 1.015625 -1.15625 2.734375z" fill-rule="nonzero"/><path fill="#ffffff" d="m399.4908 183.14961l226.64566 0l0 50.078735l-226.64566 0z" fill-rule="evenodd"/><path fill="#000000" d="m428.93848 209.36023l0 -2.125l7.6875 -0.015625l0 6.734375q-1.78125 1.40625 -3.65625 2.125q-1.875 0.703125 -3.859375 0.703125q-2.671875 0 -4.859375 -1.140625q-2.171875 -1.15625 -3.296875 -3.3125q-1.109375 -2.171875 -1.109375 -4.84375q0 -2.640625 1.109375 -4.9375q1.109375 -2.296875 3.1875 -3.40625q2.078125 -1.109375 4.78125 -1.109375q1.96875 0 3.5625 0.640625q1.59375 0.625 2.484375 1.765625q0.90625 1.140625 1.375 2.96875l-2.15625 0.59375q-0.40625 -1.375 -1.015625 -2.171875q-0.609375 -0.796875 -1.734375 -1.265625q-1.125 -0.484375 -2.5 -0.484375q-1.640625 0 -2.84375 0.5q-1.203125 0.5 -1.9375 1.328125q-0.734375 0.8125 -1.140625 1.78125q-0.6875 1.6875 -0.6875 3.65625q0 2.421875 0.828125 4.0625q0.828125 1.625 2.421875 2.421875q1.609375 0.78125 3.390625 0.78125q1.5625 0 3.046875 -0.59375q1.484375 -0.609375 2.25 -1.28125l0 -3.375l-5.328125 0zm10.951019 -8.46875l0 -2.546875l2.21875 0l0 2.546875l-2.21875 0zm0 15.578125l0 -13.140625l2.21875 0l0 13.140625l-2.21875 0zm9.252106 0l-4.984375 -13.140625l2.34375 0l2.8125 7.875q0.46875 1.265625 0.84375 2.640625q0.296875 -1.03125 0.828125 -2.5l2.921875 -8.015625l2.296875 0l-4.984375 13.140625l-2.078125 0zm18.007812 -4.234375l2.296875 0.296875q-0.53125 2.015625 -2.015625 3.125q-1.46875 1.109375 -3.75 1.109375q-2.890625 0 -4.578125 -1.765625q-1.6875 -1.78125 -1.6875 -4.984375q0 -3.3125 1.703125 -5.140625q1.71875 -1.84375 4.4375 -1.84375q2.640625 0 4.296875 1.796875q1.671875 1.796875 1.671875 5.046875q0 0.203125 -0.015625 0.59375l-9.78125 0q0.109375 2.171875 1.203125 3.328125q1.109375 1.140625 2.765625 1.140625q1.21875 0 2.078125 -0.640625q0.875 -0.640625 1.375 -2.0625zm-7.3125 -3.59375l7.34375 0q-0.15625 -1.65625 -0.84375 -2.484375q-1.0625 -1.28125 -2.75 -1.28125q-1.546875 0 -2.59375 1.03125q-1.03125 1.015625 -1.15625 2.734375zm11.523804 3.90625l2.203125 -0.34375q0.1875 1.328125 1.03125 2.03125q0.84375 0.703125 2.359375 0.703125q1.546875 0 2.28125 -0.625q0.75 -0.625 0.75 -1.46875q0 -0.75 -0.65625 -1.1875q-0.46875 -0.296875 -2.28125 -0.75q-2.453125 -0.625 -3.40625 -1.078125q-0.9375 -0.453125 -1.421875 -1.25q-0.484375 -0.796875 -0.484375 -1.75q0 -0.890625 0.390625 -1.625q0.40625 -0.75 1.09375 -1.25q0.53125 -0.390625 1.421875 -0.65625q0.890625 -0.265625 1.921875 -0.265625q1.546875 0 2.71875 0.453125q1.171875 0.4375 1.71875 1.203125q0.5625 0.765625 0.765625 2.03125l-2.171875 0.296875q-0.140625 -1.015625 -0.859375 -1.578125q-0.71875 -0.5625 -2.015625 -0.5625q-1.53125 0 -2.1875 0.5q-0.65625 0.5 -0.65625 1.1875q0 0.4375 0.28125 0.78125q0.265625 0.359375 0.84375 0.59375q0.34375 0.125 1.96875 0.5625q2.359375 0.640625 3.296875 1.046875q0.9375 0.390625 1.46875 1.15625q0.53125 0.765625 0.53125 1.90625q0 1.109375 -0.65625 2.09375q-0.640625 0.984375 -1.875 1.53125q-1.21875 0.53125 -2.765625 0.53125q-2.5625 0 -3.90625 -1.0625q-1.328125 -1.0625 -1.703125 -3.15625zm25.45105 1.9375l0.3125 1.953125q-0.9375 0.203125 -1.671875 0.203125q-1.21875 0 -1.890625 -0.375q-0.65625 -0.390625 -0.9375 -1.015625q-0.265625 -0.625 -0.265625 -2.625l0 -7.5625l-1.640625 0l0 -1.734375l1.640625 0l0 -3.25l2.21875 -1.328125l0 4.578125l2.234375 0l0 1.734375l-2.234375 0l0 7.6875q0 0.953125 0.109375 1.234375q0.125 0.265625 0.390625 0.421875q0.265625 0.15625 0.75 0.15625q0.375 0 0.984375 -0.078125zm2.1775818 1.984375l0 -18.125l2.21875 0l0 6.5q1.5625 -1.8125 3.9375 -1.8125q1.453125 0 2.53125 0.578125q1.078125 0.578125 1.546875 1.59375q0.46875 1.015625 0.46875 2.9375l0 8.328125l-2.234375 0l0 -8.328125q0 -1.671875 -0.734375 -2.421875q-0.71875 -0.765625 -2.03125 -0.765625q-1.0 0 -1.875 0.515625q-0.859375 0.515625 -1.234375 1.390625q-0.375 0.875 -0.375 2.421875l0 7.1875l-2.21875 0zm23.07071 -4.234375l2.296875 0.296875q-0.53125 2.015625 -2.015625 3.125q-1.46875 1.109375 -3.75 1.109375q-2.890625 0 -4.578125 -1.765625q-1.6875 -1.78125 -1.6875 -4.984375q0 -3.3125 1.703125 -5.140625q1.71875 -1.84375 4.4375 -1.84375q2.640625 0 4.296875 1.796875q1.671875 1.796875 1.671875 5.046875q0 0.203125 -0.015625 0.59375l-9.78125 0q0.109375 2.171875 1.203125 3.328125q1.109375 1.140625 2.765625 1.140625q1.21875 0 2.078125 -0.640625q0.875 -0.640625 1.375 -2.0625zm-7.3125 -3.59375l7.34375 0q-0.15625 -1.65625 -0.84375 -2.484375q-1.0625 -1.28125 -2.75 -1.28125q-1.546875 0 -2.59375 1.03125q-1.03125 1.015625 -1.15625 2.734375zm19.420105 7.828125l0 -13.140625l2.0 0l0 2.0q0.78125 -1.40625 1.421875 -1.84375q0.65625 -0.453125 1.4375 -0.453125q1.125 0 2.28125 0.71875l-0.765625 2.078125q-0.8125 -0.484375 -1.640625 -0.484375q-0.71875 0 -1.3125 0.4375q-0.578125 0.4375 -0.828125 1.21875q-0.359375 1.1875 -0.359375 2.59375l0 6.875l-2.234375 0zm17.450073 -4.234375l2.296875 0.296875q-0.53125 2.015625 -2.015625 3.125q-1.46875 1.109375 -3.75 1.109375q-2.890625 0 -4.578125 -1.765625q-1.6875 -1.78125 -1.6875 -4.984375q0 -3.3125 1.703125 -5.140625q1.71875 -1.84375 4.4375 -1.84375q2.640625 0 4.296875 1.796875q1.671875 1.796875 1.671875 5.046875q0 0.203125 -0.015625 0.59375l-9.78125 0q0.109375 2.171875 1.203125 3.328125q1.109375 1.140625 2.765625 1.140625q1.21875 0 2.078125 -0.640625q0.875 -0.640625 1.375 -2.0625zm-7.3125 -3.59375l7.34375 0q-0.15625 -1.65625 -0.84375 -2.484375q-1.0625 -1.28125 -2.75 -1.28125q-1.546875 0 -2.59375 1.03125q-1.03125 1.015625 -1.15625 2.734375zm11.523804 3.90625l2.203125 -0.34375q0.1875 1.328125 1.03125 2.03125q0.84375 0.703125 2.359375 0.703125q1.546875 0 2.28125 -0.625q0.75 -0.625 0.75 -1.46875q0 -0.75 -0.65625 -1.1875q-0.46875 -0.296875 -2.28125 -0.75q-2.453125 -0.625 -3.40625 -1.078125q-0.9375 -0.453125 -1.421875 -1.25q-0.484375 -0.796875 -0.484375 -1.75q0 -0.890625 0.390625 -1.625q0.40625 -0.75 1.09375 -1.25q0.53125 -0.390625 1.421875 -0.65625q0.890625 -0.265625 1.921875 -0.265625q1.546875 0 2.71875 0.453125q1.171875 0.4375 1.71875 1.203125q0.5625 0.765625 0.765625 2.03125l-2.171875 0.296875q-0.140625 -1.015625 -0.859375 -1.578125q-0.71875 -0.5625 -2.015625 -0.5625q-1.53125 0 -2.1875 0.5q-0.65625 0.5 -0.65625 1.1875q0 0.4375 0.28125 0.78125q0.265625 0.359375 0.84375 0.59375q0.34375 0.125 1.96875 0.5625q2.359375 0.640625 3.296875 1.046875q0.9375 0.390625 1.46875 1.15625q0.53125 0.765625 0.53125 1.90625q0 1.109375 -0.65625 2.09375q-0.640625 0.984375 -1.875 1.53125q-1.21875 0.53125 -2.765625 0.53125q-2.5625 0 -3.90625 -1.0625q-1.328125 -1.0625 -1.703125 -3.15625zm22.164062 3.921875l0 -1.921875q-1.53125 2.21875 -4.171875 2.21875q-1.15625 0 -2.171875 -0.4375q-1.0 -0.453125 -1.5 -1.125q-0.484375 -0.671875 -0.6875 -1.65625q-0.125 -0.65625 -0.125 -2.078125l0 -8.140625l2.21875 0l0 7.296875q0 1.734375 0.140625 2.34375q0.203125 0.875 0.875 1.375q0.6875 0.5 1.6875 0.5q1.015625 0 1.890625 -0.5q0.875 -0.515625 1.234375 -1.40625q0.375 -0.890625 0.375 -2.5625l0 -7.046875l2.21875 0l0 13.140625l-1.984375 0zm5.4300537 0l0 -18.125l2.21875 0l0 18.125l-2.21875 0zm10.533386 -1.984375l0.3125 1.953125q-0.9375 0.203125 -1.671875 0.203125q-1.21875 0 -1.890625 -0.375q-0.65625 -0.390625 -0.9375 -1.015625q-0.265625 -0.625 -0.265625 -2.625l0 -7.5625l-1.640625 0l0 -1.734375l1.640625 0l0 -3.25l2.21875 -1.328125l0 4.578125l2.234375 0l0 1.734375l-2.234375 0l0 7.6875q0 0.953125 0.109375 1.234375q0.125 0.265625 0.390625 0.421875q0.265625 0.15625 0.75 0.15625q0.375 0 0.984375 -0.078125zm1.2869873 -1.9375l2.203125 -0.34375q0.1875 1.328125 1.03125 2.03125q0.84375 0.703125 2.359375 0.703125q1.546875 0 2.28125 -0.625q0.75 -0.625 0.75 -1.46875q0 -0.75 -0.65625 -1.1875q-0.46875 -0.296875 -2.28125 -0.75q-2.453125 -0.625 -3.40625 -1.078125q-0.9375 -0.453125 -1.421875 -1.25q-0.484375 -0.796875 -0.484375 -1.75q0 -0.890625 0.390625 -1.625q0.40625 -0.75 1.09375 -1.25q0.53125 -0.390625 1.421875 -0.65625q0.890625 -0.265625 1.921875 -0.265625q1.546875 0 2.71875 0.453125q1.171875 0.4375 1.71875 1.203125q0.5625 0.765625 0.765625 2.03125l-2.171875 0.296875q-0.140625 -1.015625 -0.859375 -1.578125q-0.71875 -0.5625 -2.015625 -0.5625q-1.53125 0 -2.1875 0.5q-0.65625 0.5 -0.65625 1.1875q0 0.4375 0.28125 0.78125q0.265625 0.359375 0.84375 0.59375q0.34375 0.125 1.96875 0.5625q2.359375 0.640625 3.296875 1.046875q0.9375 0.390625 1.46875 1.15625q0.53125 0.765625 0.53125 1.90625q0 1.109375 -0.65625 2.09375q-0.640625 0.984375 -1.875 1.53125q-1.21875 0.53125 -2.765625 0.53125q-2.5625 0 -3.90625 -1.0625q-1.328125 -1.0625 -1.703125 -3.15625z" fill-rule="nonzero"/><path fill="#000000" fill-opacity="0.0" d="m692.51447 440.6929l0.5983887 98.39371" fill-rule="evenodd"/><path stroke="#000000" stroke-width="1.0" stroke-linejoin="round" stroke-linecap="butt" d="m692.51447 440.6929l0.56188965 92.39383" fill-rule="evenodd"/><path fill="#000000" stroke="#000000" stroke-width="1.0" stroke-linecap="butt" d="m691.4247 533.09674l1.6792603 4.528015l1.6241455 -4.5480957z" fill-rule="evenodd"/><path fill="#ffffff" d="m563.7507 453.27036l249.82678 0l0 53.322815l-249.82678 0z" fill-rule="evenodd"/><path fill="#000000" d="m579.4336 482.71283l2.5 -0.21875q0.171875 1.5 0.8125 2.46875q0.65625 0.953125 2.015625 1.5625q1.375 0.59375 3.09375 0.59375q1.515625 0 2.671875 -0.453125q1.15625 -0.453125 1.71875 -1.234375q0.578125 -0.796875 0.578125 -1.71875q0 -0.953125 -0.546875 -1.65625q-0.546875 -0.703125 -1.796875 -1.171875q-0.8125 -0.328125 -3.578125 -0.984375q-2.765625 -0.65625 -3.859375 -1.25q-1.4375 -0.75 -2.140625 -1.859375q-0.703125 -1.125 -0.703125 -2.5q0 -1.515625 0.859375 -2.828125q0.859375 -1.328125 2.515625 -2.015625q1.65625 -0.6875 3.671875 -0.6875q2.234375 0 3.9375 0.71875q1.703125 0.71875 2.609375 2.125q0.921875 1.390625 0.984375 3.15625l-2.546875 0.1875q-0.203125 -1.90625 -1.390625 -2.875q-1.171875 -0.96875 -3.484375 -0.96875q-2.40625 0 -3.515625 0.890625q-1.09375 0.875 -1.09375 2.109375q0 1.09375 0.78125 1.78125q0.765625 0.703125 4.0 1.4375q3.234375 0.71875 4.4375 1.265625q1.75 0.8125 2.578125 2.046875q0.84375 1.234375 0.84375 2.859375q0 1.59375 -0.921875 3.015625q-0.921875 1.40625 -2.640625 2.203125q-1.703125 0.78125 -3.859375 0.78125q-2.71875 0 -4.5625 -0.796875q-1.828125 -0.796875 -2.875 -2.390625q-1.046875 -1.59375 -1.09375 -3.59375zm19.253906 6.4375l0 -20.046875l2.46875 0l0 7.1875q1.71875 -1.984375 4.34375 -1.984375q1.609375 0 2.796875 0.640625q1.1875 0.625 1.703125 1.75q0.515625 1.125 0.515625 3.25l0 9.203125l-2.453125 0l0 -9.203125q0 -1.84375 -0.8125 -2.6875q-0.796875 -0.84375 -2.25 -0.84375q-1.09375 0 -2.0625 0.578125q-0.96875 0.5625 -1.375 1.53125q-0.40625 0.96875 -0.40625 2.6875l0 7.9375l-2.46875 0zm14.666016 -7.265625q0 -4.03125 2.234375 -5.96875q1.875 -1.609375 4.5625 -1.609375q3.0 0 4.890625 1.96875q1.90625 1.953125 1.90625 5.40625q0 2.8125 -0.84375 4.421875q-0.828125 1.59375 -2.4375 2.484375q-1.609375 0.890625 -3.515625 0.890625q-3.046875 0 -4.921875 -1.953125q-1.875 -1.953125 -1.875 -5.640625zm2.515625 0q0 2.796875 1.21875 4.1875q1.21875 1.375 3.0625 1.375q1.84375 0 3.046875 -1.390625q1.21875 -1.390625 1.21875 -4.25q0 -2.6875 -1.21875 -4.078125q-1.21875 -1.390625 -3.046875 -1.390625q-1.84375 0 -3.0625 1.390625q-1.21875 1.375 -1.21875 4.15625zm16.65039 7.265625l-4.453125 -14.515625l2.546875 0l2.3125 8.375l0.859375 3.125q0.0625 -0.234375 0.75 -3.0l2.3125 -8.5l2.53125 0l2.171875 8.421875l0.71875 2.765625l0.84375 -2.796875l2.484375 -8.390625l2.390625 0l-4.53125 14.515625l-2.5625 0l-2.3125 -8.703125l-0.5625 -2.46875l-2.9375 11.171875l-2.5625 0zm16.548828 -4.328125l2.4375 -0.390625q0.203125 1.46875 1.140625 2.25q0.9375 0.765625 2.625 0.765625q1.6875 0 2.5 -0.6875q0.828125 -0.6875 0.828125 -1.609375q0 -0.84375 -0.71875 -1.3125q-0.515625 -0.328125 -2.515625 -0.84375q-2.71875 -0.6875 -3.765625 -1.171875q-1.03125 -0.5 -1.578125 -1.375q-0.546875 -0.890625 -0.546875 -1.96875q0 -0.96875 0.4375 -1.796875q0.453125 -0.828125 1.21875 -1.375q0.578125 -0.421875 1.5625 -0.703125q1.0 -0.296875 2.140625 -0.296875q1.703125 0 2.984375 0.5q1.296875 0.484375 1.90625 1.328125q0.625 0.828125 0.859375 2.234375l-2.40625 0.328125q-0.171875 -1.109375 -0.953125 -1.734375q-0.78125 -0.640625 -2.21875 -0.640625q-1.703125 0 -2.421875 0.5625q-0.71875 0.5625 -0.71875 1.3125q0 0.484375 0.296875 0.859375q0.296875 0.40625 0.9375 0.65625q0.375 0.140625 2.171875 0.625q2.625 0.703125 3.65625 1.15625q1.03125 0.4375 1.609375 1.28125q0.59375 0.84375 0.59375 2.109375q0 1.234375 -0.71875 2.328125q-0.71875 1.078125 -2.078125 1.671875q-1.34375 0.59375 -3.0625 0.59375q-2.828125 0 -4.3125 -1.171875q-1.484375 -1.1875 -1.890625 -3.484375zm28.138672 2.125l0.359375 2.171875q-1.046875 0.21875 -1.859375 0.21875q-1.34375 0 -2.078125 -0.421875q-0.734375 -0.421875 -1.046875 -1.109375q-0.296875 -0.6875 -0.296875 -2.90625l0 -8.359375l-1.796875 0l0 -1.90625l1.796875 0l0 -3.59375l2.453125 -1.484375l0 5.078125l2.46875 0l0 1.90625l-2.46875 0l0 8.5q0 1.046875 0.125 1.34375q0.125 0.296875 0.421875 0.484375q0.296875 0.171875 0.84375 0.171875q0.40625 0 1.078125 -0.09375zm2.4042969 2.203125l0 -20.046875l2.46875 0l0 7.1875q1.71875 -1.984375 4.34375 -1.984375q1.609375 0 2.796875 0.640625q1.1875 0.625 1.703125 1.75q0.515625 1.125 0.515625 3.25l0 9.203125l-2.453125 0l0 -9.203125q0 -1.84375 -0.8125 -2.6875q-0.796875 -0.84375 -2.25 -0.84375q-1.09375 0 -2.0625 0.578125q-0.96875 0.5625 -1.375 1.53125q-0.40625 0.96875 -0.40625 2.6875l0 7.9375l-2.46875 0zm25.509766 -4.671875l2.546875 0.3125q-0.59375 2.21875 -2.234375 3.453125q-1.625 1.234375 -4.15625 1.234375q-3.171875 0 -5.046875 -1.953125q-1.859375 -1.96875 -1.859375 -5.515625q0 -3.65625 1.875 -5.671875q1.890625 -2.03125 4.90625 -2.03125q2.90625 0 4.75 1.984375q1.84375 1.96875 1.84375 5.578125q0 0.21875 -0.015625 0.65625l-10.828125 0q0.140625 2.390625 1.359375 3.65625q1.21875 1.265625 3.03125 1.265625q1.359375 0 2.3125 -0.703125q0.953125 -0.71875 1.515625 -2.265625zm-8.078125 -3.984375l8.109375 0q-0.15625 -1.828125 -0.921875 -2.75q-1.1875 -1.421875 -3.0625 -1.421875q-1.6875 0 -2.84375 1.140625q-1.15625 1.125 -1.28125 3.03125zm21.460938 8.65625l0 -14.515625l2.21875 0l0 2.203125q0.84375 -1.546875 1.5625 -2.03125q0.71875 -0.5 1.578125 -0.5q1.25 0 2.53125 0.78125l-0.84375 2.296875q-0.90625 -0.546875 -1.796875 -0.546875q-0.8125 0 -1.453125 0.5q-0.640625 0.484375 -0.921875 1.34375q-0.40625 1.3125 -0.40625 2.859375l0 7.609375l-2.46875 0zm19.292969 -4.671875l2.546875 0.3125q-0.59375 2.21875 -2.234375 3.453125q-1.625 1.234375 -4.15625 1.234375q-3.171875 0 -5.046875 -1.953125q-1.859375 -1.96875 -1.859375 -5.515625q0 -3.65625 1.875 -5.671875q1.890625 -2.03125 4.90625 -2.03125q2.90625 0 4.75 1.984375q1.84375 1.96875 1.84375 5.578125q0 0.21875 -0.015625 0.65625l-10.828125 0q0.140625 2.390625 1.359375 3.65625q1.21875 1.265625 3.03125 1.265625q1.359375 0 2.3125 -0.703125q0.953125 -0.71875 1.515625 -2.265625zm-8.078125 -3.984375l8.109375 0q-0.15625 -1.828125 -0.921875 -2.75q-1.1875 -1.421875 -3.0625 -1.421875q-1.6875 0 -2.84375 1.140625q-1.15625 1.125 -1.28125 3.03125zm12.728516 4.328125l2.4375 -0.390625q0.203125 1.46875 1.140625 2.25q0.9375 0.765625 2.625 0.765625q1.6875 0 2.5 -0.6875q0.828125 -0.6875 0.828125 -1.609375q0 -0.84375 -0.71875 -1.3125q-0.515625 -0.328125 -2.515625 -0.84375q-2.71875 -0.6875 -3.765625 -1.171875q-1.03125 -0.5 -1.578125 -1.375q-0.546875 -0.890625 -0.546875 -1.96875q0 -0.96875 0.4375 -1.796875q0.453125 -0.828125 1.21875 -1.375q0.578125 -0.421875 1.5625 -0.703125q1.0 -0.296875 2.140625 -0.296875q1.703125 0 2.984375 0.5q1.296875 0.484375 1.90625 1.328125q0.625 0.828125 0.859375 2.234375l-2.40625 0.328125q-0.171875 -1.109375 -0.953125 -1.734375q-0.78125 -0.640625 -2.21875 -0.640625q-1.703125 0 -2.421875 0.5625q-0.71875 0.5625 -0.71875 1.3125q0 0.484375 0.296875 0.859375q0.296875 0.40625 0.9375 0.65625q0.375 0.140625 2.171875 0.625q2.625 0.703125 3.65625 1.15625q1.03125 0.4375 1.609375 1.28125q0.59375 0.84375 0.59375 2.109375q0 1.234375 -0.71875 2.328125q-0.71875 1.078125 -2.078125 1.671875q-1.34375 0.59375 -3.0625 0.59375q-2.828125 0 -4.3125 -1.171875q-1.484375 -1.1875 -1.890625 -3.484375zm24.5 4.328125l0 -2.140625q-1.6875 2.46875 -4.609375 2.46875q-1.28125 0 -2.40625 -0.484375q-1.109375 -0.5 -1.65625 -1.234375q-0.53125 -0.75 -0.75 -1.84375q-0.140625 -0.71875 -0.140625 -2.296875l0 -8.984375l2.453125 0l0 8.046875q0 1.921875 0.15625 2.59375q0.234375 0.96875 0.984375 1.53125q0.75 0.546875 1.859375 0.546875q1.109375 0 2.078125 -0.5625q0.96875 -0.5625 1.375 -1.53125q0.40625 -0.984375 0.40625 -2.84375l0 -7.78125l2.453125 0l0 14.515625l-2.203125 0zm6.0097656 0l0 -20.046875l2.453125 0l0 20.046875l-2.453125 0zm11.642578 -2.203125l0.359375 2.171875q-1.046875 0.21875 -1.859375 0.21875q-1.34375 0 -2.078125 -0.421875q-0.734375 -0.421875 -1.046875 -1.109375q-0.296875 -0.6875 -0.296875 -2.90625l0 -8.359375l-1.796875 0l0 -1.90625l1.796875 0l0 -3.59375l2.453125 -1.484375l0 5.078125l2.46875 0l0 1.90625l-2.46875 0l0 8.5q0 1.046875 0.125 1.34375q0.125 0.296875 0.421875 0.484375q0.296875 0.171875 0.84375 0.171875q0.40625 0 1.078125 -0.09375zm1.4199219 -2.125l2.4375 -0.390625q0.203125 1.46875 1.140625 2.25q0.9375 0.765625 2.625 0.765625q1.6875 0 2.5 -0.6875q0.828125 -0.6875 0.828125 -1.609375q0 -0.84375 -0.71875 -1.3125q-0.515625 -0.328125 -2.515625 -0.84375q-2.71875 -0.6875 -3.765625 -1.171875q-1.03125 -0.5 -1.578125 -1.375q-0.546875 -0.890625 -0.546875 -1.96875q0 -0.96875 0.4375 -1.796875q0.453125 -0.828125 1.21875 -1.375q0.578125 -0.421875 1.5625 -0.703125q1.0 -0.296875 2.140625 -0.296875q1.703125 0 2.984375 0.5q1.296875 0.484375 1.90625 1.328125q0.625 0.828125 0.859375 2.234375l-2.40625 0.328125q-0.171875 -1.109375 -0.953125 -1.734375q-0.78125 -0.640625 -2.21875 -0.640625q-1.703125 0 -2.421875 0.5625q-0.71875 0.5625 -0.71875 1.3125q0 0.484375 0.296875 0.859375q0.296875 0.40625 0.9375 0.65625q0.375 0.140625 2.171875 0.625q2.625 0.703125 3.65625 1.15625q1.03125 0.4375 1.609375 1.28125q0.59375 0.84375 0.59375 2.109375q0 1.234375 -0.71875 2.328125q-0.71875 1.078125 -2.078125 1.671875q-1.34375 0.59375 -3.0625 0.59375q-2.828125 0 -4.3125 -1.171875q-1.484375 -1.1875 -1.890625 -3.484375z" fill-rule="nonzero"/><path fill="#ffffff" d="m226.64568 491.0656l261.95276 0l0 54.92914l-261.95276 0z" fill-rule="evenodd"/><path fill="#000000" d="m253.78717 521.47565l2.625 -0.21875q0.1875 1.5625 0.859375 2.578125q0.6875 1.015625 2.109375 1.640625q1.4375 0.609375 3.234375 0.609375q1.59375 0 2.796875 -0.46875q1.21875 -0.46875 1.8125 -1.28125q0.59375 -0.828125 0.59375 -1.8125q0 -0.984375 -0.578125 -1.71875q-0.5625 -0.734375 -1.875 -1.234375q-0.84375 -0.34375 -3.734375 -1.03125q-2.890625 -0.6875 -4.0625 -1.3125q-1.5 -0.78125 -2.234375 -1.953125q-0.734375 -1.171875 -0.734375 -2.609375q0 -1.5937805 0.890625 -2.9687805q0.90625 -1.390625 2.640625 -2.109375q1.734375 -0.71875 3.859375 -0.71875q2.328125 0 4.109375 0.765625q1.78125 0.75 2.734375 2.21875q0.96875 1.453125 1.046875 3.2969055l-2.671875 0.203125q-0.21875 -2.0000305 -1.453125 -3.0156555q-1.234375 -1.015625 -3.65625 -1.015625q-2.515625 0 -3.671875 0.921875q-1.15625 0.921875 -1.15625 2.2344055q0 1.125 0.8125 1.859375q0.8125 0.734375 4.1875 1.5q3.390625 0.765625 4.65625 1.328125q1.828125 0.859375 2.703125 2.15625q0.875 1.28125 0.875 2.984375q0 1.671875 -0.96875 3.15625q-0.953125 1.484375 -2.75 2.3125q-1.796875 0.8125 -4.046875 0.8125q-2.84375 0 -4.78125 -0.828125q-1.921875 -0.828125 -3.015625 -2.5q-1.09375 -1.671875 -1.15625 -3.78125zm30.592865 1.859375l2.65625 0.328125q-0.625 2.328125 -2.328125 3.625q-1.703125 1.28125 -4.359375 1.28125q-3.328125 0 -5.28125 -2.046875q-1.953125 -2.0625 -1.953125 -5.765625q0 -3.84375 1.96875 -5.953125q1.984375 -2.125 5.125 -2.125q3.0625 0 4.984375 2.078125q1.9375 2.0625 1.9375 5.84375q0 0.21875 -0.015625 0.671875l-11.34375 0q0.140625 2.515625 1.421875 3.84375q1.28125 1.328125 3.171875 1.328125q1.421875 0 2.421875 -0.734375q1.0 -0.75 1.59375 -2.375zm-8.46875 -4.171875l8.5 0q-0.171875 -1.921875 -0.96875 -2.875q-1.234375 -1.5 -3.203125 -1.5q-1.765625 0 -2.984375 1.1875q-1.203125 1.1875 -1.34375 3.1875zm24.779663 4.171875l2.65625 0.328125q-0.625 2.328125 -2.328125 3.625q-1.703125 1.28125 -4.359375 1.28125q-3.328125 0 -5.28125 -2.046875q-1.953125 -2.0625 -1.953125 -5.765625q0 -3.84375 1.96875 -5.953125q1.984375 -2.125 5.125 -2.125q3.0625 0 4.984375 2.078125q1.9375 2.0625 1.9375 5.84375q0 0.21875 -0.015625 0.671875l-11.34375 0q0.140625 2.515625 1.421875 3.84375q1.28125 1.328125 3.171875 1.328125q1.421875 0 2.421875 -0.734375q1.0 -0.75 1.59375 -2.375zm-8.46875 -4.171875l8.5 0q-0.171875 -1.921875 -0.96875 -2.875q-1.234375 -1.5 -3.203125 -1.5q-1.765625 0 -2.984375 1.1875q-1.203125 1.1875 -1.34375 3.1875zm13.342163 4.515625l2.546875 -0.390625q0.21875 1.53125 1.1875 2.34375q0.984375 0.8125 2.75 0.8125q1.78125 0 2.640625 -0.71875q0.859375 -0.71875 0.859375 -1.703125q0 -0.859375 -0.765625 -1.375q-0.53125 -0.34375 -2.640625 -0.859375q-2.828125 -0.71875 -3.921875 -1.234375q-1.09375 -0.53125 -1.671875 -1.453125q-0.5625 -0.921875 -0.5625 -2.046875q0 -1.015625 0.46875 -1.875q0.46875 -0.875 1.265625 -1.453125q0.609375 -0.4375 1.640625 -0.734375q1.046875 -0.3125 2.234375 -0.3125q1.78125 0 3.125 0.515625q1.359375 0.515625 2.0 1.390625q0.65625 0.875 0.890625 2.359375l-2.515625 0.34375q-0.171875 -1.171875 -1.0 -1.828125q-0.8125 -0.671875 -2.3125 -0.671875q-1.78125 0 -2.546875 0.59375q-0.75 0.578125 -0.75 1.375q0 0.5 0.3125 0.90625q0.3125 0.40625 0.984375 0.6875q0.390625 0.140625 2.28125 0.65625q2.734375 0.734375 3.8125 1.203125q1.078125 0.453125 1.6875 1.34375q0.625 0.890625 0.625 2.203125q0 1.296875 -0.75 2.4375q-0.75 1.125 -2.171875 1.75q-1.421875 0.625 -3.203125 0.625q-2.96875 0 -4.53125 -1.234375q-1.546875 -1.234375 -1.96875 -3.65625zm29.468628 2.234375l0.375 2.28125q-1.09375 0.234375 -1.953125 0.234375q-1.40625 0 -2.1875 -0.4375q-0.765625 -0.453125 -1.078125 -1.171875q-0.3125 -0.734375 -0.3125 -3.046875l0 -8.75l-1.890625 0l0 -2.0l1.890625 0l0 -3.7656555l2.5625 -1.546875l0 5.3125305l2.59375 0l0 2.0l-2.59375 0l0 8.890625q0 1.109375 0.125 1.421875q0.140625 0.3125 0.453125 0.5q0.3125 0.1875 0.890625 0.1875q0.421875 0 1.125 -0.109375zm2.523285 2.3125l0 -21.00003l2.578125 0l0 7.5312805q1.796875 -2.078125 4.546875 -2.078125q1.6875 0 2.9375 0.671875q1.25 0.65625 1.78125 1.828125q0.546875 1.171875 0.546875 3.40625l0 9.640625l-2.578125 0l0 -9.640625q0 -1.9375 -0.84375 -2.8125q-0.84375 -0.875 -2.375 -0.875q-1.140625 0 -2.15625 0.59375q-1.0 0.59375 -1.4375 1.609375q-0.421875 1.015625 -0.421875 2.8125l0 8.3125l-2.578125 0zm26.717163 -4.890625l2.65625 0.328125q-0.625 2.328125 -2.328125 3.625q-1.703125 1.28125 -4.359375 1.28125q-3.328125 0 -5.28125 -2.046875q-1.953125 -2.0625 -1.953125 -5.765625q0 -3.84375 1.96875 -5.953125q1.984375 -2.125 5.125 -2.125q3.0625 0 4.984375 2.078125q1.9375 2.0625 1.9375 5.84375q0 0.21875 -0.015625 0.671875l-11.34375 0q0.140625 2.515625 1.421875 3.84375q1.28125 1.328125 3.171875 1.328125q1.421875 0 2.421875 -0.734375q1.0 -0.75 1.59375 -2.375zm-8.46875 -4.171875l8.5 0q-0.171875 -1.921875 -0.96875 -2.875q-1.234375 -1.5 -3.203125 -1.5q-1.765625 0 -2.984375 1.1875q-1.203125 1.1875 -1.34375 3.1875zm22.490479 9.0625l0 -15.203125l2.3125 0l0 2.296875q0.890625 -1.609375 1.640625 -2.125q0.75 -0.515625 1.65625 -0.515625q1.3125 0 2.65625 0.828125l-0.890625 2.390625q-0.953125 -0.5625 -1.890625 -0.5625q-0.84375 0 -1.515625 0.515625q-0.671875 0.5 -0.96875 1.40625q-0.421875 1.375 -0.421875 3.0l0 7.96875l-2.578125 0zm20.20398 -4.890625l2.65625 0.328125q-0.625 2.328125 -2.328125 3.625q-1.703125 1.28125 -4.359375 1.28125q-3.328125 0 -5.28125 -2.046875q-1.953125 -2.0625 -1.953125 -5.765625q0 -3.84375 1.96875 -5.953125q1.984375 -2.125 5.125 -2.125q3.0625 0 4.984375 2.078125q1.9375 2.0625 1.9375 5.84375q0 0.21875 -0.015625 0.671875l-11.34375 0q0.140625 2.515625 1.421875 3.84375q1.28125 1.328125 3.171875 1.328125q1.421875 0 2.421875 -0.734375q1.0 -0.75 1.59375 -2.375zm-8.46875 -4.171875l8.5 0q-0.171875 -1.921875 -0.96875 -2.875q-1.234375 -1.5 -3.203125 -1.5q-1.765625 0 -2.984375 1.1875q-1.203125 1.1875 -1.34375 3.1875zm13.342163 4.515625l2.546875 -0.390625q0.21875 1.53125 1.1875 2.34375q0.984375 0.8125 2.75 0.8125q1.78125 0 2.640625 -0.71875q0.859375 -0.71875 0.859375 -1.703125q0 -0.859375 -0.765625 -1.375q-0.53125 -0.34375 -2.640625 -0.859375q-2.828125 -0.71875 -3.921875 -1.234375q-1.09375 -0.53125 -1.671875 -1.453125q-0.5625 -0.921875 -0.5625 -2.046875q0 -1.015625 0.46875 -1.875q0.46875 -0.875 1.265625 -1.453125q0.609375 -0.4375 1.640625 -0.734375q1.046875 -0.3125 2.234375 -0.3125q1.78125 0 3.125 0.515625q1.359375 0.515625 2.0 1.390625q0.65625 0.875 0.890625 2.359375l-2.515625 0.34375q-0.171875 -1.171875 -1.0 -1.828125q-0.8125 -0.671875 -2.3125 -0.671875q-1.78125 0 -2.546875 0.59375q-0.75 0.578125 -0.75 1.375q0 0.5 0.3125 0.90625q0.3125 0.40625 0.984375 0.6875q0.390625 0.140625 2.28125 0.65625q2.734375 0.734375 3.8125 1.203125q1.078125 0.453125 1.6875 1.34375q0.625 0.890625 0.625 2.203125q0 1.296875 -0.75 2.4375q-0.75 1.125 -2.171875 1.75q-1.421875 0.625 -3.203125 0.625q-2.96875 0 -4.53125 -1.234375q-1.546875 -1.234375 -1.96875 -3.65625zm25.664062 4.546875l0 -2.234375q-1.78125 2.578125 -4.828125 2.578125q-1.34375 0 -2.515625 -0.515625q-1.171875 -0.515625 -1.734375 -1.296875q-0.5625 -0.78125 -0.796875 -1.90625q-0.15625 -0.765625 -0.15625 -2.40625l0 -9.421875l2.578125 0l0 8.421875q0 2.03125 0.15625 2.734375q0.25 1.015625 1.03125 1.59375q0.796875 0.578125 1.953125 0.578125q1.15625 0 2.171875 -0.59375q1.015625 -0.59375 1.4375 -1.609375q0.421875 -1.03125 0.421875 -2.984375l0 -8.140625l2.578125 0l0 15.203125l-2.296875 0zm6.279663 0l0 -21.00003l2.578125 0l0 21.00003l-2.578125 0zm12.203278 -2.3125l0.375 2.28125q-1.09375 0.234375 -1.953125 0.234375q-1.40625 0 -2.1875 -0.4375q-0.765625 -0.453125 -1.078125 -1.171875q-0.3125 -0.734375 -0.3125 -3.046875l0 -8.75l-1.890625 0l0 -2.0l1.890625 0l0 -3.7656555l2.5625 -1.546875l0 5.3125305l2.59375 0l0 2.0l-2.59375 0l0 8.890625q0 1.109375 0.125 1.421875q0.140625 0.3125 0.453125 0.5q0.3125 0.1875 0.890625 0.1875q0.421875 0 1.125 -0.109375zm1.4920654 -2.234375l2.546875 -0.390625q0.21875 1.53125 1.1875 2.34375q0.984375 0.8125 2.75 0.8125q1.78125 0 2.640625 -0.71875q0.859375 -0.71875 0.859375 -1.703125q0 -0.859375 -0.765625 -1.375q-0.53125 -0.34375 -2.640625 -0.859375q-2.828125 -0.71875 -3.921875 -1.234375q-1.09375 -0.53125 -1.671875 -1.453125q-0.5625 -0.921875 -0.5625 -2.046875q0 -1.015625 0.46875 -1.875q0.46875 -0.875 1.265625 -1.453125q0.609375 -0.4375 1.640625 -0.734375q1.046875 -0.3125 2.234375 -0.3125q1.78125 0 3.125 0.515625q1.359375 0.515625 2.0 1.390625q0.65625 0.875 0.890625 2.359375l-2.515625 0.34375q-0.171875 -1.171875 -1.0 -1.828125q-0.8125 -0.671875 -2.3125 -0.671875q-1.78125 0 -2.546875 0.59375q-0.75 0.578125 -0.75 1.375q0 0.5 0.3125 0.90625q0.3125 0.40625 0.984375 0.6875q0.390625 0.140625 2.28125 0.65625q2.734375 0.734375 3.8125 1.203125q1.078125 0.453125 1.6875 1.34375q0.625 0.890625 0.625 2.203125q0 1.296875 -0.75 2.4375q-0.75 1.125 -2.171875 1.75q-1.421875 0.625 -3.203125 0.625q-2.96875 0 -4.53125 -1.234375q-1.546875 -1.234375 -1.96875 -3.65625z" fill-rule="nonzero"/></g></svg>