<svg width="4267" height="2376" xmlns="http://www.w3.org/2000/svg" xmlns:xlink="http://www.w3.org/1999/xlink" xml:space="preserve" overflow="hidden"><defs><clipPath id="clip0"><rect x="67" y="50" width="4267" height="2376"/></clipPath><clipPath id="clip1"><rect x="308" y="315" width="467" height="468"/></clipPath><clipPath id="clip2"><rect x="308" y="315" width="467" height="468"/></clipPath><clipPath id="clip3"><rect x="308" y="315" width="467" height="468"/></clipPath><clipPath id="clip4"><rect x="3258" y="559" width="479" height="481"/></clipPath><clipPath id="clip5"><rect x="3258" y="559" width="479" height="481"/></clipPath><clipPath id="clip6"><rect x="3258" y="559" width="479" height="481"/></clipPath></defs><g clip-path="url(#clip0)" transform="translate(-67 -50)"><rect x="70.5" y="53.5001" width="4260" height="2369" stroke="#000000" stroke-width="6.875" stroke-miterlimit="8" fill="#FFFFFF"/><g clip-path="url(#clip1)"><g clip-path="url(#clip2)"><g clip-path="url(#clip3)"><path d="M676.917 607.25 405.083 607.25 405.083 442.208 676.917 442.208 676.917 607.25ZM706.042 432.5C706.042 421.821 697.304 413.083 686.625 413.083L395.375 413.083C384.696 413.083 375.958 421.821 375.958 432.5L375.958 636.375 706.042 636.375 706.042 432.5Z"/><path d="M570.125 655.792 570.125 660.646C570.125 663.558 568.183 665.5 565.271 665.5L516.729 665.5C513.817 665.5 511.875 663.558 511.875 660.646L511.875 655.792 317.708 655.792 317.708 665.5C317.708 676.179 326.446 684.917 337.125 684.917L744.875 684.917C755.554 684.917 764.292 676.179 764.292 665.5L764.292 655.792 570.125 655.792Z"/></g></g></g><g clip-path="url(#clip4)"><g clip-path="url(#clip5)"><g clip-path="url(#clip6)"><path d="M379.208 89.8125C379.208 111.858 316.659 129.729 239.5 129.729 162.341 129.729 99.7916 111.858 99.7916 89.8125 99.7916 67.7671 162.341 49.8958 239.5 49.8958 316.659 49.8958 379.208 67.7671 379.208 89.8125Z" transform="matrix(1 0 0 1.00209 3258 560)"/><path d="M339.292 189.604C333.304 189.604 329.312 185.612 329.312 179.625 329.312 173.637 333.304 169.646 339.292 169.646 345.279 169.646 349.271 173.637 349.271 179.625 349.271 185.612 345.279 189.604 339.292 189.604ZM239.5 149.687C162.66 149.687 99.7916 131.725 99.7916 109.771L99.7916 189.604C99.7916 211.558 162.66 229.521 239.5 229.521 316.339 229.521 379.208 211.558 379.208 189.604L379.208 109.771C379.208 131.725 316.339 149.687 239.5 149.687Z" transform="matrix(1 0 0 1.00209 3258 560)"/><path d="M339.292 289.396C333.304 289.396 329.312 285.404 329.312 279.417 329.312 273.429 333.304 269.437 339.292 269.437 345.279 269.437 349.271 273.429 349.271 279.417 349.271 285.404 345.279 289.396 339.292 289.396ZM239.5 249.479C162.66 249.479 99.7916 231.517 99.7916 209.562L99.7916 289.396C99.7916 311.35 162.66 329.312 239.5 329.312 316.339 329.312 379.208 311.35 379.208 289.396L379.208 209.562C379.208 231.517 316.339 249.479 239.5 249.479Z" transform="matrix(1 0 0 1.00209 3258 560)"/><path d="M339.292 389.187C333.304 389.187 329.312 385.196 329.312 379.208 329.312 373.221 333.304 369.229 339.292 369.229 345.279 369.229 349.271 373.221 349.271 379.208 349.271 385.196 345.279 389.187 339.292 389.187ZM239.5 349.271C162.66 349.271 99.7916 331.308 99.7916 309.354L99.7916 389.187C99.7916 411.142 162.66 429.104 239.5 429.104 316.339 429.104 379.208 411.142 379.208 389.187L379.208 309.354C379.208 331.308 316.339 349.271 239.5 349.271Z" transform="matrix(1 0 0 1.00209 3258 560)"/></g></g></g><text font-family="Calibri,Calibri_MSFontService,sans-serif" font-weight="400" font-size="83" transform="matrix(1 0 0 1 3341.35 1106)">Database</text><text font-family="Calibri,Calibri_MSFontService,sans-serif" font-weight="400" font-size="83" transform="matrix(1 0 0 1 375.662 809)">Volunteer</text><path d="M844 672.25 1366.68 672.25 1366.68 699.75 844 699.75ZM1352.93 644.75 1435.43 686 1352.93 727.25Z" fill="#4472C4"/><path d="M8.39032e-06-13.75 522.678-13.7497 522.678 13.7503-8.39032e-06 13.75ZM508.928-41.2497 591.428 0.000360892 508.928 41.2503Z" fill="#4472C4" transform="matrix(-1 0 0 1 1435.43 448)"/><path d="M1760.75 929 1760.75 1462.08 1733.25 1462.08 1733.25 929ZM1788.25 1448.33 1747 1530.83 1705.75 1448.33Z" fill="#4472C4"/><path d="M0.104703-13.7496 501.821-9.92905 501.611 17.5702-0.104703 13.7496ZM488.28-37.533 570.464 4.34406 487.652 44.9646Z" fill="#4472C4" transform="matrix(1 0 0 -1 2430 2026.34)"/><path d="M8.69866e-06-13.75 501.714-13.7497 501.714 13.7503-8.69866e-06 13.75ZM487.964-41.2497 570.464 0.000360892 487.964 41.2503Z" fill="#4472C4" transform="matrix(-1 0 0 1 2998.46 1803)"/><path d="M3383.75 1198 3383.75 1462.66 3356.25 1462.66 3356.25 1198ZM3411.25 1448.91 3370 1531.41 3328.75 1448.91Z" fill="#4472C4"/><path d="M13.75-1.48833e-05 13.7503 264.663-13.7497 264.663-13.75 1.48833e-05ZM41.2503 250.913 0.000360892 333.413-41.2497 250.913Z" fill="#4472C4" transform="matrix(1 0 0 -1 3651 1531.41)"/><text font-family="Calibri,Calibri_MSFontService,sans-serif" font-weight="400" font-size="83" transform="matrix(1 0 0 1 897.491 809)">http request</text><path d="M1436.5 377.836C1436.5 316.899 1485.9 267.5 1546.84 267.5L2320.16 267.5C2381.1 267.5 2430.5 316.899 2430.5 377.836L2430.5 819.164C2430.5 880.101 2381.1 929.5 2320.16 929.5L1546.84 929.5C1485.9 929.5 1436.5 880.101 1436.5 819.164Z" stroke="#2F528F" stroke-width="4.58333" stroke-miterlimit="8" fill="#C5E0B4" fill-rule="evenodd"/><path d="M1494.5 366.013C1494.5 337.011 1518.01 313.5 1547.01 313.5L2320.99 313.5C2349.99 313.5 2373.5 337.011 2373.5 366.013L2373.5 394.987C2373.5 423.989 2349.99 447.5 2320.99 447.5L1547.01 447.5C1518.01 447.5 1494.5 423.989 1494.5 394.987Z" stroke="#2F528F" stroke-width="4.58333" stroke-miterlimit="8" fill="#D0CECE" fill-rule="evenodd"/><text font-family="Arial,Arial_MSFontService,sans-serif" font-weight="400" font-size="83" transform="matrix(1 0 0 1 1844.98 411)">View</text><path d="M1496.5 574.089C1496.5 528.476 1533.48 491.5 1579.09 491.5L2292.91 491.5C2338.52 491.5 2375.5 528.476 2375.5 574.089L2375.5 806.911C2375.5 852.524 2338.52 889.5 2292.91 889.5L1579.09 889.5C1533.48 889.5 1496.5 852.524 1496.5 806.911Z" stroke="#2F528F" stroke-width="4.58333" stroke-linecap="square" stroke-miterlimit="8" stroke-dasharray="13.75 4.58333" fill="#E7E6E6" fill-rule="evenodd"/><path d="M1436.5 1649.84C1436.5 1588.9 1485.9 1539.5 1546.84 1539.5L2319.16 1539.5C2380.1 1539.5 2429.5 1588.9 2429.5 1649.84L2429.5 2091.16C2429.5 2152.1 2380.1 2201.5 2319.16 2201.5L1546.84 2201.5C1485.9 2201.5 1436.5 2152.1 1436.5 2091.16Z" stroke="#2F528F" stroke-width="4.58333" stroke-miterlimit="8" fill="#F8CBAD" fill-rule="evenodd"/><path d="M1493.5 1638.01C1493.5 1609.01 1517.01 1585.5 1546.01 1585.5L2319.99 1585.5C2348.99 1585.5 2372.5 1609.01 2372.5 1638.01L2372.5 1666.99C2372.5 1695.99 2348.99 1719.5 2319.99 1719.5L1546.01 1719.5C1517.01 1719.5 1493.5 1695.99 1493.5 1666.99Z" stroke="#2F528F" stroke-width="4.58333" stroke-miterlimit="8" fill="#D0CECE" fill-rule="evenodd"/><text font-family="Arial,Arial_MSFontService,sans-serif" font-weight="400" font-size="83" transform="matrix(1 0 0 1 1754.88 1683)">Controller</text><path d="M1495.5 1846.09C1495.5 1800.48 1532.48 1763.5 1578.09 1763.5L2291.91 1763.5C2337.52 1763.5 2374.5 1800.48 2374.5 1846.09L2374.5 2078.91C2374.5 2124.52 2337.52 2161.5 2291.91 2161.5L1578.09 2161.5C1532.48 2161.5 1495.5 2124.52 1495.5 2078.91Z" stroke="#2F528F" stroke-width="4.58333" stroke-linecap="square" stroke-miterlimit="8" stroke-dasharray="13.75 4.58333" fill="#E7E6E6" fill-rule="evenodd"/><text font-family="Calibri,Calibri_MSFontService,sans-serif" font-weight="400" font-size="83" transform="matrix(1 0 0 1 1182.1 1247)">Clicks `register`</text><text font-family="Calibri,Calibri_MSFontService,sans-serif" font-weight="400" font-size="83" transform="matrix(1 0 0 1 831.445 369)">Account created</text><path d="M3001.5 1645.84C3001.5 1584.9 3050.9 1535.5 3111.84 1535.5L3884.16 1535.5C3945.1 1535.5 3994.5 1584.9 3994.5 1645.84L3994.5 2087.16C3994.5 2148.1 3945.1 2197.5 3884.16 2197.5L3111.84 2197.5C3050.9 2197.5 3001.5 2148.1 3001.5 2087.16Z" stroke="#2F528F" stroke-width="4.58333" stroke-miterlimit="8" fill="#DAE3F3" fill-rule="evenodd"/><path d="M3058.5 1634.01C3058.5 1605.01 3082.01 1581.5 3111.01 1581.5L3884.99 1581.5C3913.99 1581.5 3937.5 1605.01 3937.5 1634.01L3937.5 1662.99C3937.5 1691.99 3913.99 1715.5 3884.99 1715.5L3111.01 1715.5C3082.01 1715.5 3058.5 1691.99 3058.5 1662.99Z" stroke="#2F528F" stroke-width="4.58333" stroke-miterlimit="8" fill="#D0CECE" fill-rule="evenodd"/><text font-family="Arial,Arial_MSFontService,sans-serif" font-weight="400" font-size="83" transform="matrix(1 0 0 1 3386.36 1679)">Model</text><path d="M3060.5 1842.09C3060.5 1796.48 3097.48 1759.5 3143.09 1759.5L3856.91 1759.5C3902.52 1759.5 3939.5 1796.48 3939.5 1842.09L3939.5 2074.91C3939.5 2120.52 3902.52 2157.5 3856.91 2157.5L3143.09 2157.5C3097.48 2157.5 3060.5 2120.52 3060.5 2074.91Z" stroke="#2F528F" stroke-width="4.58333" stroke-linecap="square" stroke-miterlimit="8" stroke-dasharray="13.75 4.58333" fill="#E7E6E6" fill-rule="evenodd"/><path d="M13.75-8.24535e-06 13.7503 533.076-13.7497 533.076-13.75 8.24535e-06ZM41.2503 519.326 0.000360892 601.826-41.2497 519.326Z" fill="#4472C4" transform="matrix(1 0 0 -1 2109 1534.83)"/><text font-family="Calibri,Calibri_MSFontService,sans-serif" font-weight="400" font-size="83" transform="matrix(1 0 0 1 1641.36 1959)">registerVolunteer</text><text font-family="Calibri,Calibri_MSFontService,sans-serif" font-weight="400" font-size="83" transform="matrix(1 0 0 1 1770.22 2058)">controller</text><text font-family="Calibri,Calibri_MSFontService,sans-serif" font-weight="400" font-size="83" transform="matrix(1 0 0 1 2590.36 2137)">Update</text><text font-family="Calibri,Calibri_MSFontService,sans-serif" font-weight="400" font-size="83" transform="matrix(1 0 0 1 2610.52 1751)">Notify</text><path d="M1516.5 583.071C1516.5 540.782 1550.78 506.5 1593.07 506.5L1847.93 506.5C1890.22 506.5 1924.5 540.782 1924.5 583.071L1924.5 798.929C1924.5 841.218 1890.22 875.5 1847.93 875.5L1593.07 875.5C1550.78 875.5 1516.5 841.218 1516.5 798.929Z" stroke="#2F528F" stroke-width="4.58333" stroke-linecap="square" stroke-miterlimit="8" stroke-dasharray="13.75 4.58333" fill="#E7E6E6" fill-rule="evenodd"/><text font-family="Calibri,Calibri_MSFontService,sans-serif" font-weight="400" font-size="83" transform="matrix(1 0 0 1 3232.07 1935)">Insert volunteer </text><text font-family="Calibri,Calibri_MSFontService,sans-serif" font-weight="400" font-size="83" transform="matrix(1 0 0 1 3272.06 2034)">into database</text><text font-family="Calibri,Calibri_MSFontService,sans-serif" font-weight="400" font-size="83" transform="matrix(1 0 0 1 3729.1 1391)">Insert data</text><text font-family="Calibri,Calibri_MSFontService,sans-serif" font-weight="400" font-size="83" transform="matrix(1 0 0 1 2957.07 1375)">Fetch data</text><text font-family="Calibri,Calibri_MSFontService,sans-serif" font-weight="400" font-size="83" transform="matrix(1 0 0 1 1648.68 617)">User </text><text font-family="Calibri,Calibri_MSFontService,sans-serif" font-weight="400" font-size="83" transform="matrix(1 0 0 1 1533.75 716)">registration </text><text font-family="Calibri,Calibri_MSFontService,sans-serif" font-weight="400" font-size="83" transform="matrix(1 0 0 1 1645.26 815)">form</text><path d="M1944.5 583.071C1944.5 540.782 1978.78 506.5 2021.07 506.5L2276.93 506.5C2319.22 506.5 2353.5 540.782 2353.5 583.071L2353.5 798.929C2353.5 841.218 2319.22 875.5 2276.93 875.5L2021.07 875.5C1978.78 875.5 1944.5 841.218 1944.5 798.929Z" stroke="#2F528F" stroke-width="4.58333" stroke-linecap="square" stroke-miterlimit="8" stroke-dasharray="13.75 4.58333" fill="#E7E6E6" fill-rule="evenodd"/><text font-family="Calibri,Calibri_MSFontService,sans-serif" font-weight="400" font-size="83" transform="matrix(1 0 0 1 2049.62 665)">Home </text><text font-family="Calibri,Calibri_MSFontService,sans-serif" font-weight="400" font-size="83" transform="matrix(1 0 0 1 2069.44 764)">page</text><text font-family="Calibri,Calibri_MSFontService,sans-serif" font-weight="400" font-size="83" transform="matrix(1 0 0 1 2176.69 1266)">Redirects</text></g></svg>