<svg version="1.1" xmlns="http://www.w3.org/2000/svg" xmlns:xlink="http://www.w3.org/1999/xlink" width="1461" height="972"><defs/><g><g/><g/><g/><g/><g/><g/><g/><g/><g/><g/><g/><g/><g/><g/><g/><g/><g/><g/><g/><g><rect fill="white" stroke="none" x="0" y="0" width="1461" height="972"/></g><g><text fill="black" stroke="none" font-family="sans-serif" font-size="16.5pt" font-style="normal" font-weight="normal" text-decoration="normal" x="636.1055180915" y="24.50280495" text-anchor="start" dominant-baseline="alphabetic" xml:space="preserve">Serve Central MVC</text></g><g><g><path fill="none" stroke="black" paint-order="fill stroke markers" d=" M 8.167601650000003 51.29253836200001 L 84.50280495 51.29253836200001 L 84.50280495 964.4304028319996 L 8.167601650000003 964.4304028319996 L 8.167601650000003 51.29253836200001" stroke-miterlimit="10" stroke-width="1.3612669416666667" stroke-dasharray=""/></g><g><text fill="black" stroke="none" font-family="sans-serif" font-size="11pt" font-style="normal" font-weight="normal" text-decoration="normal" x="25.335203300000003" y="74.161822982" text-anchor="start" dominant-baseline="alphabetic" xml:space="preserve">Actors</text></g><g><path fill="none" stroke="black" paint-order="fill stroke markers" d=" M 171.89574543333333 84.20797301150002 L 541.2435288163334 84.20797301150002 L 541.2435288163334 964.4304028319996 L 171.89574543333333 964.4304028319996 L 171.89574543333333 84.20797301150002" stroke-miterlimit="10" stroke-width="1.3612669416666667" stroke-dasharray=""/></g><g><text fill="black" stroke="none" font-family="sans-serif" font-size="11pt" font-style="normal" font-weight="normal" text-decoration="normal" x="337.0696371248334" y="107.07725763150002" text-anchor="start" dominant-baseline="alphabetic" xml:space="preserve">Views</text></g><g><path fill="none" stroke="black" paint-order="fill stroke markers" d=" M 582.356198233 50.394102180500006 L 1218.3124857996668 50.394102180500006 L 1218.3124857996668 964.4304028319996 L 582.356198233 964.4304028319996 L 582.356198233 50.394102180500006" stroke-miterlimit="10" stroke-width="1.3612669416666667" stroke-dasharray=""/></g><g><text fill="black" stroke="none" font-family="sans-serif" font-size="11pt" font-style="normal" font-weight="normal" text-decoration="normal" x="868.8343420163334" y="73.2633868005" text-anchor="start" dominant-baseline="alphabetic" xml:space="preserve">Controller</text></g></g><g><path fill="none" stroke="black" paint-order="fill stroke markers" d=" M 46.3352033 167.272481792 L 46.3352033 964.4304028319996" stroke-miterlimit="10" stroke-width="1.3612669416666667" stroke-dasharray="12.565541,5.445067766666667"/><path fill="none" stroke="black" paint-order="fill stroke markers" d=" M 227.78704266383335 167.272481792 L 227.78704266383335 964.4304028319996" stroke-miterlimit="10" stroke-width="1.3612669416666667" stroke-dasharray="12.565541,5.445067766666667"/><path fill="none" stroke="black" paint-order="fill stroke markers" d=" M 345.0696371248333 167.272481792 L 345.0696371248333 964.4304028319996" stroke-miterlimit="10" stroke-width="1.3612669416666667" stroke-dasharray="12.565541,5.445067766666667"/><path fill="none" stroke="black" paint-order="fill stroke markers" d=" M 473.85223158583335 167.272481792 L 473.85223158583335 964.4304028319996" stroke-miterlimit="10" stroke-width="1.3612669416666667" stroke-dasharray="12.565541,5.445067766666667"/><path fill="none" stroke="black" paint-order="fill stroke markers" d=" M 620.523799883 167.272481792 L 620.523799883 964.4304028319996" stroke-miterlimit="10" stroke-width="1.3612669416666667" stroke-dasharray="12.565541,5.445067766666667"/><path fill="none" stroke="black" paint-order="fill stroke markers" d=" M 869.0843420163334 167.272481792 L 869.0843420163334 964.4304028319996" stroke-miterlimit="10" stroke-width="1.3612669416666667" stroke-dasharray="12.565541,5.445067766666667"/><path fill="none" stroke="black" paint-order="fill stroke markers" d=" M 1152.6448841496667 167.272481792 L 1152.6448841496667 964.4304028319996" stroke-miterlimit="10" stroke-width="1.3612669416666667" stroke-dasharray="12.565541,5.445067766666667"/><path fill="none" stroke="black" paint-order="fill stroke markers" d=" M 1420.873027933 167.272481792 L 1420.873027933 964.4304028319996" stroke-miterlimit="10" stroke-width="1.3612669416666667" stroke-dasharray="12.565541,5.445067766666667"/></g><g><g><path fill="white" stroke="black" paint-order="fill stroke markers" d=" M 55.646269181 98.17457183300003 A 9.311065881 9.311065881 0 1 1 55.64626452546745 98.16526076867086 M 46.3352033 107.48563771400002 L 46.3352033 127.41458574000002 M 34.573856924000005 114.67312716600003 L 58.096549676 114.67312716600003 M 46.3352033 127.41458574000002 L 34.573856924000005 146.03671750200002 M 46.3352033 127.41458574000002 L 58.096549676 146.03671750200002" stroke-miterlimit="10" stroke-width="2.7769845610000004" stroke-dasharray=""/></g><g><g/><text fill="black" stroke="none" font-family="sans-serif" font-size="11pt" font-style="normal" font-weight="normal" text-decoration="normal" x="16.335203300000003" y="162.371920802" text-anchor="start" dominant-baseline="alphabetic" xml:space="preserve">Volunteer</text></g><path fill="none" stroke="none"/><g><path fill="white" stroke="black" paint-order="fill stroke markers" d=" M 180.06334708333333 123.16743288200001 L 275.5107382443333 123.16743288200001 L 275.5107382443333 167.272481792 L 180.06334708333333 167.272481792 L 180.06334708333333 123.16743288200001 Z" stroke-miterlimit="10" stroke-width="2.613632528" stroke-dasharray=""/></g><g><g/><text fill="black" stroke="none" font-family="sans-serif" font-size="11pt" font-style="normal" font-weight="normal" text-decoration="normal" x="197.78704266383335" y="150.937278492" text-anchor="start" dominant-baseline="alphabetic" xml:space="preserve">EventList</text></g><path fill="none" stroke="none"/><g><path fill="white" stroke="black" paint-order="fill stroke markers" d=" M 291.8459415443333 123.16743288200001 L 398.29333270533334 123.16743288200001 L 398.29333270533334 167.272481792 L 291.8459415443333 167.272481792 L 291.8459415443333 123.16743288200001 Z" stroke-miterlimit="10" stroke-width="2.613632528" stroke-dasharray=""/></g><g><g/><text fill="black" stroke="none" font-family="sans-serif" font-size="11pt" font-style="normal" font-weight="normal" text-decoration="normal" x="309.5696371248333" y="150.937278492" text-anchor="start" dominant-baseline="alphabetic" xml:space="preserve">EventPage</text></g><path fill="none" stroke="none"/><g><path fill="white" stroke="black" paint-order="fill stroke markers" d=" M 414.62853600533333 123.16743288200001 L 533.0759271663334 123.16743288200001 L 533.0759271663334 167.272481792 L 414.62853600533333 167.272481792 L 414.62853600533333 123.16743288200001 Z" stroke-miterlimit="10" stroke-width="2.613632528" stroke-dasharray=""/></g><g><g/><text fill="black" stroke="none" font-family="sans-serif" font-size="11pt" font-style="normal" font-weight="normal" text-decoration="normal" x="432.35223158583335" y="150.937278492" text-anchor="start" dominant-baseline="alphabetic" xml:space="preserve">Confirmation</text></g><g><path fill="white" stroke="black" paint-order="fill stroke markers" d=" M 644.7815767835 120.39044832100001 A 24.2577769005 24.2577769005 0 1 1 644.7815646546126 120.36619054814246 M 617.256759223 96.1326714205 L 627.057881203 87.96506977050001 M 617.256759223 96.1326714205 L 627.057881203 104.3002730705" stroke-miterlimit="10" stroke-width="2.7769845610000004" stroke-dasharray=""/></g><g><g/><text fill="black" stroke="none" font-family="sans-serif" font-size="11pt" font-style="normal" font-weight="normal" text-decoration="normal" x="590.523799883" y="162.371920802" text-anchor="start" dominant-baseline="alphabetic" xml:space="preserve">GetEvent</text></g><g><path fill="white" stroke="black" paint-order="fill stroke markers" d=" M 893.3421189168333 120.39044832100001 A 24.2577769005 24.2577769005 0 1 1 893.3421067879459 120.36619054814246 M 865.8173013563334 96.1326714205 L 875.6184233363333 87.96506977050001 M 865.8173013563334 96.1326714205 L 875.6184233363333 104.3002730705" stroke-miterlimit="10" stroke-width="2.7769845610000004" stroke-dasharray=""/></g><g><g/><text fill="black" stroke="none" font-family="sans-serif" font-size="11pt" font-style="normal" font-weight="normal" text-decoration="normal" x="832.5843420163334" y="162.371920802" text-anchor="start" dominant-baseline="alphabetic" xml:space="preserve">CheckUser</text></g><g><path fill="white" stroke="black" paint-order="fill stroke markers" d=" M 1176.9026610501667 120.39044832100001 A 24.2577769005 24.2577769005 0 1 1 1176.9026489212793 120.36619054814246 M 1149.3778434896667 96.1326714205 L 1159.1789654696668 87.96506977050001 M 1149.3778434896667 96.1326714205 L 1159.1789654696668 104.3002730705" stroke-miterlimit="10" stroke-width="2.7769845610000004" stroke-dasharray=""/></g><g><g/><text fill="black" stroke="none" font-family="sans-serif" font-size="11pt" font-style="normal" font-weight="normal" text-decoration="normal" x="1095.1448841496667" y="162.371920802" text-anchor="start" dominant-baseline="alphabetic" xml:space="preserve">UserEventSignUp</text></g><g><path fill="white" stroke="black" paint-order="fill stroke markers" d=" M 1397.023631115 135.255483324 L 1397.023631115 100.95155639400002 L 1444.722424751 100.95155639400002 L 1444.722424751 135.255483324" stroke-miterlimit="10" stroke-width="2.7769845610000004" stroke-dasharray=""/><path fill="white" stroke="black" paint-order="fill stroke markers" d=" M 1444.722424751 99.75908655310002 L 1444.7212322910964 99.86689709801664 L 1444.7176550306303 99.97469686196861 L 1444.7116933273248 100.08247506506937 L 1444.7033477773457 100.19022092958842 L 1444.6926192152405 100.2979236810291 L 1444.6795087138566 100.40557254920603 L 1444.6640175842333 100.51315676932207 L 1444.6461473754707 100.62066558304487 L 1444.6258998745748 100.72808823958268 L 1444.6032771062785 100.83541399675931 L 1444.57828133284 100.94263212208854 L 1444.5509150538162 101.04973189384714 L 1444.5211810058115 101.1567026021472 L 1444.4890821622064 101.26353355000704 L 1444.4546217328582 101.37021405442088 L 1444.4178031637814 101.4767334474272 L 1444.3786301368023 101.58308107717545 L 1444.3371065691904 101.68924630899127 L 1444.2932366132684 101.79521852643998 L 1444.2470246559951 101.90098713238812 L 1444.1984753185277 102.00654155006325 L 1444.1475934557598 102.11187122411154 L 1444.0943841558346 102.21696562165339 L 1444.0388527396385 102.32181423333661 L 1443.9810047602666 102.4264065743874 L 1443.9208460024684 102.53073218565882 L 1443.8583824820696 102.63478063467669 L 1443.7936204453706 102.7385415166828 L 1443.7265663685205 102.84200445567542 L 1443.6572269568715 102.94515910544688 L 1443.585609144307 103.04799515061815 L 1443.5117200925483 103.15050230767042 L 1443.435567190439 103.2526703259734 L 1443.3571580532064 103.3544889888104 L 1443.2765005216984 103.4559481144 L 1443.1936026616008 103.55703755691417 L 1443.108472762631 103.6577472074929 L 1443.0211193377077 103.75806699525508 L 1442.9315511221005 103.8579868883055 L 1442.8397770725562 103.95749689473814 L 1442.745806366404 104.05658706363529 L 1442.6496484006354 104.15524748606262 L 1442.5513127909671 104.25346829606012 L 1442.4508093708785 104.35123967162862 L 1442.3481481906272 104.44855183571204 L 1442.2433395162461 104.54539505717509 L 1442.1363938285153 104.6417596517763 L 1442.0273218219145 104.73763598313651 L 1441.916134403553 104.83301446370251 L 1441.8028426920805 104.92788555570571 L 1441.6874580165736 105.02223977211597 L 1441.5699919154035 105.11606767759027 L 1441.4504561350827 105.20935988941625 L 1441.3288626290894 105.30210707845049 L 1441.205223556673 105.39429997005135 L 1441.0795512816376 105.48592934500653 L 1440.951858371106 105.57698604045486 L 1440.822157594263 105.66746095080268 L 1440.6904619210782 105.75734502863436 L 1440.556784521009 105.84662928561703 L 1440.421138761684 105.93530479339938 L 1440.2835382075662 106.02336268450453 L 1440.1439966185962 106.11079415321676 L 1440.002527948817 106.19759045646204 L 1439.8591463449773 106.28374291468239 L 1439.713866145118 106.36924291270377 L 1439.5667018771383 106.45408190059764 L 1439.417668257342 106.5382513945359 L 1439.2667801889672 106.62174297763931 L 1439.114052760695 106.70454830081913 L 1438.9595012451405 106.78665908361204 L 1438.803141097327 106.86806711500819 L 1438.6449879531388 106.94876425427228 L 1438.4850576277586 107.02874243175762 L 1438.3233661140853 107.10799364971314 L 1438.1599295811359 107.18650998308306 L 1437.9947643724274 107.26428358029946 L 1437.8278870043432 107.34130666406747 L 1437.6593141644807 107.41757153214289 L 1437.4890627099835 107.49307055810243 L 1437.3171496658554 107.56779619210644 L 1437.1435922232574 107.6417409616538 L 1436.968407737789 107.71489747232916 L 1436.791613727753 107.7872584085424 L 1436.6132278724028 107.85881653426023 L 1436.4332680101757 107.9295646937297 L 1436.2517521369075 107.9994958121938 L 1436.0686984040346 108.06860289659899 L 1435.8841251167776 108.1368790362944 L 1435.6980507323115 108.20431740372297 L 1435.5104938579195 108.27091125510412 L 1435.3214732491329 108.33665393110826 L 1435.131007807855 108.40153885752254 L 1434.9391165804711 108.46555954590839 L 1434.7458187559444 108.52870959425034 L 1434.5511336638958 108.59098268759617 L 1434.3550807726726 108.65237259868843 L 1434.1576796874006 108.71287318858718 L 1433.9589501480234 108.77247840728386 L 1433.7589120273296 108.83118229430623 L 1433.5575853289647 108.88897897931456 L 1433.3549901854306 108.94586268268847 L 1433.151146856073 109.00182771610504 L 1432.9460757250545 109.05686848310758 L 1432.7397972993178 109.11097947966525 L 1432.5323322065335 109.16415529472346 L 1432.3237011930378 109.21639061074505 L 1432.1139251217583 109.26768020424194 L 1431.9030249701273 109.31801894629751 L 1431.6910218279843 109.36740180307952 L 1431.4779368954667 109.41582383634344 L 1431.2637914808902 109.46328020392627 L 1431.048606998618 109.50976616023082 L 1430.8324049669188 109.55527705670022 L 1430.6152070058156 109.5998083422827 L 1430.3970348349235 109.64335556388684 L 1430.177910271278 109.68591436682678 L 1429.9578552271528 109.72748049525767 L 1429.7368917078686 109.7680497926013 L 1429.5150418095936 109.80761820196176 L 1429.2923277171326 109.84618176653109 L 1429.0687717017092 109.88373662998495 L 1428.8443961187386 109.92027903686831 L 1428.6192234055923 109.95580533297093 L 1428.3932760793539 109.99031196569278 L 1428.1665767345678 110.02379548439939 L 1427.9391480409793 110.05625254076675 L 1427.7110127412686 110.08767988911629 L 1427.4821936487751 110.11807438673935 L 1427.252713645218 110.14743299421153 L 1427.0225956784059 110.17575277569651 L 1426.7918627599438 110.20303089923975 L 1426.5605379629314 110.22926463705164 L 1426.3286444196556 110.25445136578027 L 1426.0962053192775 110.27858856677372 L 1425.8632439055134 110.30167382633203 L 1425.6297834743104 110.32370483594849 L 1425.3958473715174 110.34467939254047 L 1425.1614589905496 110.3645953986698 L 1424.9266417700496 110.38345086275248 L 1424.691419191544 110.40124389925779 L 1424.4558147770942 110.41797272889693 L 1424.219852086946 110.43363567880087 L 1423.9835547171713 110.44823118268765 L 1423.7469462973102 110.46175778101907 L 1423.5100504880077 110.47421412114657 L 1423.2728909786472 110.4855989574465 L 1423.035491484982 110.49591115144473 L 1422.7978757467636 110.50514967193044 L 1422.560067525368 110.5133135950593 L 1422.322090601419 110.5204021044458 L 1422.0839687724106 110.52641449124488 L 1421.8457258503272 110.53135015422289 L 1421.607385659263 110.53520859981765 L 1421.3689720330378 110.53798944218781 L 1421.1305088128163 110.53969240325145 L 1420.892019844721 110.54031731271388 L 1420.6535289774506 110.53986410808467 L 1420.4150600598928 110.53833283468393 L 1420.1766369387406 110.5357236456377 L 1419.9382834561075 110.53203680186272 L 1419.7000234471432 110.52727267204028 L 1419.4618807376498 110.52143173257942 L 1419.2238791417 110.5145145675692 L 1418.9860424592553 110.50652186872036 L 1418.7483944737853 110.4974544352961 L 1418.510958949891 110.48731317403227 L 1418.2737596309262 110.47609909904648 L 1418.0368202366258 110.46381333173692 L 1417.8001644607314 110.45045710067006 L 1417.5638159686237 110.4360317414579 L 1417.3277983949547 110.42053869662433 L 1417.092135341285 110.40397951546092 L 1416.856850373724 110.38635585387198 L 1416.621967020572 110.367669474209 L 1416.3875087699687 110.34792224509437 L 1416.1534990675436 110.32711614123453 L 1415.9199613140725 110.30525324322254 L 1415.6869188631354 110.28233573732997 L 1415.4543950187838 110.25836591528834 L 1415.2224130332079 110.23334617405986 L 1414.9909961044132 110.2072790155978 L 1414.7601673738998 110.18016704659628 L 1414.529949924348 110.15201297822964 L 1414.3003667773116 110.1228196258812 L 1414.0714408909134 110.09258990886192 L 1413.8431951575515 110.06132685011828 L 1413.6156524016087 110.0290335759301 L 1413.3888353771715 109.99571331559791 L 1413.1627667657528 109.96136940111997 L 1412.9374691740259 109.9260052668591 L 1412.712965131562 109.88962444919923 L 1412.489277088578 109.85223058619187 L 1412.266427413692 109.81382741719212 L 1412.044438391686 109.77441878248487 L 1411.8233322212768 109.73400862290077 L 1411.6031310128976 109.6926009794221 L 1411.3838567864852 109.6501999927787 L 1411.16553146928 109.60680990303389 L 1410.9481768936319 109.56243504916051 L 1410.7318147948167 109.51707986860694 L 1410.5164668088644 109.47074889685346 L 1410.302154470394 109.42344676695863 L 1410.088899210461 109.37517820909602 L 1409.8767223544135 109.3259480500812 L 1409.6656451197603 109.27576121288904 L 1409.455688614049 109.22462271616142 L 1409.246873832755 109.17253767370543 L 1409.0392216571827 109.1195112939819 L 1408.8327528523764 109.0655488795846 L 1408.6274880650449 109.01065582671 L 1408.4234478214953 108.95483762461768 L 1408.2206525255824 108.89809985508128 L 1408.0191224566668 108.84044819183053 L 1407.8188777675869 108.78188839998367 L 1407.6199384826455 108.7224263354711 L 1407.4223244956047 108.66206794444972 L 1407.2260555676987 108.60081926270831 L 1407.031151325657 108.53868641506405 L 1406.8376312597409 108.47567561474989 L 1406.6455147217962 108.41179316279337 L 1406.4548209233164 108.34704544738645 L 1406.2655689335224 108.2814389432467 L 1406.0777776774555 108.21498021096988 L 1405.8914659340849 108.14767589637383 L 1405.7066523344295 108.07953272983391 L 1405.5233553596954 108.01055752561001 L 1405.3415933394272 107.94075718116505 L 1405.1613844496756 107.87013867647532 L 1404.9827467111793 107.79870907333245 L 1404.8056979875635 107.72647551463722 L 1404.6302559835526 107.6534452236853 L 1404.456438243201 107.57962550344493 L 1404.2842621481382 107.50502373582663 L 1404.11374491583 107.42964738094497 L 1403.9449035978573 107.35350397637264 L 1403.7777550782114 107.27660113638665 L 1403.612316071605 107.1989465512069 L 1403.448603121801 107.12054798622721 L 1403.2866325999576 107.04141328123873 L 1403.1264207029922 106.96155034964602 L 1402.9679834519611 106.8809671776757 L 1402.8113366904574 106.7996718235778 L 1402.6564960830265 106.71767241681998 L 1402.5034771136002 106.63497715727459 L 1402.3522950839479 106.55159431439867 L 1402.2029651121466 106.46753222640703 L 1402.055502131069 106.38279929943842 L 1401.9099208868906 106.29740400671491 L 1401.766235937614 106.21135488769461 L 1401.6244616516149 106.12466054721774 L 1401.4846122062033 106.03732965464607 L 1401.3467015862077 105.94937094299611 L 1401.2107435825747 105.8607932080657 L 1401.0767517909917 105.77160530755455 L 1400.9447396105259 105.68181616017836 L 1400.8147202422856 105.59143474477705 L 1400.686706688099 105.50047009941686 L 1400.5607117492152 105.40893132048649 L 1400.4367480250228 105.31682756178758 L 1400.314827911791 105.22416803361924 L 1400.1949636014297 105.13096200185706 L 1400.0771670802696 105.03721878702656 L 1399.9614501278652 104.94294776337108 L 1399.8478243158152 104.84815835791446 L 1399.7363010066056 104.75286004951823 L 1399.626891352475 104.65706236793383 L 1399.5196062942973 104.56077489284957 L 1399.414456560489 104.46400725293273 L 1399.311452665936 104.36676912486666 L 1399.2106049109418 104.26907023238314 L 1399.1119233801976 104.17092034529 L 1399.0154179417748 104.07232927849415 L 1398.9210982461361 103.97330689102013 L 1398.8289737251732 103.87386308502415 L 1398.739053591261 103.77400780480394 L 1398.651346836338 103.67375103580433 L 1398.5658622310068 103.57310280361865 L 1398.4826083236565 103.47207317298626 L 1398.4015934396086 103.37067224678601 L 1398.3228256802838 103.26891016502606 L 1398.2463129223925 103.16679710382974 L 1398.1720628171468 103.0643432744181 L 1398.100082789495 102.96155892208871 L 1398.0303800373804 102.85845432519113 L 1397.9629615310198 102.75503979409915 L 1397.8978340122078 102.65132567017969 L 1397.835003993642 102.5473223247587 L 1397.7744777582718 102.44304015808407 L 1397.7162613586704 102.33848959828556 L 1397.660360616429 102.23368110033203 L 1397.6067811215755 102.12862514498595 L 1397.555528232015 102.02333223775527 L 1397.506607072993 101.91781290784299 L 1397.4600225365853 101.81207770709416 L 1397.4157792812061 101.70613720894077 L 1397.3738817311448 101.60000200734433 L 1397.334334076121 101.49368271573654 L 1397.2971402708674 101.387189965958 L 1397.2623040347335 101.2805344071949 L 1397.2298288513139 101.17372670491429 L 1397.1997179680998 101.06677753979733 L 1397.1719743961546 100.95969760667145 L 1397.1466009098122 100.85249761344073 L 1397.1236000464003 100.74518828001514 L 1397.1029741059858 100.63778033723861 L 1397.0847251511457 100.5302845258159 L 1397.0688550067603 100.42271159523858 L 1397.0553652598308 100.31507230271008 L 1397.0442572593206 100.20737741206993 L 1397.0355321160205 100.09963769271747 L 1397.0291907024375 99.99186391853482 L 1397.0252336527078 99.88406686680962 L 1397.0236613625332 99.77625731715719 L 1397.0244739891411 99.66844605044267 L 1397.0276714512697 99.56064384770288 L 1397.0332534291754 99.45286148906825 L 1397.041219364665 99.34510975268485 L 1397.0515684611519 99.23739941363651 L 1397.0642996837346 99.12974124286738 L 1397.0794117593018 99.02214600610482 L 1397.0969031766583 98.91462446278284 L 1397.116772186677 98.80718736496618 L 1397.1390168024739 98.69984545627509 L 1397.1636347996052 98.59260947081098 L 1397.1906237162923 98.48549013208303 L 1397.2199808536657 98.37849815193587 L 1397.251703276036 98.27164422947833 L 1397.285787811188 98.16493905001363 L 1397.322231050696 98.05839328397077 L 1397.3610293502668 97.9520175858376 L 1397.4021788301025 97.84582259309526 L 1397.4456753752895 97.73981892515455 L 1397.4915146362096 97.6340171822939 L 1397.5396920289747 97.52842794459946 L 1397.590202735886 97.423061770907 L 1397.6430417059146 97.31792919774607 L 1397.6982036552076 97.21304073828638 L 1397.7556830676162 97.10840688128647 L 1397.8154741952471 97.00403809004486 L 1397.877571059037 96.89994480135368 L 1397.9419674493515 96.79613742445507 L 1398.0086569266052 96.6926263400002 L 1398.077632821906 96.58942189901128 L 1398.1488882377218 96.48653442184639 L 1398.2224160485705 96.38397419716749 L 1398.298208901732 96.28175148091161 L 1398.3762592179846 96.17987649526519 L 1398.4565591923613 96.07835942764187 L 1398.5391007949318 95.97721042966384 L 1398.6238757716046 95.8764396161466 L 1398.7108756449525 95.77605706408754 L 1398.800091715061 95.67607281165819 L 1398.8915150603968 95.57649685720048 L 1398.9851365387024 95.47733915822688 L 1399.0809467879076 95.37860963042466 L 1399.1789362270672 95.28031814666433 L 1399.279095057319 95.18247453601234 L 1399.3814132628634 95.08508858274823 L 1399.4858806119653 94.98817002538617 L 1399.5924866579767 94.89172855570112 L 1399.701220740382 94.79577381775971 L 1399.8120719858634 94.70031540695574 L 1399.9250293093887 94.60536286905077 L 1400.0400814153197 94.51092569921943 L 1400.1572167985419 94.41701334110004 L 1400.2764237456145 94.32363518585014 L 1400.397690335942 94.23080057120742 L 1400.5210044429662 94.13851878055601 L 1400.6463537353798 94.04679904199807 L 1400.7737256783573 93.955650527431 L 1400.9031075348112 93.86508235163033 L 1401.0344863666633 93.77510357133815 L 1401.1678490361398 93.68572318435751 L 1401.3031822070852 93.59695012865262 L 1401.440472346295 93.5087932814551 L 1401.5797057248699 93.42126145837616 L 1401.7208684195878 93.33436341252519 L 1401.863946314297 93.24810783363438 L 1402.0089251013271 93.1625033471897 L 1402.1557902829204 93.07755851356848 L 1402.304527172681 92.9932818271833 L 1402.455120897044 92.90968171563254 L 1402.6075563967622 92.82676653885773 L 1402.761818428413 92.74454458830742 L 1402.9178915659218 92.66302408610815 L 1403.0757602021047 92.58221318424222 L 1403.2354085502295 92.50211996373247 L 1403.3968206455947 92.4227524338342 L 1403.559980347125 92.34411853123427 L 1403.7248713389868 92.26622611925741 L 1403.8914771322177 92.1890829870799 L 1404.0597810663774 92.11269684895069 L 1404.2297663112126 92.0370753434199 L 1404.401415868341 91.9622260325751 L 1404.5747125729492 91.888156401285 L 1404.7496390955118 91.81487385645099 L 1404.926177943522 91.74238572626649 L 1405.104311463242 91.67069925948411 L 1405.2840218414685 91.59982162469079 L 1405.4652911073135 91.52975990959094 L 1405.6481011340013 91.4605211202977 L 1405.8324336406815 91.3921121806323 L 1406.0182701942572 91.32453993143167 L 1406.2055922112277 91.25781112986445 L 1406.3943809595478 91.1919324487552 L 1406.5846175604995 91.12691047591709 L 1406.7762829905816 91.06275171349324 L 1406.9693580834107 90.99946257730645 L 1407.1638235316384 90.93704939621756 L 1407.3596598888819 90.87551841149269 L 1407.5568475716689 90.81487577617904 L 1407.755366861395 90.75512755448958 L 1407.955197906297 90.69627972119672 L 1408.156320723437 90.63833816103474 L 1408.3587152007005 90.58130866811136 L 1408.5623610988087 90.52519694532836 L 1408.7672380533415 90.47000860381125 L 1408.9733255767742 90.41574916234819 L 1409.1806030605262 90.36242404683813 L 1409.3890497770217 90.31003858974816 L 1409.5986448817628 90.25859802958036 L 1409.8093674154138 90.20810751034786 L 1410.0211963058969 90.1585720810605 L 1410.2341103704994 90.10999669521995 L 1410.4480883179924 90.0623862103243 L 1410.6631087507596 90.01574538738238 L 1410.8791501669368 89.9700788904376 L 1411.0961909625626 89.92539128610161 L 1411.3142094337377 89.88168704309761 L 1411.5331837787974 89.83897053181346 L 1411.753092100489 89.79724602386472 L 1411.9739124081643 89.75651769166738 L 1412.195622619976 89.71678960802075 L 1412.4182005650878 89.67806574570005 L 1412.6416239858909 89.64034997705929 L 1412.865870540229 89.60364607364387 L 1413.090917803634 89.56795770581357 L 1413.3167432715668 89.53328844237541 L 1413.5433243616687 89.49964175022686 L 1413.77063841602 89.46702099400908 L 1413.998662703404 89.43542943577052 L 1414.2273744215825 89.40487023464067 L 1414.456750699574 89.37534644651419 L 1414.686768599942 89.34686102374526 L 1414.9174051210882 89.31941681485246 L 1415.1486371995527 89.29301656423378 L 1415.3804417123201 89.2676629118923 L 1415.6127954791325 89.2433583931721 L 1415.8456752648067 89.22010543850483 L 1416.0790577815583 89.19790637316656 L 1416.3129196913299 89.17676341704532 L 1416.5472376081257 89.15667868441913 L 1416.7819881003493 89.13765418374449 L 1417.0171476931469 89.11969181745562 L 1417.2526928707553 89.10279338177418 L 1417.4886000788529 89.08696056652965 L 1417.7248457269156 89.0721949549904 L 1417.9614061905754 89.05849802370521 L 1418.1982578139832 89.04587114235585 L 1418.4353769121738 89.03431557361992 L 1418.6727397734353 89.02383247304465 L 1418.910322661679 89.01442288893136 L 1419.1481018188144 89.00608776223065 L 1419.3860534671237 88.99882792644821 L 1419.6241538116406 88.9926441075616 L 1419.8623790425286 88.98753692394752 L 1420.1007053374635 88.9835068863201 L 1420.3391088640146 88.98055439767974 L 1420.5775657820275 88.97867975327284 L 1420.8160522460093 88.97788314056228 L 1421.0545444075124 88.97816463920867 L 1421.2930184175193 88.97952422106238 L 1421.5314504288276 88.98196175016635 L 1421.769816598435 88.98547698276971 L 1422.0080930899235 88.99006956735212 L 1422.2462560758418 88.99573904465896 L 1422.4842817400904 89.00248484774721 L 1422.7221462803009 89.0103063020422 L 1422.9598259102177 89.019202625405 L 1423.1972968620755 89.0291729282107 L 1423.4345353889776 89.04021621343732 L 1423.6715177672686 89.05233137676555 L 1423.9082202989082 89.06551720668914 L 1424.1446193138404 89.0797723846361 L 1424.380691172361 89.0950954851005 L 1424.6164122674807 89.11148497578507 L 1424.8517590272863 89.12893921775441 L 1425.086707917298 89.14745646559885 L 1425.321235442823 89.16703486760905 L 1425.5553181513037 89.18767246596111 L 1425.7889326346644 89.20936719691241 L 1426.0220555316516 89.23211689100792 L 1426.2546635301696 89.2559192732972 L 1426.4867333696127 89.28077196356185 L 1426.7182418431903 89.30667247655354 L 1426.9491658002476 89.33361822224259 L 1427.1794821485819 89.36160650607685 L 1427.4091678567497 89.39063452925127 L 1427.638199956372 89.42069938898774 L 1427.8665555444297 89.45179807882532 L 1428.0942117855543 89.48392748892095 L 1428.321145914311 89.5170844063604 L 1428.5473352374765 89.55126551547954 L 1428.7727571363066 89.58646739819596 L 1428.9973890687997 89.62268653435072 L 1429.2212085719493 89.65991930206037 L 1429.4441932639918 89.69816197807918 L 1429.6663208466439 89.73741073817143 L 1429.8875691073324 89.7776616574938 L 1430.1079159214155 89.8189107109879 L 1430.3273392543954 89.86115377378276 L 1430.545817164122 89.9043866216073 L 1430.7633278029857 89.94860493121277 L 1430.9798494201045 89.99380428080505 L 1431.195360363497 90.03998015048685 L 1431.4098390822483 90.0871279227097 L 1431.6232641286651 90.13524288273562 L 1431.835614160421 90.18432021910876 L 1432.0468679426897 90.23435502413635 L 1432.257004350269 90.28534229437957 L 1432.4660023696931 90.33727693115392 L 1432.6738411013341 90.39015374103897 L 1432.8804997614925 90.44396743639781 L 1433.0859576844741 90.49871263590576 L 1433.2901943246582 90.55438386508847 L 1433.4931892585505 90.6109755568694 L 1433.6949221868272 90.66848205212658 L 1433.8953729363632 90.72689760025837 L 1434.094521462251 90.78621635975864 L 1434.2923478498035 90.84643239880089 L 1434.4888323165471 90.90753969583137 L 1434.6839552141987 90.96953214017132 L 1434.8776970306315 91.03240353262795 L 1435.070038391825 91.09614758611443 L 1435.2609600638034 91.1607579262785 L 1435.4504429545586 91.22622809214002 L 1435.6384681159595 91.29255153673692 L 1435.8250167456465 91.35972162778006 L 1436.0100701889123 91.42773164831627 L 1436.1936099405666 91.49657479740019 L 1436.3756176467873 91.56624419077427 L 1436.5560751069552 91.63673286155725 L 1436.734964275475 91.70803376094076 L 1436.912267263579 91.78013975889431 L 1437.0879663411156 91.85304364487818 L 1437.262043938324 91.92673812856452 L 1437.4344826475892 92.00121584056639 L 1437.6052652251842 92.07646933317463 L 1437.7743745929936 92.15249108110271 L 1437.9417938402212 92.22927348223918 L 1438.107506225082 92.3068088584079 L 1438.2714951764758 92.3850894561359 L 1438.4337442956437 92.4641074474286 L 1438.5942373578093 92.54385493055275 L 1438.7529583138 92.62432393082648 L 1438.9098912916527 92.70550640141681 L 1439.0650205982001 92.78739422414436 L 1439.2183307206408 92.86997921029509 L 1439.3698063280906 92.95325310143917 L 1439.5194322731147 93.03720757025692 L 1439.6671935932436 93.12183422137142 L 1439.813075512468 93.20712459218805 L 1439.957063442718 93.29307015374081 L 1440.0991429853202 93.3796623115452 L 1440.2392999324388 93.46689240645757 L 1440.377520268496 93.55475171554113 L 1440.5137901715734 93.64323145293818 L 1440.6480960147942 93.73232277074871 L 1440.780424367686 93.8220167599152 L 1440.9107619975237 93.91230445111346 L 1441.039095870653 94.00317681564962 L 1441.1654131537937 94.09462476636294 L 1441.2897012153223 94.18663915853458 L 1441.4119476265369 94.27921079080198 L 1441.5321401628976 94.37233040607906 L 1441.650266805251 94.46598869248189 L 1441.7663157410318 94.56017628425988 L 1441.8802753654427 94.65488376273235 L 1441.9921342826162 94.75010165723037 L 1442.1018813067542 94.84582044604385 L 1442.2095054632453 94.94203055737364 L 1442.3149959897637 95.03872237028881 L 1442.418342337345 95.13588621568863 L 1442.5195341714398 95.23351237726953 L 1442.6185613729497 95.33159109249674 L 1442.7154140392367 95.43011255358043 L 1442.8100824851151 95.5290669084566 L 1442.902557243819 95.62844426177223 L 1442.9928290679497 95.72823467587482 L 1443.0808889304 95.82842817180608 L 1443.1667280252573 95.92901473029994 L 1443.250337768683 96.02998429278436 L 1443.331709799773 96.13132676238725 L 1443.410835981392 96.23303200494607 L 1443.4877084009875 96.33508985002135 L 1443.5623193713816 96.4374900919136 L 1443.6346614315396 96.54022249068399 L 1443.7047273473158 96.64327677317824 L 1443.7725101121769 96.746642634054 L 1443.8380029479029 96.85030973681128 L 1443.9011993052648 96.95426771482623 L 1443.9620928646793 97.05850617238767 L 1444.020677536842 97.1630146857367 L 1444.0769474633335 97.26778280410907 L 1444.1308970172088 97.37280005078027 L 1444.1825208035568 97.47805592411314 L 1444.2318136600427 97.58353989860805 L 1444.278770657421 97.68924142595546 L 1444.323387100032 97.79514993609072 L 1444.3656585262681 97.90125483825108 L 1444.405580709022 98.00754552203473 L 1444.4431496561085 98.11401135846187 L 1444.4783616106647 98.22064170103758 L 1444.511213051524 98.32742588681647 L 1444.5417006935697 98.43435323746894 L 1444.5698214880636 98.54141306034904 L 1444.595572622949 98.64859464956368 L 1444.618951523134 98.75588728704328 L 1444.6399558507485 98.86328024361347 L 1444.6585835053766 98.97076278006811 L 1444.674832624269 99.07832414824313 L 1444.6887015825268 99.18595359209134 L 1444.700188993266 99.29364034875802 L 1444.7092937077553 99.40137364965727 L 1444.7160148155303 99.50914272154878 L 1444.7203516444865 99.61693678761516 L 1444.722303760944 99.72474506853963 M 1444.722424751 134.0630134831 L 1444.7212322910964 134.17082402801663 L 1444.7176550306303 134.2786237919686 L 1444.7116933273248 134.38640199506935 L 1444.7033477773457 134.49414785958842 L 1444.6926192152405 134.60185061102908 L 1444.6795087138566 134.70949947920602 L 1444.6640175842333 134.81708369932204 L 1444.6461473754707 134.92459251304487 L 1444.6258998745748 135.03201516958265 L 1444.6032771062785 135.1393409267593 L 1444.57828133284 135.24655905208851 L 1444.5509150538162 135.35365882384713 L 1444.5211810058115 135.46062953214718 L 1444.4890821622064 135.56746048000701 L 1444.4546217328582 135.67414098442086 L 1444.4178031637814 135.78066037742718 L 1444.3786301368023 135.88700800717544 L 1444.3371065691904 135.99317323899126 L 1444.2932366132684 136.09914545643997 L 1444.2470246559951 136.2049140623881 L 1444.1984753185277 136.31046848006324 L 1444.1475934557598 136.41579815411154 L 1444.0943841558346 136.5208925516534 L 1444.0388527396385 136.62574116333658 L 1443.9810047602666 136.7303335043874 L 1443.9208460024684 136.8346591156588 L 1443.8583824820696 136.9387075646767 L 1443.7936204453706 137.0424684466828 L 1443.7265663685205 137.14593138567542 L 1443.6572269568715 137.24908603544688 L 1443.585609144307 137.35192208061815 L 1443.5117200925483 137.4544292376704 L 1443.435567190439 137.5565972559734 L 1443.3571580532064 137.6584159188104 L 1443.2765005216984 137.7598750444 L 1443.1936026616008 137.86096448691416 L 1443.108472762631 137.96167413749288 L 1443.0211193377077 138.06199392525505 L 1442.9315511221005 138.1619138183055 L 1442.8397770725562 138.26142382473813 L 1442.745806366404 138.3605139936353 L 1442.6496484006354 138.4591744160626 L 1442.5513127909671 138.5573952260601 L 1442.4508093708785 138.6551666016286 L 1442.3481481906272 138.75247876571203 L 1442.2433395162461 138.84932198717507 L 1442.1363938285153 138.94568658177627 L 1442.0273218219145 139.04156291313652 L 1441.916134403553 139.1369413937025 L 1441.8028426920805 139.2318124857057 L 1441.6874580165736 139.32616670211596 L 1441.5699919154035 139.41999460759027 L 1441.4504561350827 139.51328681941624 L 1441.3288626290894 139.60603400845048 L 1441.205223556673 139.69822690005134 L 1441.0795512816376 139.7898562750065 L 1440.951858371106 139.88091297045483 L 1440.822157594263 139.97138788080267 L 1440.6904619210782 140.06127195863436 L 1440.556784521009 140.15055621561703 L 1440.421138761684 140.23923172339937 L 1440.2835382075662 140.3272896145045 L 1440.1439966185962 140.41472108321673 L 1440.002527948817 140.501517386462 L 1439.8591463449773 140.58766984468238 L 1439.713866145118 140.67316984270377 L 1439.5667018771383 140.75800883059765 L 1439.417668257342 140.8421783245359 L 1439.2667801889672 140.9256699076393 L 1439.114052760695 141.00847523081913 L 1438.9595012451405 141.09058601361204 L 1438.803141097327 141.17199404500818 L 1438.6449879531388 141.25269118427227 L 1438.4850576277586 141.3326693617576 L 1438.3233661140853 141.41192057971313 L 1438.1599295811359 141.49043691308304 L 1437.9947643724274 141.56821051029945 L 1437.8278870043432 141.64523359406746 L 1437.6593141644807 141.72149846214288 L 1437.4890627099835 141.79699748810242 L 1437.3171496658554 141.87172312210643 L 1437.1435922232574 141.94566789165378 L 1436.968407737789 142.01882440232913 L 1436.791613727753 142.0911853385424 L 1436.6132278724028 142.16274346426022 L 1436.4332680101757 142.2334916237297 L 1436.2517521369075 142.3034227421938 L 1436.0686984040346 142.372529826599 L 1435.8841251167776 142.4408059662944 L 1435.6980507323115 142.50824433372296 L 1435.5104938579195 142.5748381851041 L 1435.3214732491329 142.64058086110825 L 1435.131007807855 142.70546578752254 L 1434.9391165804711 142.7694864759084 L 1434.7458187559444 142.83263652425032 L 1434.5511336638958 142.89490961759617 L 1434.3550807726726 142.95629952868842 L 1434.1576796874006 143.01680011858718 L 1433.9589501480234 143.07640533728383 L 1433.7589120273296 143.13510922430623 L 1433.5575853289647 143.19290590931453 L 1433.3549901854306 143.24978961268846 L 1433.151146856073 143.30575464610504 L 1432.9460757250545 143.36079541310758 L 1432.7397972993178 143.41490640966524 L 1432.5323322065335 143.46808222472345 L 1432.3237011930378 143.52031754074505 L 1432.1139251217583 143.57160713424193 L 1431.9030249701273 143.6219458762975 L 1431.6910218279843 143.67132873307952 L 1431.4779368954667 143.71975076634342 L 1431.2637914808902 143.76720713392626 L 1431.048606998618 143.81369309023083 L 1430.8324049669188 143.8592039867002 L 1430.6152070058156 143.9037352722827 L 1430.3970348349235 143.94728249388683 L 1430.177910271278 143.98984129682677 L 1429.9578552271528 144.03140742525764 L 1429.7368917078686 144.07197672260128 L 1429.5150418095936 144.11154513196175 L 1429.2923277171326 144.15010869653108 L 1429.0687717017092 144.18766355998494 L 1428.8443961187386 144.2242059668683 L 1428.6192234055923 144.2597322629709 L 1428.3932760793539 144.29423889569279 L 1428.1665767345678 144.32772241439937 L 1427.9391480409793 144.36017947076672 L 1427.7110127412686 144.39160681911628 L 1427.4821936487751 144.42200131673934 L 1427.252713645218 144.45135992421152 L 1427.0225956784059 144.4796797056965 L 1426.7918627599438 144.50695782923975 L 1426.5605379629314 144.53319156705163 L 1426.3286444196556 144.55837829578024 L 1426.0962053192775 144.5825154967737 L 1425.8632439055134 144.60560075633202 L 1425.6297834743104 144.62763176594848 L 1425.3958473715174 144.64860632254045 L 1425.1614589905496 144.66852232866978 L 1424.9266417700496 144.68737779275247 L 1424.691419191544 144.70517082925778 L 1424.4558147770942 144.72189965889692 L 1424.219852086946 144.73756260880086 L 1423.9835547171713 144.75215811268765 L 1423.7469462973102 144.76568471101908 L 1423.5100504880077 144.77814105114655 L 1423.2728909786472 144.7895258874465 L 1423.035491484982 144.7998380814447 L 1422.7978757467636 144.80907660193043 L 1422.560067525368 144.8172405250593 L 1422.322090601419 144.82432903444578 L 1422.0839687724106 144.83034142124487 L 1421.8457258503272 144.83527708422287 L 1421.607385659263 144.83913552981764 L 1421.3689720330378 144.8419163721878 L 1421.1305088128163 144.84361933325144 L 1420.892019844721 144.84424424271387 L 1420.6535289774506 144.84379103808467 L 1420.4150600598928 144.84225976468392 L 1420.1766369387406 144.83965057563768 L 1419.9382834561075 144.8359637318627 L 1419.7000234471432 144.83119960204027 L 1419.4618807376498 144.82535866257942 L 1419.2238791417 144.81844149756918 L 1418.9860424592553 144.81044879872033 L 1418.7483944737853 144.8013813652961 L 1418.510958949891 144.79124010403225 L 1418.2737596309262 144.78002602904647 L 1418.0368202366258 144.7677402617369 L 1417.8001644607314 144.75438403067005 L 1417.5638159686237 144.73995867145788 L 1417.3277983949547 144.72446562662432 L 1417.092135341285 144.7079064454609 L 1416.856850373724 144.69028278387196 L 1416.621967020572 144.671596404209 L 1416.3875087699687 144.65184917509436 L 1416.1534990675436 144.6310430712345 L 1415.9199613140725 144.6091801732225 L 1415.6869188631354 144.58626266732998 L 1415.4543950187838 144.56229284528834 L 1415.2224130332079 144.53727310405984 L 1414.9909961044132 144.5112059455978 L 1414.7601673738998 144.48409397659628 L 1414.529949924348 144.45593990822962 L 1414.3003667773116 144.4267465558812 L 1414.0714408909134 144.3965168388619 L 1413.8431951575515 144.36525378011828 L 1413.6156524016087 144.3329605059301 L 1413.3888353771715 144.2996402455979 L 1413.1627667657528 144.26529633111994 L 1412.9374691740259 144.22993219685907 L 1412.712965131562 144.19355137919922 L 1412.489277088578 144.15615751619185 L 1412.266427413692 144.1177543471921 L 1412.044438391686 144.07834571248486 L 1411.8233322212768 144.03793555290076 L 1411.6031310128976 143.9965279094221 L 1411.3838567864852 143.9541269227787 L 1411.16553146928 143.9107368330339 L 1410.9481768936319 143.8663619791605 L 1410.7318147948167 143.82100679860693 L 1410.5164668088644 143.77467582685347 L 1410.302154470394 143.72737369695864 L 1410.088899210461 143.679105139096 L 1409.8767223544135 143.62987498008118 L 1409.6656451197603 143.579688142889 L 1409.455688614049 143.52854964616142 L 1409.246873832755 143.4764646037054 L 1409.0392216571827 143.4234382239819 L 1408.8327528523764 143.36947580958457 L 1408.6274880650449 143.31458275671 L 1408.4234478214953 143.25876455461767 L 1408.2206525255824 143.20202678508127 L 1408.0191224566668 143.1443751218305 L 1407.8188777675869 143.08581532998366 L 1407.6199384826455 143.02635326547107 L 1407.4223244956047 142.9659948744497 L 1407.2260555676987 142.9047461927083 L 1407.031151325657 142.84261334506402 L 1406.8376312597409 142.77960254474988 L 1406.6455147217962 142.71572009279336 L 1406.4548209233164 142.65097237738644 L 1406.2655689335224 142.5853658732467 L 1406.0777776774555 142.51890714096987 L 1405.8914659340849 142.4516028263738 L 1405.7066523344295 142.3834596598339 L 1405.5233553596954 142.31448445561 L 1405.3415933394272 142.24468411116504 L 1405.1613844496756 142.17406560647532 L 1404.9827467111793 142.10263600333244 L 1404.8056979875635 142.03040244463722 L 1404.6302559835526 141.9573721536853 L 1404.456438243201 141.88355243344492 L 1404.2842621481382 141.80895066582661 L 1404.11374491583 141.73357431094496 L 1403.9449035978573 141.65743090637264 L 1403.7777550782114 141.58052806638665 L 1403.612316071605 141.5028734812069 L 1403.448603121801 141.42447491622718 L 1403.2866325999576 141.34534021123872 L 1403.1264207029922 141.265477279646 L 1402.9679834519611 141.1848941076757 L 1402.8113366904574 141.10359875357778 L 1402.6564960830265 141.02159934681995 L 1402.5034771136002 140.93890408727458 L 1402.3522950839479 140.85552124439866 L 1402.2029651121466 140.77145915640702 L 1402.055502131069 140.68672622943842 L 1401.9099208868906 140.6013309367149 L 1401.766235937614 140.5152818176946 L 1401.6244616516149 140.42858747721772 L 1401.4846122062033 140.34125658464606 L 1401.3467015862077 140.2532978729961 L 1401.2107435825747 140.1647201380657 L 1401.0767517909917 140.07553223755454 L 1400.9447396105259 139.98574309017835 L 1400.8147202422856 139.89536167477704 L 1400.686706688099 139.80439702941683 L 1400.5607117492152 139.71285825048648 L 1400.4367480250228 139.62075449178758 L 1400.314827911791 139.52809496361922 L 1400.1949636014297 139.43488893185705 L 1400.0771670802696 139.34114571702654 L 1399.9614501278652 139.24687469337107 L 1399.8478243158152 139.15208528791445 L 1399.7363010066056 139.05678697951822 L 1399.626891352475 138.96098929793382 L 1399.5196062942973 138.86470182284955 L 1399.414456560489 138.76793418293272 L 1399.311452665936 138.67069605486665 L 1399.2106049109418 138.57299716238313 L 1399.1119233801976 138.47484727529 L 1399.0154179417748 138.37625620849414 L 1398.9210982461361 138.27723382102013 L 1398.8289737251732 138.17779001502413 L 1398.739053591261 138.07793473480393 L 1398.651346836338 137.9776779658043 L 1398.5658622310068 137.87702973361863 L 1398.4826083236565 137.77600010298625 L 1398.4015934396086 137.67459917678602 L 1398.3228256802838 137.57283709502605 L 1398.2463129223925 137.47072403382973 L 1398.1720628171468 137.3682702044181 L 1398.100082789495 137.26548585208872 L 1398.0303800373804 137.16238125519112 L 1397.9629615310198 137.05896672409915 L 1397.8978340122078 136.95525260017968 L 1397.835003993642 136.8512492547587 L 1397.7744777582718 136.74696708808406 L 1397.7162613586704 136.64241652828557 L 1397.660360616429 136.53760803033202 L 1397.6067811215755 136.43255207498592 L 1397.555528232015 136.32725916775524 L 1397.506607072993 136.22173983784296 L 1397.4600225365853 136.11600463709416 L 1397.4157792812061 136.01006413894075 L 1397.3738817311448 135.90392893734432 L 1397.334334076121 135.79760964573654 L 1397.2971402708674 135.69111689595798 L 1397.2623040347335 135.5844613371949 L 1397.2298288513139 135.47765363491428 L 1397.1997179680998 135.37070446979732 L 1397.1719743961546 135.26362453667144 L 1397.1466009098122 135.15642454344072 L 1397.1236000464003 135.04911521001512 L 1397.1029741059858 134.9417072672386 L 1397.0847251511457 134.83421145581588 L 1397.0688550067603 134.72663852523857 L 1397.0553652598308 134.61899923271008 L 1397.0442572593206 134.5113043420699 L 1397.0355321160205 134.40356462271745 L 1397.0291907024375 134.2957908485348 L 1397.0252336527078 134.1879937968096 L 1397.0236613625332 134.08018424715718" stroke-miterlimit="10" stroke-width="2.7769845610000004" stroke-dasharray=""/></g><g><g/><text fill="black" stroke="none" font-family="sans-serif" font-size="11pt" font-style="normal" font-weight="normal" text-decoration="normal" x="1401.873027933" y="162.371920802" text-anchor="start" dominant-baseline="alphabetic" xml:space="preserve">Model</text></g></g><g><g><text fill="black" stroke="none" font-family="sans-serif" font-size="11pt" font-style="normal" font-weight="normal" text-decoration="normal" x="96.0611229819167" y="214.644571362" text-anchor="start" dominant-baseline="alphabetic" xml:space="preserve">Select Event</text></g><g><path fill="none" stroke="black" paint-order="fill stroke markers" d=" M 46.3352033 221.178652682 L 214.3377252801667 221.178652682" stroke-miterlimit="10" stroke-width="1.3612669416666667" stroke-dasharray=""/><g transform="translate(227.78704266383335,221.178652682) translate(-227.78704266383335,-221.178652682)"><path fill="black" stroke="none" paint-order="stroke fill markers" d=" M 214.17437324716667 214.37231797366667 L 227.78704266383335 221.178652682 L 214.17437324716667 227.98498739033334 Z"/></g></g><g><text fill="black" stroke="none" font-family="sans-serif" font-size="11pt" font-style="normal" font-weight="normal" text-decoration="normal" x="361.65542127341666" y="260.383140602" text-anchor="start" dominant-baseline="alphabetic" xml:space="preserve">Get Selected Event</text></g><g><path fill="none" stroke="black" paint-order="fill stroke markers" d=" M 227.78704266383335 266.917221922 L 607.0744824993334 266.917221922" stroke-miterlimit="10" stroke-width="1.3612669416666667" stroke-dasharray=""/><g transform="translate(620.523799883,266.917221922) translate(-620.523799883,-266.917221922)"><path fill="black" stroke="none" paint-order="stroke fill markers" d=" M 606.9111304663334 260.1108872136667 L 620.523799883 266.917221922 L 606.9111304663334 273.72355663033335 Z"/></g></g><g><text fill="black" stroke="none" font-family="sans-serif" font-size="11pt" font-style="normal" font-weight="normal" text-decoration="normal" x="642.3040709496668" y="306.121709842" text-anchor="start" dominant-baseline="alphabetic" xml:space="preserve">Check if user can access event</text></g><g><path fill="none" stroke="black" paint-order="fill stroke markers" d=" M 620.523799883 312.655791162 L 855.6350246326667 312.655791162" stroke-miterlimit="10" stroke-width="1.3612669416666667" stroke-dasharray=""/><g transform="translate(869.0843420163334,312.655791162) translate(-869.0843420163334,-312.655791162)"><path fill="black" stroke="none" paint-order="stroke fill markers" d=" M 855.4716725996667 305.8494564536667 L 869.0843420163334 312.655791162 L 855.4716725996667 319.46212587033335 Z"/></g></g><g><text fill="black" stroke="none" font-family="sans-serif" font-size="11pt" font-style="normal" font-weight="normal" text-decoration="normal" x="687.3040709496668" y="351.860279082" text-anchor="start" dominant-baseline="alphabetic" xml:space="preserve">Authenticate User</text></g><g><path fill="none" stroke="black" paint-order="fill stroke markers" d=" M 869.0843420163334 358.394360402 L 633.9731172666667 358.394360402" stroke-miterlimit="10" stroke-width="1.3612669416666667" stroke-dasharray=""/><g transform="translate(620.523799883,358.394360402) translate(-620.523799883,-358.394360402)"><path fill="black" stroke="none" paint-order="stroke fill markers" d=" M 634.1364692996667 351.5880256936667 L 620.523799883 358.394360402 L 634.1364692996667 365.20069511033336 Z"/></g></g><g><text fill="black" stroke="none" font-family="sans-serif" font-size="11pt" font-style="normal" font-weight="normal" text-decoration="normal" x="973.698413908" y="397.598848322" text-anchor="start" dominant-baseline="alphabetic" xml:space="preserve">Get event data</text></g><g><path fill="none" stroke="black" paint-order="fill stroke markers" d=" M 620.523799883 404.132929642 L 1407.4237105493332 404.132929642" stroke-miterlimit="10" stroke-width="1.3612669416666667" stroke-dasharray=""/><g transform="translate(1420.873027933,404.132929642) translate(-1420.873027933,-404.132929642)"><path fill="black" stroke="none" paint-order="stroke fill markers" d=" M 1407.2603585163333 397.3265949336667 L 1420.873027933 404.132929642 L 1407.2603585163333 410.93926435033336 Z"/></g></g><g><text fill="black" stroke="none" font-family="sans-serif" font-size="11pt" font-style="normal" font-weight="normal" text-decoration="normal" x="963.198413908" y="443.337417562" text-anchor="start" dominant-baseline="alphabetic" xml:space="preserve">Return event data</text></g><g><path fill="none" stroke="black" paint-order="fill stroke markers" d=" M 1420.873027933 449.871498882 L 633.9731172666667 449.871498882" stroke-miterlimit="10" stroke-width="1.3612669416666667" stroke-dasharray=""/><g transform="translate(620.523799883,449.871498882) translate(-620.523799883,-449.871498882)"><path fill="black" stroke="none" paint-order="stroke fill markers" d=" M 634.1364692996667 443.0651641736667 L 620.523799883 449.871498882 L 634.1364692996667 456.67783359033336 Z"/></g></g><g><text fill="black" stroke="none" font-family="sans-serif" font-size="11pt" font-style="normal" font-weight="normal" text-decoration="normal" x="425.2967185039167" y="489.075986802" text-anchor="start" dominant-baseline="alphabetic" xml:space="preserve">Return event data</text></g><g><path fill="none" stroke="black" paint-order="fill stroke markers" d=" M 620.523799883 495.61006812200003 L 358.5189545085 495.61006812200003" stroke-miterlimit="10" stroke-width="1.3612669416666667" stroke-dasharray=""/><g transform="translate(345.0696371248333,495.61006812200003) translate(-345.0696371248333,-495.61006812200003)"><path fill="black" stroke="none" paint-order="stroke fill markers" d=" M 358.6823065415 488.8037334136667 L 345.0696371248333 495.61006812200003 L 358.6823065415 502.41640283033337 Z"/></g></g><g><text fill="black" stroke="none" font-family="sans-serif" font-size="11pt" font-style="normal" font-weight="normal" text-decoration="normal" x="132.70242021241665" y="534.8145560419999" text-anchor="start" dominant-baseline="alphabetic" xml:space="preserve">Present event page</text></g><g><path fill="none" stroke="black" paint-order="fill stroke markers" d=" M 345.0696371248333 541.348637362 L 59.78452068366667 541.348637362" stroke-miterlimit="10" stroke-width="1.3612669416666667" stroke-dasharray=""/><g transform="translate(46.3352033,541.348637362) translate(-46.3352033,-541.348637362)"><path fill="black" stroke="none" paint-order="stroke fill markers" d=" M 59.94787271666667 534.5423026536666 L 46.3352033 541.348637362 L 59.94787271666667 548.1549720703333 Z"/></g></g><g><text fill="black" stroke="none" font-family="sans-serif" font-size="11pt" font-style="normal" font-weight="normal" text-decoration="normal" x="171.20242021241665" y="580.5531252819999" text-anchor="start" dominant-baseline="alphabetic" xml:space="preserve">Sign up</text></g><g><path fill="none" stroke="black" paint-order="fill stroke markers" d=" M 46.3352033 587.0872066019999 L 331.62031974116667 587.0872066019999" stroke-miterlimit="10" stroke-width="1.3612669416666667" stroke-dasharray=""/><g transform="translate(345.0696371248333,587.0872066019999) translate(-345.0696371248333,-587.0872066019999)"><path fill="black" stroke="none" paint-order="stroke fill markers" d=" M 331.45696770816664 580.2808718936666 L 345.0696371248333 587.0872066019999 L 331.45696770816664 593.8935413103333 Z"/></g></g><g><text fill="black" stroke="none" font-family="sans-serif" font-size="11pt" font-style="normal" font-weight="normal" text-decoration="normal" x="695.85726063725" y="626.2916945219998" text-anchor="start" dominant-baseline="alphabetic" xml:space="preserve">Sign up request </text></g><g><path fill="none" stroke="black" paint-order="fill stroke markers" d=" M 345.0696371248333 632.8257758419999 L 1139.195566766 632.8257758419999" stroke-miterlimit="10" stroke-width="1.3612669416666667" stroke-dasharray=""/><g transform="translate(1152.6448841496667,632.8257758419999) translate(-1152.6448841496667,-632.8257758419999)"><path fill="black" stroke="none" paint-order="stroke fill markers" d=" M 1139.032214733 626.0194411336665 L 1152.6448841496667 632.8257758419999 L 1139.032214733 639.6321105503332 Z"/></g></g><g><text fill="black" stroke="none" font-family="sans-serif" font-size="11pt" font-style="normal" font-weight="normal" text-decoration="normal" x="890.864613083" y="672.0302637619998" text-anchor="start" dominant-baseline="alphabetic" xml:space="preserve">Check if user can sign up for position</text></g><g><path fill="none" stroke="black" paint-order="fill stroke markers" d=" M 1152.6448841496667 678.5643450819998 L 882.5336594 678.5643450819998" stroke-miterlimit="10" stroke-width="1.3612669416666667" stroke-dasharray=""/><g transform="translate(869.0843420163334,678.5643450819998) translate(-869.0843420163334,-678.5643450819998)"><path fill="black" stroke="none" paint-order="stroke fill markers" d=" M 882.6970114330001 671.7580103736665 L 869.0843420163334 678.5643450819998 L 882.6970114330001 685.3706797903332 Z"/></g></g><g><text fill="black" stroke="none" font-family="sans-serif" font-size="11pt" font-style="normal" font-weight="normal" text-decoration="normal" x="953.364613083" y="717.7688330019997" text-anchor="start" dominant-baseline="alphabetic" xml:space="preserve">Authenticate User</text></g><g><path fill="none" stroke="black" paint-order="fill stroke markers" d=" M 869.0843420163334 724.3029143219998 L 1139.195566766 724.3029143219998" stroke-miterlimit="10" stroke-width="1.3612669416666667" stroke-dasharray=""/><g transform="translate(1152.6448841496667,724.3029143219998) translate(-1152.6448841496667,-724.3029143219998)"><path fill="black" stroke="none" paint-order="stroke fill markers" d=" M 1139.032214733 717.4965796136664 L 1152.6448841496667 724.3029143219998 L 1139.032214733 731.1092490303331 Z"/></g></g><g><text fill="black" stroke="none" font-family="sans-serif" font-size="11pt" font-style="normal" font-weight="normal" text-decoration="normal" x="1207.2589560413335" y="763.5074022419997" text-anchor="start" dominant-baseline="alphabetic" xml:space="preserve">Add user to volunteer list</text></g><g><path fill="none" stroke="black" paint-order="fill stroke markers" d=" M 1152.6448841496667 770.0414835619997 L 1407.4237105493332 770.0414835619997" stroke-miterlimit="10" stroke-width="1.3612669416666667" stroke-dasharray=""/><g transform="translate(1420.873027933,770.0414835619997) translate(-1420.873027933,-770.0414835619997)"><path fill="black" stroke="none" paint-order="stroke fill markers" d=" M 1407.2603585163333 763.2351488536664 L 1420.873027933 770.0414835619997 L 1407.2603585163333 776.847818270333 Z"/></g></g><g><text fill="black" stroke="none" font-family="sans-serif" font-size="11pt" font-style="normal" font-weight="normal" text-decoration="normal" x="1230.2589560413335" y="809.2459714819996" text-anchor="start" dominant-baseline="alphabetic" xml:space="preserve">Confirm user add</text></g><g><path fill="none" stroke="black" paint-order="fill stroke markers" d=" M 1420.873027933 815.7800528019997 L 1166.0942015333335 815.7800528019997" stroke-miterlimit="10" stroke-width="1.3612669416666667" stroke-dasharray=""/><g transform="translate(1152.6448841496667,815.7800528019997) translate(-1152.6448841496667,-815.7800528019997)"><path fill="black" stroke="none" paint-order="stroke fill markers" d=" M 1166.2575535663334 808.9737180936663 L 1152.6448841496667 815.7800528019997 L 1166.2575535663334 822.586387510333 Z"/></g></g><g><text fill="black" stroke="none" font-family="sans-serif" font-size="11pt" font-style="normal" font-weight="normal" text-decoration="normal" x="745.74855786775" y="854.9845407219996" text-anchor="start" dominant-baseline="alphabetic" xml:space="preserve">Confirm signup page</text></g><g><path fill="none" stroke="black" paint-order="fill stroke markers" d=" M 1152.6448841496667 861.5186220419996 L 487.3015489695 861.5186220419996" stroke-miterlimit="10" stroke-width="1.3612669416666667" stroke-dasharray=""/><g transform="translate(473.85223158583335,861.5186220419996) translate(-473.85223158583335,-861.5186220419996)"><path fill="black" stroke="none" paint-order="stroke fill markers" d=" M 487.4649010025 854.7122873336663 L 473.85223158583335 861.5186220419996 L 487.4649010025 868.324956750333 Z"/></g></g><g><text fill="black" stroke="none" font-family="sans-serif" font-size="11pt" font-style="normal" font-weight="normal" text-decoration="normal" x="164.09371744291667" y="900.7231099619995" text-anchor="start" dominant-baseline="alphabetic" xml:space="preserve">Send conformation message </text></g><g><path fill="none" stroke="black" paint-order="fill stroke markers" d=" M 473.85223158583335 907.2571912819996 L 59.78452068366667 907.2571912819996" stroke-miterlimit="10" stroke-width="1.3612669416666667" stroke-dasharray=""/><g transform="translate(46.3352033,907.2571912819996) translate(-46.3352033,-907.2571912819996)"><path fill="black" stroke="none" paint-order="stroke fill markers" d=" M 59.94787271666667 900.4508565736662 L 46.3352033 907.2571912819996 L 59.94787271666667 914.0635259903329 Z"/></g></g></g><g/><g/><g/><g/><g/><g/><g/><g/></g></svg>